G04 #@! TF.FileFunction,Soldermask,Top*
%FSLAX46Y46*%
G04 Gerber Fmt 4.6, Leading zero omitted, Abs format (unit mm)*
G04 Created by KiCad (PCBNEW 4.0.7+dfsg1-1) date Mon Nov  5 17:33:27 2018*
%MOMM*%
%LPD*%
G01*
G04 APERTURE LIST*
%ADD10C,0.100000*%
%ADD11R,1.900000X1.650000*%
%ADD12R,2.100000X2.100000*%
%ADD13O,2.100000X2.100000*%
%ADD14R,1.700000X1.900000*%
%ADD15R,1.900000X1.700000*%
%ADD16C,2.100000*%
%ADD17C,1.500000*%
%ADD18C,1.924000*%
%ADD19C,5.900000*%
G04 APERTURE END LIST*
D10*
D11*
X134981000Y-111887000D03*
X132481000Y-111887000D03*
D12*
X161600000Y-109900000D03*
D13*
X159060000Y-109900000D03*
X156520000Y-109900000D03*
X153980000Y-109900000D03*
X151440000Y-109900000D03*
X148900000Y-109900000D03*
X146360000Y-109900000D03*
D14*
X139640000Y-113850000D03*
X139640000Y-116550000D03*
D15*
X137290000Y-118700000D03*
X139990000Y-118700000D03*
D14*
X139640000Y-123550000D03*
X139640000Y-120850000D03*
D16*
X108640000Y-137550000D03*
X108640000Y-132470000D03*
X103560000Y-137550000D03*
X103560000Y-132470000D03*
D17*
X108640000Y-135010000D03*
D16*
X108437587Y-111857220D03*
X103606220Y-110287413D03*
X106867780Y-116688587D03*
X102036413Y-115118780D03*
D17*
X106021903Y-111072316D03*
D16*
X108098071Y-120477122D03*
X105112122Y-124586929D03*
X112207878Y-123463071D03*
X109221929Y-127572878D03*
D17*
X106605097Y-122532025D03*
D16*
X124040000Y-137550000D03*
X124040000Y-132470000D03*
X118960000Y-137550000D03*
X118960000Y-132470000D03*
D17*
X124040000Y-135010000D03*
D16*
X116740000Y-109515000D03*
X116740000Y-104435000D03*
X111660000Y-109515000D03*
X111660000Y-104435000D03*
D17*
X116740000Y-106975000D03*
D16*
X116740000Y-118940000D03*
X116740000Y-113860000D03*
X111660000Y-118940000D03*
X111660000Y-113860000D03*
D17*
X116740000Y-116400000D03*
D16*
X116192122Y-123463071D03*
X119178071Y-127572878D03*
X120301929Y-120477122D03*
X123287878Y-124586929D03*
D17*
X117685097Y-125517975D03*
D16*
X139440000Y-137550000D03*
X139440000Y-132470000D03*
X134360000Y-137550000D03*
X134360000Y-132470000D03*
D17*
X139440000Y-135010000D03*
D16*
X121532220Y-116688587D03*
X126363587Y-115118780D03*
X119962413Y-111857220D03*
X124793780Y-110287413D03*
D17*
X123947903Y-115903684D03*
D16*
X154840000Y-137550000D03*
X154840000Y-132470000D03*
X149760000Y-137550000D03*
X149760000Y-132470000D03*
D17*
X154840000Y-135010000D03*
D16*
X170240000Y-137550000D03*
X170240000Y-132470000D03*
X165160000Y-137550000D03*
X165160000Y-132470000D03*
D17*
X170240000Y-135010000D03*
D16*
X185640000Y-137550000D03*
X185640000Y-132470000D03*
X180560000Y-137550000D03*
X180560000Y-132470000D03*
D17*
X185640000Y-135010000D03*
D16*
X201040000Y-137550000D03*
X201040000Y-132470000D03*
X195960000Y-137550000D03*
X195960000Y-132470000D03*
D17*
X201040000Y-135010000D03*
D16*
X216440000Y-137550000D03*
X216440000Y-132470000D03*
X211360000Y-137550000D03*
X211360000Y-132470000D03*
D17*
X216440000Y-135010000D03*
D16*
X235440000Y-113550000D03*
X235440000Y-108470000D03*
X230360000Y-113550000D03*
X230360000Y-108470000D03*
D17*
X235440000Y-111010000D03*
D16*
X235440000Y-125550000D03*
X235440000Y-120470000D03*
X230360000Y-125550000D03*
X230360000Y-120470000D03*
D17*
X235440000Y-123010000D03*
D16*
X235440000Y-137550000D03*
X235440000Y-132470000D03*
X230360000Y-137550000D03*
X230360000Y-132470000D03*
D17*
X235440000Y-135010000D03*
D16*
X250840000Y-113550000D03*
X250840000Y-108470000D03*
X245760000Y-113550000D03*
X245760000Y-108470000D03*
D17*
X250840000Y-111010000D03*
D16*
X250840000Y-125550000D03*
X250840000Y-120470000D03*
X245760000Y-125550000D03*
X245760000Y-120470000D03*
D17*
X250840000Y-123010000D03*
D16*
X250840000Y-137550000D03*
X250840000Y-132470000D03*
X245760000Y-137550000D03*
X245760000Y-132470000D03*
D17*
X250840000Y-135010000D03*
D18*
X169418000Y-102108000D03*
X204978000Y-102108000D03*
X202438000Y-102108000D03*
X199898000Y-102108000D03*
X197358000Y-102108000D03*
X194818000Y-102108000D03*
X192278000Y-102108000D03*
X189738000Y-102108000D03*
X171958000Y-102108000D03*
X174498000Y-102108000D03*
X177038000Y-102108000D03*
X179578000Y-102108000D03*
X182118000Y-102108000D03*
X184658000Y-102108000D03*
X187198000Y-102108000D03*
X187198000Y-102108000D03*
X184658000Y-102108000D03*
X182118000Y-102108000D03*
X179578000Y-102108000D03*
X177038000Y-102108000D03*
X174498000Y-102108000D03*
X171958000Y-102108000D03*
X189738000Y-102108000D03*
X192278000Y-102108000D03*
X194818000Y-102108000D03*
X197358000Y-102108000D03*
X199898000Y-102108000D03*
X202438000Y-102108000D03*
X204978000Y-102108000D03*
X169418000Y-102108000D03*
X204978000Y-117348000D03*
X202438000Y-117348000D03*
X199898000Y-117348000D03*
X197358000Y-117348000D03*
X194818000Y-117348000D03*
X192278000Y-117348000D03*
X189738000Y-117348000D03*
X187198000Y-117348000D03*
X184658000Y-117348000D03*
X182118000Y-117348000D03*
X179578000Y-117348000D03*
X177038000Y-117348000D03*
X174498000Y-117348000D03*
X171958000Y-117348000D03*
X169418000Y-117348000D03*
D19*
X240600000Y-110998000D03*
X240600000Y-135010000D03*
X175400000Y-135010000D03*
X113800000Y-135010000D03*
X126200000Y-120300000D03*
D11*
X192004000Y-111125000D03*
X189504000Y-111125000D03*
D19*
X106800000Y-106200000D03*
M02*
