M48
;DRILL file {KiCad 4.0.7+dfsg1-1} date Mon Nov  5 17:33:30 2018
;FORMAT={-:-/ absolute / inch / decimal}
FMAT,2
INCH,TZ
T1C0.016
T2C0.030
T3C0.039
T4C0.134
%
G90
G05
M72
T1
X5.189Y-5.3583
X5.32Y-4.405
X5.4976Y-4.5984
X5.4976Y-4.7598
X5.5173Y-4.6732
X5.6197Y-4.7677
X5.6575Y-4.6248
X5.68Y-4.65
X5.68Y-4.69
X5.68Y-4.8
X5.689Y-5.3898
X5.94Y-4.64
X5.97Y-4.67
X6.1Y-4.61
X6.24Y-4.08
X6.29Y-4.08
X7.06Y-4.53
X7.3607Y-4.4682
X7.3627Y-4.1611
X7.469Y-4.4682
X7.5197Y-5.3976
X7.56Y-4.41
X7.6087Y-4.4643
X7.7609Y-4.1709
X8.0827Y-5.2402
X8.0827Y-5.315
X8.0906Y-5.4016
X8.7283Y-5.3583
T2
X6.67Y-4.02
X6.67Y-4.02
X6.67Y-4.62
X6.77Y-4.02
X6.77Y-4.02
X6.77Y-4.62
X6.87Y-4.02
X6.87Y-4.02
X6.87Y-4.62
X6.97Y-4.02
X6.97Y-4.02
X6.97Y-4.62
X7.07Y-4.02
X7.07Y-4.02
X7.07Y-4.62
X7.17Y-4.02
X7.17Y-4.02
X7.17Y-4.62
X7.27Y-4.02
X7.27Y-4.02
X7.27Y-4.62
X7.37Y-4.02
X7.37Y-4.02
X7.37Y-4.62
X7.47Y-4.02
X7.47Y-4.02
X7.47Y-4.62
X7.57Y-4.02
X7.57Y-4.02
X7.57Y-4.62
X7.67Y-4.02
X7.67Y-4.02
X7.67Y-4.62
X7.77Y-4.02
X7.77Y-4.02
X7.77Y-4.62
X7.87Y-4.02
X7.87Y-4.02
X7.87Y-4.62
X7.97Y-4.02
X7.97Y-4.02
X7.97Y-4.62
X8.07Y-4.02
X8.07Y-4.02
X8.07Y-4.62
T3
X4.0172Y-4.5322
X4.0772Y-5.2154
X4.0772Y-5.4154
X4.079Y-4.342
X4.1383Y-4.905
X4.1741Y-4.3729
X4.1971Y-4.8241
X4.2074Y-4.594
X4.2558Y-4.7432
X4.2692Y-4.4038
X4.2772Y-5.2154
X4.2772Y-5.3154
X4.2772Y-5.4154
X4.3001Y-5.0226
X4.3961Y-4.1116
X4.3961Y-4.3116
X4.3961Y-4.4827
X4.3961Y-4.6827
X4.4176Y-4.8608
X4.5745Y-4.8608
X4.5961Y-4.1116
X4.5961Y-4.2116
X4.5961Y-4.3116
X4.5961Y-4.4827
X4.5961Y-4.5827
X4.5961Y-4.6827
X4.6333Y-4.9417
X4.6835Y-5.2154
X4.6835Y-5.4154
X4.6921Y-5.0226
X4.7229Y-4.4038
X4.7363Y-4.7432
X4.7847Y-4.594
X4.8539Y-4.905
X4.8798Y-4.5631
X4.8835Y-5.2154
X4.8835Y-5.3154
X4.8835Y-5.4154
X4.9131Y-4.342
X4.9749Y-4.5322
X5.2898Y-5.2154
X5.2898Y-5.4154
X5.4898Y-5.2154
X5.4898Y-5.3154
X5.4898Y-5.4154
X5.7622Y-4.3268
X5.8622Y-4.3268
X5.8961Y-5.2154
X5.8961Y-5.4154
X5.9622Y-4.3268
X6.0622Y-4.3268
X6.0961Y-5.2154
X6.0961Y-5.3154
X6.0961Y-5.4154
X6.1622Y-4.3268
X6.2622Y-4.3268
X6.3622Y-4.3268
X6.5024Y-5.2154
X6.5024Y-5.4154
X6.7024Y-5.2154
X6.7024Y-5.3154
X6.7024Y-5.4154
X7.1087Y-5.2154
X7.1087Y-5.4154
X7.3087Y-5.2154
X7.3087Y-5.3154
X7.3087Y-5.4154
X7.715Y-5.2154
X7.715Y-5.4154
X7.915Y-5.2154
X7.915Y-5.3154
X7.915Y-5.4154
X8.3213Y-5.2154
X8.3213Y-5.4154
X8.5213Y-5.2154
X8.5213Y-5.3154
X8.5213Y-5.4154
X9.0693Y-4.2705
X9.0693Y-4.4705
X9.0693Y-4.7429
X9.0693Y-4.9429
X9.0693Y-5.2154
X9.0693Y-5.4154
X9.2693Y-4.2705
X9.2693Y-4.3705
X9.2693Y-4.4705
X9.2693Y-4.7429
X9.2693Y-4.8429
X9.2693Y-4.9429
X9.2693Y-5.2154
X9.2693Y-5.3154
X9.2693Y-5.4154
X9.6756Y-4.2705
X9.6756Y-4.4705
X9.6756Y-4.7429
X9.6756Y-4.9429
X9.6756Y-5.2154
X9.6756Y-5.4154
X9.8756Y-4.2705
X9.8756Y-4.3705
X9.8756Y-4.4705
X9.8756Y-4.7429
X9.8756Y-4.8429
X9.8756Y-4.9429
X9.8756Y-5.2154
X9.8756Y-5.3154
X9.8756Y-5.4154
T4
X4.2047Y-4.1811
X4.4803Y-5.3154
X4.9685Y-4.7362
X6.9055Y-5.3154
X9.4724Y-4.37
X9.4724Y-5.3154
T0
M30
