G04 #@! TF.FileFunction,Copper,L2,Bot,Signal*
%FSLAX46Y46*%
G04 Gerber Fmt 4.6, Leading zero omitted, Abs format (unit mm)*
G04 Created by KiCad (PCBNEW 4.0.7+dfsg1-1) date Mon Nov  5 17:33:27 2018*
%MOMM*%
%LPD*%
G01*
G04 APERTURE LIST*
%ADD10C,0.100000*%
%ADD11R,1.250000X1.500000*%
%ADD12R,1.700000X1.700000*%
%ADD13O,1.700000X1.700000*%
%ADD14R,1.500000X1.300000*%
%ADD15C,1.700000*%
%ADD16C,1.100000*%
%ADD17R,1.560000X0.650000*%
%ADD18R,0.600000X1.950000*%
%ADD19R,1.750000X0.450000*%
%ADD20R,2.000000X0.700000*%
%ADD21C,1.524000*%
%ADD22C,5.500000*%
%ADD23C,0.600000*%
%ADD24C,0.250000*%
%ADD25C,0.812800*%
%ADD26C,0.508000*%
%ADD27C,0.254000*%
G04 APERTURE END LIST*
D10*
D11*
X159700000Y-103650000D03*
X159700000Y-106150000D03*
X147000000Y-106050000D03*
X147000000Y-103550000D03*
D12*
X161600000Y-109900000D03*
D13*
X159060000Y-109900000D03*
X156520000Y-109900000D03*
X153980000Y-109900000D03*
X151440000Y-109900000D03*
X148900000Y-109900000D03*
X146360000Y-109900000D03*
D14*
X187012000Y-105692000D03*
X189712000Y-105692000D03*
X189712000Y-113492000D03*
X187012000Y-113492000D03*
D15*
X108640000Y-137550000D03*
X108640000Y-132470000D03*
X103560000Y-137550000D03*
X103560000Y-132470000D03*
D16*
X108640000Y-135010000D03*
D15*
X108437587Y-111857220D03*
X103606220Y-110287413D03*
X106867780Y-116688587D03*
X102036413Y-115118780D03*
D16*
X106021903Y-111072316D03*
D15*
X108098071Y-120477122D03*
X105112122Y-124586929D03*
X112207878Y-123463071D03*
X109221929Y-127572878D03*
D16*
X106605097Y-122532025D03*
D15*
X124040000Y-137550000D03*
X124040000Y-132470000D03*
X118960000Y-137550000D03*
X118960000Y-132470000D03*
D16*
X124040000Y-135010000D03*
D15*
X116740000Y-109515000D03*
X116740000Y-104435000D03*
X111660000Y-109515000D03*
X111660000Y-104435000D03*
D16*
X116740000Y-106975000D03*
D15*
X116740000Y-118940000D03*
X116740000Y-113860000D03*
X111660000Y-118940000D03*
X111660000Y-113860000D03*
D16*
X116740000Y-116400000D03*
D15*
X116192122Y-123463071D03*
X119178071Y-127572878D03*
X120301929Y-120477122D03*
X123287878Y-124586929D03*
D16*
X117685097Y-125517975D03*
D15*
X139440000Y-137550000D03*
X139440000Y-132470000D03*
X134360000Y-137550000D03*
X134360000Y-132470000D03*
D16*
X139440000Y-135010000D03*
D15*
X121532220Y-116688587D03*
X126363587Y-115118780D03*
X119962413Y-111857220D03*
X124793780Y-110287413D03*
D16*
X123947903Y-115903684D03*
D17*
X157450000Y-104350000D03*
X157450000Y-105300000D03*
X157450000Y-106250000D03*
X154750000Y-106250000D03*
X154750000Y-104350000D03*
D15*
X154840000Y-137550000D03*
X154840000Y-132470000D03*
X149760000Y-137550000D03*
X149760000Y-132470000D03*
D16*
X154840000Y-135010000D03*
D15*
X170240000Y-137550000D03*
X170240000Y-132470000D03*
X165160000Y-137550000D03*
X165160000Y-132470000D03*
D16*
X170240000Y-135010000D03*
D18*
X192047000Y-105942000D03*
X193317000Y-105942000D03*
X194587000Y-105942000D03*
X195857000Y-105942000D03*
X197127000Y-105942000D03*
X198397000Y-105942000D03*
X199667000Y-105942000D03*
X200937000Y-105942000D03*
X202207000Y-105942000D03*
X203477000Y-105942000D03*
X203477000Y-113442000D03*
X202207000Y-113442000D03*
X200937000Y-113442000D03*
X199667000Y-113442000D03*
X198397000Y-113442000D03*
X197127000Y-113442000D03*
X195857000Y-113442000D03*
X194587000Y-113442000D03*
X193317000Y-113442000D03*
X192047000Y-113442000D03*
D15*
X185640000Y-137550000D03*
X185640000Y-132470000D03*
X180560000Y-137550000D03*
X180560000Y-132470000D03*
D16*
X185640000Y-135010000D03*
D15*
X201040000Y-137550000D03*
X201040000Y-132470000D03*
X195960000Y-137550000D03*
X195960000Y-132470000D03*
D16*
X201040000Y-135010000D03*
D15*
X216440000Y-137550000D03*
X216440000Y-132470000D03*
X211360000Y-137550000D03*
X211360000Y-132470000D03*
D16*
X216440000Y-135010000D03*
D15*
X235440000Y-113550000D03*
X235440000Y-108470000D03*
X230360000Y-113550000D03*
X230360000Y-108470000D03*
D16*
X235440000Y-111010000D03*
D15*
X235440000Y-125550000D03*
X235440000Y-120470000D03*
X230360000Y-125550000D03*
X230360000Y-120470000D03*
D16*
X235440000Y-123010000D03*
D15*
X235440000Y-137550000D03*
X235440000Y-132470000D03*
X230360000Y-137550000D03*
X230360000Y-132470000D03*
D16*
X235440000Y-135010000D03*
D15*
X250840000Y-113550000D03*
X250840000Y-108470000D03*
X245760000Y-113550000D03*
X245760000Y-108470000D03*
D16*
X250840000Y-111010000D03*
D15*
X250840000Y-125550000D03*
X250840000Y-120470000D03*
X245760000Y-125550000D03*
X245760000Y-120470000D03*
D16*
X250840000Y-123010000D03*
D15*
X250840000Y-137550000D03*
X250840000Y-132470000D03*
X245760000Y-137550000D03*
X245760000Y-132470000D03*
D16*
X250840000Y-135010000D03*
D19*
X135040000Y-112275000D03*
X135040000Y-112925000D03*
X135040000Y-113575000D03*
X135040000Y-114225000D03*
X135040000Y-114875000D03*
X135040000Y-115525000D03*
X135040000Y-116175000D03*
X135040000Y-116825000D03*
X135040000Y-117475000D03*
X135040000Y-118125000D03*
X135040000Y-118775000D03*
X135040000Y-119425000D03*
X135040000Y-120075000D03*
X135040000Y-120725000D03*
X142240000Y-120725000D03*
X142240000Y-120075000D03*
X142240000Y-119425000D03*
X142240000Y-118775000D03*
X142240000Y-118125000D03*
X142240000Y-117475000D03*
X142240000Y-116825000D03*
X142240000Y-116175000D03*
X142240000Y-115525000D03*
X142240000Y-114875000D03*
X142240000Y-114225000D03*
X142240000Y-113575000D03*
X142240000Y-112925000D03*
X142240000Y-112275000D03*
D20*
X151200000Y-104575000D03*
X151200000Y-106025000D03*
D21*
X169418000Y-102108000D03*
X204978000Y-102108000D03*
X202438000Y-102108000D03*
X199898000Y-102108000D03*
X197358000Y-102108000D03*
X194818000Y-102108000D03*
X192278000Y-102108000D03*
X189738000Y-102108000D03*
X171958000Y-102108000D03*
X174498000Y-102108000D03*
X177038000Y-102108000D03*
X179578000Y-102108000D03*
X182118000Y-102108000D03*
X184658000Y-102108000D03*
X187198000Y-102108000D03*
X187198000Y-102108000D03*
X184658000Y-102108000D03*
X182118000Y-102108000D03*
X179578000Y-102108000D03*
X177038000Y-102108000D03*
X174498000Y-102108000D03*
X171958000Y-102108000D03*
X189738000Y-102108000D03*
X192278000Y-102108000D03*
X194818000Y-102108000D03*
X197358000Y-102108000D03*
X199898000Y-102108000D03*
X202438000Y-102108000D03*
X204978000Y-102108000D03*
X169418000Y-102108000D03*
X204978000Y-117348000D03*
X202438000Y-117348000D03*
X199898000Y-117348000D03*
X197358000Y-117348000D03*
X194818000Y-117348000D03*
X192278000Y-117348000D03*
X189738000Y-117348000D03*
X187198000Y-117348000D03*
X184658000Y-117348000D03*
X182118000Y-117348000D03*
X179578000Y-117348000D03*
X177038000Y-117348000D03*
X174498000Y-117348000D03*
X171958000Y-117348000D03*
X169418000Y-117348000D03*
D22*
X240600000Y-110998000D03*
X240600000Y-135010000D03*
X175400000Y-135010000D03*
X113800000Y-135010000D03*
X126200000Y-120300000D03*
X106800000Y-106200000D03*
D23*
X135128000Y-111887000D03*
X158496000Y-103632000D03*
X159766000Y-103632000D03*
X142740000Y-121100000D03*
X143700000Y-117470000D03*
X205300000Y-135000000D03*
X205300000Y-133100000D03*
X205500000Y-137200000D03*
X191000000Y-137100000D03*
X144500000Y-136900000D03*
X221700000Y-136100000D03*
X131800000Y-136100000D03*
X192024000Y-112014000D03*
X187012000Y-105692000D03*
X186962000Y-113492000D03*
X197127000Y-105942000D03*
X150876000Y-117856000D03*
X144272000Y-118110000D03*
X139640000Y-116800000D03*
X144272000Y-119126000D03*
X151638000Y-118618000D03*
X140140000Y-118700000D03*
X144272000Y-121920000D03*
X154940000Y-117094000D03*
X179324000Y-115062000D03*
X189712000Y-113492000D03*
X193262000Y-113392000D03*
X139640000Y-120900000D03*
D24*
X135040000Y-112275000D02*
X135040000Y-111975000D01*
X135040000Y-111975000D02*
X135128000Y-111887000D01*
D25*
X158496000Y-103650000D02*
X158150000Y-103650000D01*
X158496000Y-103632000D02*
X158496000Y-103650000D01*
D26*
X157480000Y-103500000D02*
X157358000Y-103500000D01*
X157358000Y-103500000D02*
X156972000Y-103886000D01*
D25*
X159766000Y-103632000D02*
X159748000Y-103650000D01*
X159748000Y-103650000D02*
X159700000Y-103650000D01*
D26*
X157450000Y-104350000D02*
X158150000Y-103650000D01*
X158150000Y-103650000D02*
X158050000Y-103650000D01*
X158050000Y-103650000D02*
X157900000Y-103800000D01*
X157900000Y-103800000D02*
X157900000Y-103650000D01*
X157400000Y-103500000D02*
X157480000Y-103500000D01*
X157480000Y-103500000D02*
X158000000Y-103500000D01*
X158000000Y-103500000D02*
X158150000Y-103650000D01*
X157450000Y-104350000D02*
X157450000Y-103550000D01*
X157400000Y-103700000D02*
X157400000Y-103500000D01*
X157400000Y-103600000D02*
X157400000Y-103700000D01*
X157450000Y-103550000D02*
X157400000Y-103600000D01*
D25*
X159700000Y-103650000D02*
X157900000Y-103650000D01*
X157900000Y-103650000D02*
X158150000Y-103650000D01*
X159850000Y-103800000D02*
X159700000Y-103650000D01*
D24*
X142365000Y-120725000D02*
X142740000Y-121100000D01*
X143695000Y-117475000D02*
X143700000Y-117470000D01*
X143695000Y-117475000D02*
X142240000Y-117475000D01*
X142240000Y-120725000D02*
X142365000Y-120725000D01*
D26*
X157450000Y-105300000D02*
X158850000Y-105300000D01*
X158850000Y-105300000D02*
X159700000Y-106150000D01*
X192047000Y-113442000D02*
X192047000Y-112037000D01*
X192047000Y-112037000D02*
X192024000Y-112014000D01*
D24*
X187012000Y-105692000D02*
X184630000Y-105692000D01*
X154750000Y-106998000D02*
X154750000Y-106250000D01*
X155956000Y-108204000D02*
X154750000Y-106998000D01*
X182118000Y-108204000D02*
X155956000Y-108204000D01*
X184630000Y-105692000D02*
X182118000Y-108204000D01*
X187012000Y-113492000D02*
X186962000Y-113492000D01*
X187012000Y-113492000D02*
X187012000Y-112942000D01*
X187012000Y-112942000D02*
X188062000Y-111892000D01*
X190497000Y-111892000D02*
X192047000Y-113442000D01*
X188062000Y-111892000D02*
X190497000Y-111892000D01*
X148900000Y-109900000D02*
X149000000Y-109900000D01*
D25*
X148900000Y-109900000D02*
X148900000Y-106125000D01*
X148900000Y-106125000D02*
X149000000Y-106025000D01*
X151200000Y-106025000D02*
X149000000Y-106025000D01*
X149000000Y-106025000D02*
X147025000Y-106025000D01*
X147025000Y-106025000D02*
X147000000Y-106050000D01*
X154750000Y-106250000D02*
X151425000Y-106250000D01*
X151425000Y-106250000D02*
X151200000Y-106025000D01*
D24*
X151440000Y-109900000D02*
X151556000Y-109900000D01*
X151556000Y-109900000D02*
X155194000Y-113538000D01*
X194587000Y-112291000D02*
X193548000Y-111252000D01*
X193548000Y-111252000D02*
X186690000Y-111252000D01*
X186690000Y-111252000D02*
X185420000Y-112522000D01*
X194587000Y-113442000D02*
X194587000Y-112291000D01*
X184912000Y-113030000D02*
X185420000Y-112522000D01*
X165100000Y-113030000D02*
X165354000Y-113030000D01*
X165354000Y-113030000D02*
X184912000Y-113030000D01*
X164592000Y-113538000D02*
X165100000Y-113030000D01*
X155194000Y-113538000D02*
X164592000Y-113538000D01*
X151440000Y-109900000D02*
X151440000Y-110240000D01*
X153980000Y-109900000D02*
X154096000Y-109900000D01*
X154096000Y-109900000D02*
X156972000Y-112776000D01*
X186436000Y-110490000D02*
X184912000Y-112014000D01*
X193802000Y-110490000D02*
X186436000Y-110490000D01*
X195857000Y-112545000D02*
X193802000Y-110490000D01*
X184658000Y-112268000D02*
X184912000Y-112014000D01*
X164846000Y-112268000D02*
X165354000Y-112268000D01*
X165354000Y-112268000D02*
X184658000Y-112268000D01*
X164338000Y-112776000D02*
X164846000Y-112268000D01*
X156972000Y-112776000D02*
X164338000Y-112776000D01*
X195857000Y-113442000D02*
X195857000Y-112545000D01*
X153980000Y-109900000D02*
X153980000Y-110280000D01*
X184404000Y-111506000D02*
X165354000Y-111506000D01*
X165354000Y-111506000D02*
X164592000Y-111506000D01*
X186182000Y-109728000D02*
X184404000Y-111506000D01*
X194056000Y-109728000D02*
X186182000Y-109728000D01*
X197127000Y-112799000D02*
X194056000Y-109728000D01*
X158242000Y-112014000D02*
X156520000Y-110292000D01*
X164084000Y-112014000D02*
X158242000Y-112014000D01*
X164592000Y-111506000D02*
X164084000Y-112014000D01*
X156520000Y-110292000D02*
X156520000Y-109900000D01*
X197127000Y-113442000D02*
X197127000Y-112799000D01*
X156520000Y-109900000D02*
X156520000Y-110220000D01*
X159060000Y-109900000D02*
X159060000Y-110292000D01*
X159060000Y-110292000D02*
X160020000Y-111252000D01*
X160020000Y-111252000D02*
X163830000Y-111252000D01*
X163830000Y-111252000D02*
X164338000Y-110744000D01*
X164338000Y-110744000D02*
X165354000Y-110744000D01*
X165354000Y-110744000D02*
X184150000Y-110744000D01*
X198397000Y-113442000D02*
X198397000Y-112545000D01*
X198397000Y-112545000D02*
X194818000Y-108966000D01*
X194818000Y-108966000D02*
X185928000Y-108966000D01*
X185928000Y-108966000D02*
X184150000Y-110744000D01*
X185674000Y-108204000D02*
X183978000Y-109900000D01*
X183978000Y-109900000D02*
X165354000Y-109900000D01*
X165354000Y-109900000D02*
X161600000Y-109900000D01*
X185674000Y-108204000D02*
X185928000Y-108204000D01*
X186182000Y-108204000D02*
X185928000Y-108204000D01*
X185928000Y-108204000D02*
X185674000Y-108204000D01*
X199667000Y-112799000D02*
X195072000Y-108204000D01*
X195072000Y-108204000D02*
X186182000Y-108204000D01*
X199667000Y-113442000D02*
X199667000Y-112799000D01*
X161600000Y-109900000D02*
X161700000Y-109900000D01*
X193317000Y-105942000D02*
X193317000Y-106957000D01*
X204978000Y-110490000D02*
X204978000Y-117348000D01*
X202184000Y-107696000D02*
X204978000Y-110490000D01*
X194056000Y-107696000D02*
X202184000Y-107696000D01*
X193317000Y-106957000D02*
X194056000Y-107696000D01*
X194587000Y-105942000D02*
X194587000Y-105133000D01*
X194587000Y-105133000D02*
X197358000Y-102362000D01*
X197358000Y-102362000D02*
X197358000Y-102108000D01*
X195857000Y-105942000D02*
X195857000Y-104879000D01*
X197866000Y-104140000D02*
X199898000Y-102108000D01*
X196596000Y-104140000D02*
X197866000Y-104140000D01*
X195857000Y-104879000D02*
X196596000Y-104140000D01*
X202438000Y-102108000D02*
X202438000Y-103632000D01*
X198397000Y-104625000D02*
X198397000Y-105942000D01*
X198628000Y-104394000D02*
X198397000Y-104625000D01*
X201676000Y-104394000D02*
X198628000Y-104394000D01*
X202438000Y-103632000D02*
X201676000Y-104394000D01*
X184658000Y-117348000D02*
X184404000Y-117348000D01*
X184404000Y-117348000D02*
X182880000Y-115824000D01*
X182880000Y-115824000D02*
X167894000Y-115824000D01*
X167894000Y-115824000D02*
X165862000Y-117856000D01*
X165862000Y-117856000D02*
X165354000Y-117856000D01*
X165354000Y-117856000D02*
X155956000Y-117856000D01*
X155956000Y-117856000D02*
X150876000Y-117856000D01*
X144272000Y-118110000D02*
X144257000Y-118125000D01*
X144257000Y-118125000D02*
X142240000Y-118125000D01*
X142240000Y-118125000D02*
X140965000Y-118125000D01*
X140965000Y-118125000D02*
X139640000Y-116800000D01*
X187198000Y-117348000D02*
X185928000Y-118618000D01*
X143921000Y-118775000D02*
X142240000Y-118775000D01*
X144272000Y-119126000D02*
X143921000Y-118775000D01*
X185928000Y-118618000D02*
X165354000Y-118618000D01*
X165354000Y-118618000D02*
X155956000Y-118618000D01*
X155956000Y-118618000D02*
X151638000Y-118618000D01*
X142240000Y-118775000D02*
X140215000Y-118775000D01*
X140215000Y-118775000D02*
X140140000Y-118700000D01*
X135040000Y-120075000D02*
X136077000Y-120075000D01*
X136077000Y-120075000D02*
X137922000Y-121920000D01*
X137922000Y-121920000D02*
X144272000Y-121920000D01*
X155956000Y-117094000D02*
X165608000Y-117094000D01*
X154940000Y-117094000D02*
X155956000Y-117094000D01*
X165608000Y-117094000D02*
X167640000Y-115062000D01*
X167640000Y-115062000D02*
X179324000Y-115062000D01*
X157450000Y-106250000D02*
X157450000Y-107158000D01*
X190500000Y-103886000D02*
X192278000Y-102108000D01*
X185928000Y-103886000D02*
X190500000Y-103886000D01*
X181864000Y-107442000D02*
X185928000Y-103886000D01*
X157734000Y-107442000D02*
X181864000Y-107442000D01*
X157450000Y-107158000D02*
X157734000Y-107442000D01*
X157450000Y-106350000D02*
X157450000Y-106250000D01*
D27*
X154750000Y-104350000D02*
X151425000Y-104350000D01*
X151425000Y-104350000D02*
X151200000Y-104575000D01*
D24*
X189712000Y-105692000D02*
X191797000Y-105692000D01*
X191797000Y-105692000D02*
X192047000Y-105942000D01*
X193312000Y-113442000D02*
X193262000Y-113392000D01*
X193312000Y-113442000D02*
X193317000Y-113442000D01*
X142240000Y-120075000D02*
X140465000Y-120075000D01*
X140465000Y-120075000D02*
X139640000Y-120900000D01*
X123698000Y-129794000D02*
X121106000Y-129794000D01*
X105130000Y-132470000D02*
X107800000Y-129800000D01*
X107800000Y-129800000D02*
X121100000Y-129800000D01*
X105130000Y-132470000D02*
X103560000Y-132470000D01*
X121106000Y-129794000D02*
X121100000Y-129800000D01*
X128400000Y-125092000D02*
X123698000Y-129794000D01*
X123698000Y-129794000D02*
X123692000Y-129800000D01*
X135040000Y-116825000D02*
X133365000Y-116825000D01*
X131318000Y-122174000D02*
X128400000Y-125092000D01*
X131318000Y-118872000D02*
X131318000Y-122174000D01*
X133365000Y-116825000D02*
X131318000Y-118872000D01*
X134965000Y-116900000D02*
X135040000Y-116825000D01*
X135015000Y-116800000D02*
X135040000Y-116825000D01*
X131965000Y-112925000D02*
X129425000Y-112925000D01*
X135040000Y-112925000D02*
X131965000Y-112925000D01*
X127700000Y-109100000D02*
X120600000Y-102000000D01*
X127700000Y-111200000D02*
X127700000Y-109100000D01*
X129425000Y-112925000D02*
X127700000Y-111200000D01*
X102036413Y-109063587D02*
X102036413Y-104963587D01*
X102036413Y-109063587D02*
X102036413Y-115118780D01*
X109100000Y-102000000D02*
X120600000Y-102000000D01*
X102036413Y-104963587D02*
X105000000Y-102000000D01*
X105000000Y-102000000D02*
X109100000Y-102000000D01*
X134965000Y-113000000D02*
X135040000Y-112925000D01*
X127762000Y-124714000D02*
X123376000Y-129100000D01*
X123444000Y-129032000D02*
X123444000Y-129100000D01*
X123376000Y-129100000D02*
X123444000Y-129032000D01*
X135040000Y-116175000D02*
X132999000Y-116175000D01*
X130556000Y-121920000D02*
X127762000Y-124714000D01*
X130556000Y-118618000D02*
X130556000Y-121920000D01*
X132999000Y-116175000D02*
X130556000Y-118618000D01*
X123444000Y-129100000D02*
X120800000Y-129100000D01*
X118000000Y-129100000D02*
X120800000Y-129100000D01*
X116472878Y-127572878D02*
X109221929Y-127572878D01*
X116472878Y-127572878D02*
X118000000Y-129100000D01*
X135015000Y-116200000D02*
X135040000Y-116175000D01*
X123825000Y-130683000D02*
X121217000Y-130683000D01*
X121200000Y-130700000D02*
X119430000Y-132470000D01*
X121217000Y-130683000D02*
X121200000Y-130700000D01*
X129100000Y-125408000D02*
X123825000Y-130683000D01*
X123825000Y-130683000D02*
X123808000Y-130700000D01*
X135040000Y-117475000D02*
X133731000Y-117475000D01*
X132080000Y-122428000D02*
X129100000Y-125408000D01*
X132080000Y-119126000D02*
X132080000Y-122428000D01*
X133731000Y-117475000D02*
X132080000Y-119126000D01*
X134965000Y-117400000D02*
X135040000Y-117475000D01*
X118960000Y-132470000D02*
X119430000Y-132470000D01*
X131615000Y-113575000D02*
X129075000Y-113575000D01*
X112300000Y-102700000D02*
X120400000Y-102700000D01*
X111660000Y-104435000D02*
X111660000Y-103340000D01*
X111660000Y-103340000D02*
X112300000Y-102700000D01*
X129075000Y-113575000D02*
X127000000Y-111500000D01*
X127000000Y-111500000D02*
X127000000Y-109300000D01*
X127000000Y-109300000D02*
X120400000Y-102700000D01*
X131615000Y-113575000D02*
X135040000Y-113575000D01*
X135015000Y-113600000D02*
X135040000Y-113575000D01*
X131365000Y-114225000D02*
X128825000Y-114225000D01*
X115100000Y-111300000D02*
X117900000Y-111300000D01*
X117900000Y-111300000D02*
X120500000Y-108700000D01*
X120500000Y-108700000D02*
X125500000Y-108700000D01*
X111660000Y-113860000D02*
X112540000Y-113860000D01*
X112540000Y-113860000D02*
X115100000Y-111300000D01*
X128825000Y-114225000D02*
X126300000Y-111700000D01*
X126300000Y-111700000D02*
X126300000Y-109500000D01*
X126300000Y-109500000D02*
X125500000Y-108700000D01*
X131365000Y-114225000D02*
X135040000Y-114225000D01*
X135015000Y-114200000D02*
X135040000Y-114225000D01*
X135040000Y-115525000D02*
X132633000Y-115525000D01*
X126873071Y-124586929D02*
X123287878Y-124586929D01*
X129794000Y-121666000D02*
X126873071Y-124586929D01*
X129794000Y-118364000D02*
X129794000Y-121666000D01*
X130048000Y-118110000D02*
X129794000Y-118364000D01*
X132633000Y-115525000D02*
X130048000Y-118110000D01*
X135015000Y-115500000D02*
X135040000Y-115525000D01*
X123287878Y-124586929D02*
X123413071Y-124586929D01*
X135040000Y-120725000D02*
X135040000Y-124548000D01*
X132278000Y-125222000D02*
X131200000Y-126300000D01*
X134366000Y-125222000D02*
X132278000Y-125222000D01*
X135040000Y-124548000D02*
X134366000Y-125222000D01*
X134965000Y-120800000D02*
X135040000Y-120725000D01*
X131200000Y-127900000D02*
X131200000Y-126500000D01*
X131200000Y-126500000D02*
X131200000Y-126300000D01*
X134360000Y-132470000D02*
X132270000Y-132470000D01*
X131200000Y-131400000D02*
X131200000Y-127900000D01*
X132270000Y-132470000D02*
X131200000Y-131400000D01*
X135040000Y-114875000D02*
X128475000Y-114875000D01*
X128475000Y-114875000D02*
X124793780Y-111193780D01*
X124793780Y-111193780D02*
X124793780Y-110287413D01*
X134965000Y-114800000D02*
X135040000Y-114875000D01*
X135040000Y-119425000D02*
X133813000Y-119425000D01*
X133604000Y-122936000D02*
X130500000Y-126040000D01*
X133604000Y-119634000D02*
X133604000Y-122936000D01*
X133813000Y-119425000D02*
X133604000Y-119634000D01*
X135015000Y-119400000D02*
X135040000Y-119425000D01*
X130500000Y-126100000D02*
X130500000Y-126040000D01*
X130500000Y-126900000D02*
X130500000Y-126100000D01*
X130500000Y-128100000D02*
X130500000Y-126900000D01*
X130500000Y-131500000D02*
X130500000Y-128100000D01*
X132900000Y-133900000D02*
X130500000Y-131500000D01*
X148300000Y-133900000D02*
X132900000Y-133900000D01*
X149730000Y-132470000D02*
X148300000Y-133900000D01*
X149760000Y-132470000D02*
X149730000Y-132470000D01*
X135040000Y-118775000D02*
X133447000Y-118775000D01*
X132842000Y-122682000D02*
X129800000Y-125724000D01*
X132842000Y-119380000D02*
X132842000Y-122682000D01*
X133447000Y-118775000D02*
X132842000Y-119380000D01*
X134965000Y-118700000D02*
X135040000Y-118775000D01*
X129800000Y-125900000D02*
X129800000Y-125724000D01*
X165130000Y-132470000D02*
X161500000Y-136100000D01*
X129800000Y-128200000D02*
X129800000Y-125900000D01*
X129800000Y-131800000D02*
X129800000Y-128200000D01*
X134100000Y-136100000D02*
X129800000Y-131800000D01*
X161500000Y-136100000D02*
X134100000Y-136100000D01*
X165160000Y-132470000D02*
X165130000Y-132470000D01*
X173100000Y-123700000D02*
X155956000Y-123700000D01*
X155956000Y-123700000D02*
X149740000Y-123700000D01*
X144815000Y-116175000D02*
X142240000Y-116175000D01*
X145640000Y-117000000D02*
X144815000Y-116175000D01*
X145640000Y-119600000D02*
X145640000Y-117000000D01*
X149740000Y-123700000D02*
X145640000Y-119600000D01*
X185640000Y-132470000D02*
X185670000Y-132470000D01*
X185670000Y-132470000D02*
X189300000Y-136100000D01*
X189300000Y-136100000D02*
X219900000Y-136100000D01*
X219900000Y-136100000D02*
X223900000Y-132100000D01*
X223900000Y-132100000D02*
X223900000Y-124300000D01*
X223900000Y-124300000D02*
X223300000Y-123700000D01*
X223300000Y-123700000D02*
X173100000Y-123700000D01*
X172800000Y-124400000D02*
X155956000Y-124400000D01*
X155956000Y-124400000D02*
X149540000Y-124400000D01*
X144465000Y-116825000D02*
X142240000Y-116825000D01*
X144940000Y-117300000D02*
X144465000Y-116825000D01*
X144940000Y-119800000D02*
X144940000Y-117300000D01*
X149540000Y-124400000D02*
X144940000Y-119800000D01*
X223200000Y-129100000D02*
X223200000Y-124800000D01*
X223200000Y-131800000D02*
X223200000Y-129100000D01*
X221100000Y-133900000D02*
X223200000Y-131800000D01*
X202500000Y-133900000D02*
X221100000Y-133900000D01*
X201070000Y-132470000D02*
X202500000Y-133900000D01*
X222800000Y-124400000D02*
X172800000Y-124400000D01*
X223200000Y-124800000D02*
X222800000Y-124400000D01*
X201040000Y-132470000D02*
X201070000Y-132470000D01*
X142240000Y-119425000D02*
X143615000Y-119425000D01*
X149290000Y-125100000D02*
X155956000Y-125100000D01*
X155956000Y-125100000D02*
X165700000Y-125100000D01*
X143615000Y-119425000D02*
X149290000Y-125100000D01*
X222500000Y-125400000D02*
X222200000Y-125100000D01*
X222200000Y-125100000D02*
X166700000Y-125100000D01*
X221530000Y-132470000D02*
X216440000Y-132470000D01*
X222500000Y-131500000D02*
X222500000Y-129000000D01*
X221530000Y-132470000D02*
X222500000Y-131500000D01*
X222500000Y-129000000D02*
X222500000Y-125400000D01*
X165700000Y-125100000D02*
X166700000Y-125100000D01*
X204500000Y-120100000D02*
X226500000Y-120100000D01*
X228500000Y-110330000D02*
X230360000Y-108470000D01*
X228500000Y-118100000D02*
X228500000Y-110330000D01*
X226500000Y-120100000D02*
X228500000Y-118100000D01*
X174400000Y-120100000D02*
X155956000Y-120100000D01*
X155956000Y-120100000D02*
X151040000Y-120100000D01*
X145965000Y-112925000D02*
X142240000Y-112925000D01*
X149040000Y-116000000D02*
X145965000Y-112925000D01*
X149040000Y-118100000D02*
X149040000Y-116000000D01*
X151040000Y-120100000D02*
X149040000Y-118100000D01*
X204500000Y-120100000D02*
X174400000Y-120100000D01*
X204900000Y-121500000D02*
X229330000Y-121500000D01*
X229330000Y-121500000D02*
X230360000Y-120470000D01*
X173900000Y-121500000D02*
X155956000Y-121500000D01*
X155956000Y-121500000D02*
X150540000Y-121500000D01*
X145565000Y-114225000D02*
X142240000Y-114225000D01*
X147740000Y-116400000D02*
X145565000Y-114225000D01*
X147740000Y-118700000D02*
X147740000Y-116400000D01*
X150540000Y-121500000D02*
X147740000Y-118700000D01*
X204900000Y-121500000D02*
X173900000Y-121500000D01*
X173300000Y-122900000D02*
X155956000Y-122900000D01*
X155956000Y-122900000D02*
X149940000Y-122900000D01*
X145065000Y-115525000D02*
X142240000Y-115525000D01*
X146340000Y-116800000D02*
X145065000Y-115525000D01*
X146340000Y-119300000D02*
X146340000Y-116800000D01*
X149940000Y-122900000D02*
X146340000Y-119300000D01*
X230360000Y-132470000D02*
X230360000Y-129760000D01*
X223500000Y-122900000D02*
X173300000Y-122900000D01*
X230360000Y-129760000D02*
X223500000Y-122900000D01*
X204300000Y-119400000D02*
X226200000Y-119400000D01*
X227900000Y-108700000D02*
X230200000Y-106400000D01*
X227900000Y-117700000D02*
X227900000Y-108700000D01*
X226200000Y-119400000D02*
X227900000Y-117700000D01*
X174700000Y-119400000D02*
X155956000Y-119400000D01*
X155956000Y-119400000D02*
X151340000Y-119400000D01*
X146215000Y-112275000D02*
X142240000Y-112275000D01*
X149740000Y-115800000D02*
X146215000Y-112275000D01*
X149740000Y-117800000D02*
X149740000Y-115800000D01*
X151340000Y-119400000D02*
X149740000Y-117800000D01*
X245760000Y-108470000D02*
X245760000Y-108060000D01*
X245760000Y-108060000D02*
X244100000Y-106400000D01*
X244100000Y-106400000D02*
X230200000Y-106400000D01*
X204300000Y-119400000D02*
X174700000Y-119400000D01*
X204900000Y-120800000D02*
X228000000Y-120800000D01*
X228000000Y-120800000D02*
X229800000Y-119000000D01*
X174100000Y-120800000D02*
X155956000Y-120800000D01*
X155956000Y-120800000D02*
X150840000Y-120800000D01*
X145715000Y-113575000D02*
X142240000Y-113575000D01*
X148440000Y-116300000D02*
X145715000Y-113575000D01*
X148440000Y-118400000D02*
X148440000Y-116300000D01*
X150840000Y-120800000D02*
X148440000Y-118400000D01*
X245760000Y-120470000D02*
X245760000Y-120460000D01*
X245760000Y-120460000D02*
X244300000Y-119000000D01*
X244300000Y-119000000D02*
X229800000Y-119000000D01*
X204900000Y-120800000D02*
X174100000Y-120800000D01*
X173600000Y-122200000D02*
X155956000Y-122200000D01*
X155956000Y-122200000D02*
X150240000Y-122200000D01*
X145315000Y-114875000D02*
X142240000Y-114875000D01*
X147040000Y-116600000D02*
X145315000Y-114875000D01*
X147040000Y-119000000D02*
X147040000Y-116600000D01*
X150240000Y-122200000D02*
X147040000Y-119000000D01*
X245760000Y-132470000D02*
X245670000Y-132470000D01*
X245670000Y-132470000D02*
X240600000Y-127400000D01*
X223900000Y-122200000D02*
X173600000Y-122200000D01*
X229100000Y-127400000D02*
X223900000Y-122200000D01*
X240600000Y-127400000D02*
X229100000Y-127400000D01*
X245760000Y-132470000D02*
X245760000Y-131760000D01*
D27*
G36*
X168743282Y-132241279D02*
X168769685Y-132831458D01*
X168944741Y-133254080D01*
X169196042Y-133334353D01*
X170060395Y-132470000D01*
X170046253Y-132455858D01*
X170225858Y-132276253D01*
X170240000Y-132290395D01*
X170254143Y-132276253D01*
X170433748Y-132455858D01*
X170419605Y-132470000D01*
X171283958Y-133334353D01*
X171535259Y-133254080D01*
X171736718Y-132698721D01*
X171710315Y-132108542D01*
X171586655Y-131810000D01*
X174280483Y-131810000D01*
X173485057Y-132138663D01*
X172532010Y-133090048D01*
X172015589Y-134333728D01*
X172014414Y-135680364D01*
X172528663Y-136924943D01*
X173480048Y-137877990D01*
X174723728Y-138394411D01*
X176070364Y-138395586D01*
X177314943Y-137881337D01*
X178267990Y-136929952D01*
X178784411Y-135686272D01*
X178785586Y-134339636D01*
X178444424Y-133513958D01*
X179695647Y-133513958D01*
X179775920Y-133765259D01*
X180331279Y-133966718D01*
X180921458Y-133940315D01*
X181344080Y-133765259D01*
X181424353Y-133513958D01*
X180560000Y-132649605D01*
X179695647Y-133513958D01*
X178444424Y-133513958D01*
X178271337Y-133095057D01*
X177319952Y-132142010D01*
X176520383Y-131810000D01*
X179219730Y-131810000D01*
X179063282Y-132241279D01*
X179089685Y-132831458D01*
X179264741Y-133254080D01*
X179516042Y-133334353D01*
X180380395Y-132470000D01*
X180366253Y-132455858D01*
X180545858Y-132276253D01*
X180560000Y-132290395D01*
X180574143Y-132276253D01*
X180753748Y-132455858D01*
X180739605Y-132470000D01*
X181603958Y-133334353D01*
X181855259Y-133254080D01*
X182056718Y-132698721D01*
X182030315Y-132108542D01*
X181906655Y-131810000D01*
X184306121Y-131810000D01*
X184155258Y-132173319D01*
X184154743Y-132764089D01*
X184380344Y-133310086D01*
X184797717Y-133728188D01*
X185217384Y-133902449D01*
X184969628Y-134004820D01*
X184635991Y-134337875D01*
X184455206Y-134773255D01*
X184454794Y-135244677D01*
X184634820Y-135680372D01*
X184967875Y-136014009D01*
X185217668Y-136117732D01*
X184799914Y-136290344D01*
X184381812Y-136707717D01*
X184155258Y-137253319D01*
X184154743Y-137844089D01*
X184380344Y-138390086D01*
X184797717Y-138808188D01*
X185259651Y-139000000D01*
X180939418Y-139000000D01*
X181400086Y-138809656D01*
X181818188Y-138392283D01*
X182044742Y-137846681D01*
X182045257Y-137255911D01*
X181819656Y-136709914D01*
X181402283Y-136291812D01*
X180856681Y-136065258D01*
X180265911Y-136064743D01*
X179719914Y-136290344D01*
X179301812Y-136707717D01*
X179075258Y-137253319D01*
X179074743Y-137844089D01*
X179300344Y-138390086D01*
X179717717Y-138808188D01*
X180179651Y-139000000D01*
X170619418Y-139000000D01*
X171080086Y-138809656D01*
X171498188Y-138392283D01*
X171724742Y-137846681D01*
X171725257Y-137255911D01*
X171499656Y-136709914D01*
X171082283Y-136291812D01*
X170662616Y-136117551D01*
X170910372Y-136015180D01*
X171244009Y-135682125D01*
X171424794Y-135246745D01*
X171425206Y-134775323D01*
X171245180Y-134339628D01*
X170912125Y-134005991D01*
X170677802Y-133908692D01*
X171024080Y-133765259D01*
X171104353Y-133513958D01*
X170240000Y-132649605D01*
X169375647Y-133513958D01*
X169455920Y-133765259D01*
X169825203Y-133899218D01*
X169569628Y-134004820D01*
X169235991Y-134337875D01*
X169055206Y-134773255D01*
X169054794Y-135244677D01*
X169234820Y-135680372D01*
X169567875Y-136014009D01*
X169817668Y-136117732D01*
X169399914Y-136290344D01*
X168981812Y-136707717D01*
X168755258Y-137253319D01*
X168754743Y-137844089D01*
X168980344Y-138390086D01*
X169397717Y-138808188D01*
X169859651Y-139000000D01*
X165539418Y-139000000D01*
X166000086Y-138809656D01*
X166418188Y-138392283D01*
X166644742Y-137846681D01*
X166645257Y-137255911D01*
X166419656Y-136709914D01*
X166002283Y-136291812D01*
X165456681Y-136065258D01*
X164865911Y-136064743D01*
X164319914Y-136290344D01*
X163901812Y-136707717D01*
X163675258Y-137253319D01*
X163674743Y-137844089D01*
X163900344Y-138390086D01*
X164317717Y-138808188D01*
X164779651Y-139000000D01*
X155219418Y-139000000D01*
X155680086Y-138809656D01*
X156098188Y-138392283D01*
X156324742Y-137846681D01*
X156325257Y-137255911D01*
X156161670Y-136860000D01*
X161500000Y-136860000D01*
X161790839Y-136802148D01*
X162037401Y-136637401D01*
X164762093Y-133912709D01*
X164863319Y-133954742D01*
X165454089Y-133955257D01*
X166000086Y-133729656D01*
X166418188Y-133312283D01*
X166644742Y-132766681D01*
X166645257Y-132175911D01*
X166494066Y-131810000D01*
X168899730Y-131810000D01*
X168743282Y-132241279D01*
X168743282Y-132241279D01*
G37*
X168743282Y-132241279D02*
X168769685Y-132831458D01*
X168944741Y-133254080D01*
X169196042Y-133334353D01*
X170060395Y-132470000D01*
X170046253Y-132455858D01*
X170225858Y-132276253D01*
X170240000Y-132290395D01*
X170254143Y-132276253D01*
X170433748Y-132455858D01*
X170419605Y-132470000D01*
X171283958Y-133334353D01*
X171535259Y-133254080D01*
X171736718Y-132698721D01*
X171710315Y-132108542D01*
X171586655Y-131810000D01*
X174280483Y-131810000D01*
X173485057Y-132138663D01*
X172532010Y-133090048D01*
X172015589Y-134333728D01*
X172014414Y-135680364D01*
X172528663Y-136924943D01*
X173480048Y-137877990D01*
X174723728Y-138394411D01*
X176070364Y-138395586D01*
X177314943Y-137881337D01*
X178267990Y-136929952D01*
X178784411Y-135686272D01*
X178785586Y-134339636D01*
X178444424Y-133513958D01*
X179695647Y-133513958D01*
X179775920Y-133765259D01*
X180331279Y-133966718D01*
X180921458Y-133940315D01*
X181344080Y-133765259D01*
X181424353Y-133513958D01*
X180560000Y-132649605D01*
X179695647Y-133513958D01*
X178444424Y-133513958D01*
X178271337Y-133095057D01*
X177319952Y-132142010D01*
X176520383Y-131810000D01*
X179219730Y-131810000D01*
X179063282Y-132241279D01*
X179089685Y-132831458D01*
X179264741Y-133254080D01*
X179516042Y-133334353D01*
X180380395Y-132470000D01*
X180366253Y-132455858D01*
X180545858Y-132276253D01*
X180560000Y-132290395D01*
X180574143Y-132276253D01*
X180753748Y-132455858D01*
X180739605Y-132470000D01*
X181603958Y-133334353D01*
X181855259Y-133254080D01*
X182056718Y-132698721D01*
X182030315Y-132108542D01*
X181906655Y-131810000D01*
X184306121Y-131810000D01*
X184155258Y-132173319D01*
X184154743Y-132764089D01*
X184380344Y-133310086D01*
X184797717Y-133728188D01*
X185217384Y-133902449D01*
X184969628Y-134004820D01*
X184635991Y-134337875D01*
X184455206Y-134773255D01*
X184454794Y-135244677D01*
X184634820Y-135680372D01*
X184967875Y-136014009D01*
X185217668Y-136117732D01*
X184799914Y-136290344D01*
X184381812Y-136707717D01*
X184155258Y-137253319D01*
X184154743Y-137844089D01*
X184380344Y-138390086D01*
X184797717Y-138808188D01*
X185259651Y-139000000D01*
X180939418Y-139000000D01*
X181400086Y-138809656D01*
X181818188Y-138392283D01*
X182044742Y-137846681D01*
X182045257Y-137255911D01*
X181819656Y-136709914D01*
X181402283Y-136291812D01*
X180856681Y-136065258D01*
X180265911Y-136064743D01*
X179719914Y-136290344D01*
X179301812Y-136707717D01*
X179075258Y-137253319D01*
X179074743Y-137844089D01*
X179300344Y-138390086D01*
X179717717Y-138808188D01*
X180179651Y-139000000D01*
X170619418Y-139000000D01*
X171080086Y-138809656D01*
X171498188Y-138392283D01*
X171724742Y-137846681D01*
X171725257Y-137255911D01*
X171499656Y-136709914D01*
X171082283Y-136291812D01*
X170662616Y-136117551D01*
X170910372Y-136015180D01*
X171244009Y-135682125D01*
X171424794Y-135246745D01*
X171425206Y-134775323D01*
X171245180Y-134339628D01*
X170912125Y-134005991D01*
X170677802Y-133908692D01*
X171024080Y-133765259D01*
X171104353Y-133513958D01*
X170240000Y-132649605D01*
X169375647Y-133513958D01*
X169455920Y-133765259D01*
X169825203Y-133899218D01*
X169569628Y-134004820D01*
X169235991Y-134337875D01*
X169055206Y-134773255D01*
X169054794Y-135244677D01*
X169234820Y-135680372D01*
X169567875Y-136014009D01*
X169817668Y-136117732D01*
X169399914Y-136290344D01*
X168981812Y-136707717D01*
X168755258Y-137253319D01*
X168754743Y-137844089D01*
X168980344Y-138390086D01*
X169397717Y-138808188D01*
X169859651Y-139000000D01*
X165539418Y-139000000D01*
X166000086Y-138809656D01*
X166418188Y-138392283D01*
X166644742Y-137846681D01*
X166645257Y-137255911D01*
X166419656Y-136709914D01*
X166002283Y-136291812D01*
X165456681Y-136065258D01*
X164865911Y-136064743D01*
X164319914Y-136290344D01*
X163901812Y-136707717D01*
X163675258Y-137253319D01*
X163674743Y-137844089D01*
X163900344Y-138390086D01*
X164317717Y-138808188D01*
X164779651Y-139000000D01*
X155219418Y-139000000D01*
X155680086Y-138809656D01*
X156098188Y-138392283D01*
X156324742Y-137846681D01*
X156325257Y-137255911D01*
X156161670Y-136860000D01*
X161500000Y-136860000D01*
X161790839Y-136802148D01*
X162037401Y-136637401D01*
X164762093Y-133912709D01*
X164863319Y-133954742D01*
X165454089Y-133955257D01*
X166000086Y-133729656D01*
X166418188Y-133312283D01*
X166644742Y-132766681D01*
X166645257Y-132175911D01*
X166494066Y-131810000D01*
X168899730Y-131810000D01*
X168743282Y-132241279D01*
G36*
X111122599Y-102802599D02*
X110957852Y-103049161D01*
X110942857Y-103124545D01*
X110819914Y-103175344D01*
X110401812Y-103592717D01*
X110175258Y-104138319D01*
X110174743Y-104729089D01*
X110400344Y-105275086D01*
X110817717Y-105693188D01*
X111363319Y-105919742D01*
X111954089Y-105920257D01*
X112500086Y-105694656D01*
X112918188Y-105277283D01*
X113144742Y-104731681D01*
X113145257Y-104140911D01*
X112919656Y-103594914D01*
X112784977Y-103460000D01*
X115585392Y-103460000D01*
X115696040Y-103570648D01*
X115444741Y-103650920D01*
X115243282Y-104206279D01*
X115269685Y-104796458D01*
X115444741Y-105219080D01*
X115696042Y-105299353D01*
X116560395Y-104435000D01*
X116546253Y-104420858D01*
X116725858Y-104241253D01*
X116740000Y-104255395D01*
X116754143Y-104241253D01*
X116933748Y-104420858D01*
X116919605Y-104435000D01*
X117783958Y-105299353D01*
X118035259Y-105219080D01*
X118236718Y-104663721D01*
X118210315Y-104073542D01*
X118035259Y-103650920D01*
X117783960Y-103570648D01*
X117894608Y-103460000D01*
X120085198Y-103460000D01*
X124565198Y-107940000D01*
X120500000Y-107940000D01*
X120209160Y-107997852D01*
X119962599Y-108162599D01*
X118161703Y-109963495D01*
X118224742Y-109811681D01*
X118225257Y-109220911D01*
X117999656Y-108674914D01*
X117582283Y-108256812D01*
X117162616Y-108082551D01*
X117410372Y-107980180D01*
X117744009Y-107647125D01*
X117924794Y-107211745D01*
X117925206Y-106740323D01*
X117745180Y-106304628D01*
X117412125Y-105970991D01*
X117177802Y-105873692D01*
X117524080Y-105730259D01*
X117604353Y-105478958D01*
X116740000Y-104614605D01*
X115875647Y-105478958D01*
X115955920Y-105730259D01*
X116325203Y-105864218D01*
X116069628Y-105969820D01*
X115735991Y-106302875D01*
X115555206Y-106738255D01*
X115554794Y-107209677D01*
X115734820Y-107645372D01*
X116067875Y-107979009D01*
X116317668Y-108082732D01*
X115899914Y-108255344D01*
X115481812Y-108672717D01*
X115255258Y-109218319D01*
X115254743Y-109809089D01*
X115480344Y-110355086D01*
X115664936Y-110540000D01*
X115100000Y-110540000D01*
X114809161Y-110597852D01*
X114562599Y-110762599D01*
X112612738Y-112712460D01*
X112502283Y-112601812D01*
X111956681Y-112375258D01*
X111365911Y-112374743D01*
X110819914Y-112600344D01*
X110401812Y-113017717D01*
X110175258Y-113563319D01*
X110174743Y-114154089D01*
X110400344Y-114700086D01*
X110817717Y-115118188D01*
X111363319Y-115344742D01*
X111954089Y-115345257D01*
X112500086Y-115119656D01*
X112918188Y-114702283D01*
X113032262Y-114427562D01*
X113077401Y-114397401D01*
X113843523Y-113631279D01*
X115243282Y-113631279D01*
X115269685Y-114221458D01*
X115444741Y-114644080D01*
X115696042Y-114724353D01*
X116560395Y-113860000D01*
X116919605Y-113860000D01*
X117783958Y-114724353D01*
X118035259Y-114644080D01*
X118236718Y-114088721D01*
X118210315Y-113498542D01*
X118035259Y-113075920D01*
X117783958Y-112995647D01*
X116919605Y-113860000D01*
X116560395Y-113860000D01*
X115696042Y-112995647D01*
X115444741Y-113075920D01*
X115243282Y-113631279D01*
X113843523Y-113631279D01*
X114658760Y-112816042D01*
X115875647Y-112816042D01*
X116740000Y-113680395D01*
X117604353Y-112816042D01*
X117524080Y-112564741D01*
X116968721Y-112363282D01*
X116378542Y-112389685D01*
X115955920Y-112564741D01*
X115875647Y-112816042D01*
X114658760Y-112816042D01*
X115414802Y-112060000D01*
X117900000Y-112060000D01*
X118190839Y-112002148D01*
X118437401Y-111837401D01*
X118477465Y-111797337D01*
X118477156Y-112151309D01*
X118702757Y-112697306D01*
X119120130Y-113115408D01*
X119665732Y-113341962D01*
X120256502Y-113342477D01*
X120802499Y-113116876D01*
X121220601Y-112699503D01*
X121447155Y-112153901D01*
X121447670Y-111563131D01*
X121222069Y-111017134D01*
X120804696Y-110599032D01*
X120259094Y-110372478D01*
X119902635Y-110372167D01*
X120814802Y-109460000D01*
X123529417Y-109460000D01*
X123309038Y-109990732D01*
X123308523Y-110581502D01*
X123534124Y-111127499D01*
X123951497Y-111545601D01*
X124201836Y-111649551D01*
X124256379Y-111731181D01*
X126150930Y-113625732D01*
X126118603Y-113624638D01*
X125565468Y-113832124D01*
X125217625Y-114129210D01*
X125218937Y-114393016D01*
X126308086Y-114947965D01*
X126701346Y-114176148D01*
X126890195Y-114364997D01*
X126840780Y-114461979D01*
X126377728Y-114925031D01*
X126557336Y-115104639D01*
X126576994Y-115084981D01*
X127623550Y-115618228D01*
X127837746Y-115464228D01*
X127842712Y-115317514D01*
X127937599Y-115412401D01*
X128184160Y-115577148D01*
X128475000Y-115635000D01*
X131448198Y-115635000D01*
X129256599Y-117826599D01*
X129091852Y-118073161D01*
X129036711Y-118350371D01*
X128119952Y-117432010D01*
X126876272Y-116915589D01*
X125529636Y-116914414D01*
X124285057Y-117428663D01*
X123332010Y-118380048D01*
X122815589Y-119623728D01*
X122814414Y-120970364D01*
X123328663Y-122214943D01*
X124280048Y-123167990D01*
X125523728Y-123684411D01*
X126699761Y-123685437D01*
X126558269Y-123826929D01*
X124580625Y-123826929D01*
X124547534Y-123746843D01*
X124130161Y-123328741D01*
X123584559Y-123102187D01*
X122993789Y-123101672D01*
X122447792Y-123327273D01*
X122029690Y-123744646D01*
X121803136Y-124290248D01*
X121802621Y-124881018D01*
X122028222Y-125427015D01*
X122445595Y-125845117D01*
X122991197Y-126071671D01*
X123581967Y-126072186D01*
X124127964Y-125846585D01*
X124546066Y-125429212D01*
X124580233Y-125346929D01*
X126054269Y-125346929D01*
X123061198Y-128340000D01*
X120463370Y-128340000D01*
X120573739Y-128159894D01*
X120490971Y-127909404D01*
X119544261Y-127759460D01*
X119371820Y-127587019D01*
X119192212Y-127766627D01*
X119264515Y-127838930D01*
X119185154Y-128340000D01*
X118927988Y-128340000D01*
X118991489Y-127939068D01*
X119163930Y-127766627D01*
X118984322Y-127587019D01*
X118912019Y-127659322D01*
X117825437Y-127487225D01*
X117671586Y-127696784D01*
X117010279Y-127035477D01*
X116763717Y-126870730D01*
X116472878Y-126812878D01*
X110514676Y-126812878D01*
X110481585Y-126732792D01*
X110064212Y-126314690D01*
X109518610Y-126088136D01*
X108927840Y-126087621D01*
X108381843Y-126313222D01*
X107963741Y-126730595D01*
X107737187Y-127276197D01*
X107736672Y-127866967D01*
X107962273Y-128412964D01*
X108379646Y-128831066D01*
X108882814Y-129040000D01*
X107800000Y-129040000D01*
X107509160Y-129097852D01*
X107262599Y-129262599D01*
X104841768Y-131683430D01*
X104819656Y-131629914D01*
X104402283Y-131211812D01*
X103856681Y-130985258D01*
X103265911Y-130984743D01*
X102719914Y-131210344D01*
X102301812Y-131627717D01*
X102075258Y-132173319D01*
X102074743Y-132764089D01*
X102300344Y-133310086D01*
X102717717Y-133728188D01*
X103263319Y-133954742D01*
X103854089Y-133955257D01*
X104400086Y-133729656D01*
X104818188Y-133312283D01*
X104852355Y-133230000D01*
X105130000Y-133230000D01*
X105420839Y-133172148D01*
X105667401Y-133007401D01*
X106433523Y-132241279D01*
X107143282Y-132241279D01*
X107169685Y-132831458D01*
X107344741Y-133254080D01*
X107596042Y-133334353D01*
X108460395Y-132470000D01*
X108819605Y-132470000D01*
X109683958Y-133334353D01*
X109935259Y-133254080D01*
X110136718Y-132698721D01*
X110110315Y-132108542D01*
X109935259Y-131685920D01*
X109683958Y-131605647D01*
X108819605Y-132470000D01*
X108460395Y-132470000D01*
X107596042Y-131605647D01*
X107344741Y-131685920D01*
X107143282Y-132241279D01*
X106433523Y-132241279D01*
X107248760Y-131426042D01*
X107775647Y-131426042D01*
X108640000Y-132290395D01*
X109504353Y-131426042D01*
X109424080Y-131174741D01*
X108868721Y-130973282D01*
X108278542Y-130999685D01*
X107855920Y-131174741D01*
X107775647Y-131426042D01*
X107248760Y-131426042D01*
X108114802Y-130560000D01*
X120265198Y-130560000D01*
X119668809Y-131156389D01*
X119256681Y-130985258D01*
X118665911Y-130984743D01*
X118119914Y-131210344D01*
X117701812Y-131627717D01*
X117475258Y-132173319D01*
X117474743Y-132764089D01*
X117700344Y-133310086D01*
X118117717Y-133728188D01*
X118663319Y-133954742D01*
X119254089Y-133955257D01*
X119800086Y-133729656D01*
X120218188Y-133312283D01*
X120444742Y-132766681D01*
X120444948Y-132529854D01*
X121531802Y-131443000D01*
X122929268Y-131443000D01*
X122881330Y-131490938D01*
X122996040Y-131605648D01*
X122744741Y-131685920D01*
X122543282Y-132241279D01*
X122569685Y-132831458D01*
X122744741Y-133254080D01*
X122996042Y-133334353D01*
X123860395Y-132470000D01*
X124219605Y-132470000D01*
X125083958Y-133334353D01*
X125335259Y-133254080D01*
X125536718Y-132698721D01*
X125510315Y-132108542D01*
X125335259Y-131685920D01*
X125083958Y-131605647D01*
X124219605Y-132470000D01*
X123860395Y-132470000D01*
X123846253Y-132455858D01*
X124025858Y-132276253D01*
X124040000Y-132290395D01*
X124904353Y-131426042D01*
X124824080Y-131174741D01*
X124518802Y-131064000D01*
X129040000Y-126542802D01*
X129040000Y-131800000D01*
X129097852Y-132090839D01*
X129262599Y-132337401D01*
X133367595Y-136442397D01*
X133101812Y-136707717D01*
X132875258Y-137253319D01*
X132874743Y-137844089D01*
X133100344Y-138390086D01*
X133517717Y-138808188D01*
X133979651Y-139000000D01*
X124419418Y-139000000D01*
X124880086Y-138809656D01*
X125298188Y-138392283D01*
X125524742Y-137846681D01*
X125525257Y-137255911D01*
X125299656Y-136709914D01*
X124882283Y-136291812D01*
X124462616Y-136117551D01*
X124710372Y-136015180D01*
X125044009Y-135682125D01*
X125224794Y-135246745D01*
X125225206Y-134775323D01*
X125045180Y-134339628D01*
X124712125Y-134005991D01*
X124477802Y-133908692D01*
X124824080Y-133765259D01*
X124904353Y-133513958D01*
X124040000Y-132649605D01*
X123175647Y-133513958D01*
X123255920Y-133765259D01*
X123625203Y-133899218D01*
X123369628Y-134004820D01*
X123035991Y-134337875D01*
X122855206Y-134773255D01*
X122854794Y-135244677D01*
X123034820Y-135680372D01*
X123367875Y-136014009D01*
X123617668Y-136117732D01*
X123199914Y-136290344D01*
X122781812Y-136707717D01*
X122555258Y-137253319D01*
X122554743Y-137844089D01*
X122780344Y-138390086D01*
X123197717Y-138808188D01*
X123659651Y-139000000D01*
X119339418Y-139000000D01*
X119800086Y-138809656D01*
X120218188Y-138392283D01*
X120444742Y-137846681D01*
X120445257Y-137255911D01*
X120219656Y-136709914D01*
X119802283Y-136291812D01*
X119256681Y-136065258D01*
X118665911Y-136064743D01*
X118119914Y-136290344D01*
X117701812Y-136707717D01*
X117475258Y-137253319D01*
X117474743Y-137844089D01*
X117700344Y-138390086D01*
X118117717Y-138808188D01*
X118579651Y-139000000D01*
X109019418Y-139000000D01*
X109480086Y-138809656D01*
X109898188Y-138392283D01*
X110124742Y-137846681D01*
X110125257Y-137255911D01*
X109899656Y-136709914D01*
X109482283Y-136291812D01*
X109062616Y-136117551D01*
X109310372Y-136015180D01*
X109644009Y-135682125D01*
X109644740Y-135680364D01*
X110414414Y-135680364D01*
X110928663Y-136924943D01*
X111880048Y-137877990D01*
X113123728Y-138394411D01*
X114470364Y-138395586D01*
X115714943Y-137881337D01*
X116667990Y-136929952D01*
X117184411Y-135686272D01*
X117185586Y-134339636D01*
X116671337Y-133095057D01*
X115719952Y-132142010D01*
X114476272Y-131625589D01*
X113129636Y-131624414D01*
X111885057Y-132138663D01*
X110932010Y-133090048D01*
X110415589Y-134333728D01*
X110414414Y-135680364D01*
X109644740Y-135680364D01*
X109824794Y-135246745D01*
X109825206Y-134775323D01*
X109645180Y-134339628D01*
X109312125Y-134005991D01*
X109077802Y-133908692D01*
X109424080Y-133765259D01*
X109504353Y-133513958D01*
X108640000Y-132649605D01*
X107775647Y-133513958D01*
X107855920Y-133765259D01*
X108225203Y-133899218D01*
X107969628Y-134004820D01*
X107635991Y-134337875D01*
X107455206Y-134773255D01*
X107454794Y-135244677D01*
X107634820Y-135680372D01*
X107967875Y-136014009D01*
X108217668Y-136117732D01*
X107799914Y-136290344D01*
X107381812Y-136707717D01*
X107155258Y-137253319D01*
X107154743Y-137844089D01*
X107380344Y-138390086D01*
X107797717Y-138808188D01*
X108259651Y-139000000D01*
X103939418Y-139000000D01*
X104400086Y-138809656D01*
X104818188Y-138392283D01*
X105044742Y-137846681D01*
X105045257Y-137255911D01*
X104819656Y-136709914D01*
X104402283Y-136291812D01*
X103856681Y-136065258D01*
X103265911Y-136064743D01*
X102719914Y-136290344D01*
X102301812Y-136707717D01*
X102075258Y-137253319D01*
X102074743Y-137844089D01*
X102300344Y-138390086D01*
X102717717Y-138808188D01*
X103179651Y-139000000D01*
X100710000Y-139000000D01*
X100710000Y-125173945D01*
X103716454Y-125173945D01*
X103970190Y-125549253D01*
X103953452Y-125565991D01*
X104040056Y-125652595D01*
X104047334Y-125663360D01*
X104057600Y-125670139D01*
X104133060Y-125745599D01*
X104148497Y-125730162D01*
X104540318Y-125988898D01*
X104985122Y-126095686D01*
X105197775Y-125939563D01*
X105025678Y-124852981D01*
X105097981Y-124780678D01*
X105126263Y-124780678D01*
X105298704Y-124953119D01*
X105448648Y-125899829D01*
X105699138Y-125982597D01*
X106074446Y-125728861D01*
X106091184Y-125745599D01*
X106177788Y-125658995D01*
X106188553Y-125651717D01*
X106195332Y-125641451D01*
X106270792Y-125565991D01*
X106255355Y-125550554D01*
X106514091Y-125158733D01*
X106620879Y-124713929D01*
X106464756Y-124501276D01*
X105378174Y-124673373D01*
X105305871Y-124601070D01*
X105126263Y-124780678D01*
X105097981Y-124780678D01*
X104918373Y-124601070D01*
X104745932Y-124773511D01*
X103799222Y-124923455D01*
X103716454Y-125173945D01*
X100710000Y-125173945D01*
X100710000Y-124459929D01*
X103603365Y-124459929D01*
X103759488Y-124672582D01*
X104846070Y-124500485D01*
X104918373Y-124572788D01*
X105097981Y-124393180D01*
X104925540Y-124220739D01*
X104775596Y-123274029D01*
X104655345Y-123234295D01*
X105026469Y-123234295D01*
X105198566Y-124320877D01*
X105126263Y-124393180D01*
X105305871Y-124572788D01*
X105478312Y-124400347D01*
X106425022Y-124250403D01*
X106507790Y-123999913D01*
X106343671Y-123757160D01*
X110722621Y-123757160D01*
X110948222Y-124303157D01*
X111365595Y-124721259D01*
X111911197Y-124947813D01*
X112501967Y-124948328D01*
X113047964Y-124722727D01*
X113466066Y-124305354D01*
X113692620Y-123759752D01*
X113692622Y-123757160D01*
X114706865Y-123757160D01*
X114932466Y-124303157D01*
X115349839Y-124721259D01*
X115895441Y-124947813D01*
X116486211Y-124948328D01*
X116670083Y-124872354D01*
X116500303Y-125281230D01*
X116499891Y-125752652D01*
X116679917Y-126188347D01*
X117012972Y-126521984D01*
X117448352Y-126702769D01*
X117919774Y-126703181D01*
X117967787Y-126683342D01*
X117782403Y-126985862D01*
X117865171Y-127236352D01*
X118811881Y-127386296D01*
X118984322Y-127558737D01*
X119075750Y-127467309D01*
X119323375Y-127467309D01*
X120530705Y-127658531D01*
X120686828Y-127445878D01*
X120523380Y-126878169D01*
X120155121Y-126416223D01*
X119765087Y-126177210D01*
X119514597Y-126259978D01*
X119323375Y-127467309D01*
X119075750Y-127467309D01*
X119163930Y-127379129D01*
X119091627Y-127306826D01*
X119263724Y-126220244D01*
X119051071Y-126064121D01*
X118699371Y-126165378D01*
X118869891Y-125754720D01*
X118870303Y-125283298D01*
X118690277Y-124847603D01*
X118357222Y-124513966D01*
X117921842Y-124333181D01*
X117450420Y-124332769D01*
X117403374Y-124352208D01*
X117450310Y-124305354D01*
X117676864Y-123759752D01*
X117677379Y-123168982D01*
X117451778Y-122622985D01*
X117034405Y-122204883D01*
X116488803Y-121978329D01*
X115898033Y-121977814D01*
X115352036Y-122203415D01*
X114933934Y-122620788D01*
X114707380Y-123166390D01*
X114706865Y-123757160D01*
X113692622Y-123757160D01*
X113693135Y-123168982D01*
X113467534Y-122622985D01*
X113050161Y-122204883D01*
X112504559Y-121978329D01*
X111913789Y-121977814D01*
X111367792Y-122203415D01*
X110949690Y-122620788D01*
X110723136Y-123166390D01*
X110722621Y-123757160D01*
X106343671Y-123757160D01*
X106296120Y-123686826D01*
X106368352Y-123716819D01*
X106839774Y-123717231D01*
X107275469Y-123537205D01*
X107609106Y-123204150D01*
X107789891Y-122768770D01*
X107790303Y-122297348D01*
X107620678Y-121886826D01*
X107801390Y-121961864D01*
X108392160Y-121962379D01*
X108938157Y-121736778D01*
X109356259Y-121319405D01*
X109582813Y-120773803D01*
X109582815Y-120771211D01*
X118816672Y-120771211D01*
X119042273Y-121317208D01*
X119459646Y-121735310D01*
X120005248Y-121961864D01*
X120596018Y-121962379D01*
X121142015Y-121736778D01*
X121560117Y-121319405D01*
X121786671Y-120773803D01*
X121787186Y-120183033D01*
X121561585Y-119637036D01*
X121144212Y-119218934D01*
X120598610Y-118992380D01*
X120007840Y-118991865D01*
X119461843Y-119217466D01*
X119043741Y-119634839D01*
X118817187Y-120180441D01*
X118816672Y-120771211D01*
X109582815Y-120771211D01*
X109583328Y-120183033D01*
X109357727Y-119637036D01*
X108955483Y-119234089D01*
X110174743Y-119234089D01*
X110400344Y-119780086D01*
X110817717Y-120198188D01*
X111363319Y-120424742D01*
X111954089Y-120425257D01*
X112500086Y-120199656D01*
X112918188Y-119782283D01*
X113144742Y-119236681D01*
X113144744Y-119234089D01*
X115254743Y-119234089D01*
X115480344Y-119780086D01*
X115897717Y-120198188D01*
X116443319Y-120424742D01*
X117034089Y-120425257D01*
X117580086Y-120199656D01*
X117998188Y-119782283D01*
X118224742Y-119236681D01*
X118225257Y-118645911D01*
X117999656Y-118099914D01*
X117582283Y-117681812D01*
X117162616Y-117507551D01*
X117410372Y-117405180D01*
X117744009Y-117072125D01*
X117781151Y-116982676D01*
X120046963Y-116982676D01*
X120272564Y-117528673D01*
X120689937Y-117946775D01*
X121235539Y-118173329D01*
X121826309Y-118173844D01*
X122372306Y-117948243D01*
X122790408Y-117530870D01*
X123016962Y-116985268D01*
X123017255Y-116648719D01*
X123275778Y-116907693D01*
X123711158Y-117088478D01*
X124182580Y-117088890D01*
X124618275Y-116908864D01*
X124951912Y-116575809D01*
X125033740Y-116378743D01*
X125864139Y-116378743D01*
X126018139Y-116592939D01*
X126608571Y-116612922D01*
X127161706Y-116405436D01*
X127509549Y-116108350D01*
X127508237Y-115844544D01*
X126419088Y-115289595D01*
X125864139Y-116378743D01*
X125033740Y-116378743D01*
X125132697Y-116140429D01*
X125132835Y-115982354D01*
X125374017Y-116264742D01*
X125637823Y-116263430D01*
X126192772Y-115174281D01*
X125103624Y-114619332D01*
X124889428Y-114773332D01*
X124876458Y-115156553D01*
X124620028Y-114899675D01*
X124184648Y-114718890D01*
X123713226Y-114718478D01*
X123277531Y-114898504D01*
X122943894Y-115231559D01*
X122763109Y-115666939D01*
X122762976Y-115819550D01*
X122374503Y-115430399D01*
X121828901Y-115203845D01*
X121238131Y-115203330D01*
X120692134Y-115428931D01*
X120274032Y-115846304D01*
X120047478Y-116391906D01*
X120046963Y-116982676D01*
X117781151Y-116982676D01*
X117924794Y-116636745D01*
X117925206Y-116165323D01*
X117745180Y-115729628D01*
X117412125Y-115395991D01*
X117177802Y-115298692D01*
X117524080Y-115155259D01*
X117604353Y-114903958D01*
X116740000Y-114039605D01*
X115875647Y-114903958D01*
X115955920Y-115155259D01*
X116325203Y-115289218D01*
X116069628Y-115394820D01*
X115735991Y-115727875D01*
X115555206Y-116163255D01*
X115554794Y-116634677D01*
X115734820Y-117070372D01*
X116067875Y-117404009D01*
X116317668Y-117507732D01*
X115899914Y-117680344D01*
X115481812Y-118097717D01*
X115255258Y-118643319D01*
X115254743Y-119234089D01*
X113144744Y-119234089D01*
X113145257Y-118645911D01*
X112919656Y-118099914D01*
X112502283Y-117681812D01*
X111956681Y-117455258D01*
X111365911Y-117454743D01*
X110819914Y-117680344D01*
X110401812Y-118097717D01*
X110175258Y-118643319D01*
X110174743Y-119234089D01*
X108955483Y-119234089D01*
X108940354Y-119218934D01*
X108394752Y-118992380D01*
X107803982Y-118991865D01*
X107257985Y-119217466D01*
X106839883Y-119634839D01*
X106613329Y-120180441D01*
X106612814Y-120771211D01*
X106838415Y-121317208D01*
X106887178Y-121366056D01*
X106841842Y-121347231D01*
X106370420Y-121346819D01*
X105934725Y-121526845D01*
X105601088Y-121859900D01*
X105420303Y-122295280D01*
X105419891Y-122766702D01*
X105582667Y-123160650D01*
X105239122Y-123078172D01*
X105026469Y-123234295D01*
X104655345Y-123234295D01*
X104525106Y-123191261D01*
X104149798Y-123444997D01*
X104133060Y-123428259D01*
X104046456Y-123514863D01*
X104035691Y-123522141D01*
X104028912Y-123532407D01*
X103953452Y-123607867D01*
X103968889Y-123623304D01*
X103710153Y-124015125D01*
X103603365Y-124459929D01*
X100710000Y-124459929D01*
X100710000Y-116982676D01*
X105382523Y-116982676D01*
X105608124Y-117528673D01*
X106025497Y-117946775D01*
X106571099Y-118173329D01*
X107161869Y-118173844D01*
X107707866Y-117948243D01*
X108125968Y-117530870D01*
X108352522Y-116985268D01*
X108353037Y-116394498D01*
X108127436Y-115848501D01*
X107710063Y-115430399D01*
X107164461Y-115203845D01*
X106573691Y-115203330D01*
X106027694Y-115428931D01*
X105609592Y-115846304D01*
X105383038Y-116391906D01*
X105382523Y-116982676D01*
X100710000Y-116982676D01*
X100710000Y-115797301D01*
X100776757Y-115958866D01*
X101194130Y-116376968D01*
X101739732Y-116603522D01*
X102330502Y-116604037D01*
X102876499Y-116378436D01*
X103294601Y-115961063D01*
X103521155Y-115415461D01*
X103521670Y-114824691D01*
X103296069Y-114278694D01*
X102878696Y-113860592D01*
X102796413Y-113826425D01*
X102796413Y-111539035D01*
X102926182Y-111640198D01*
X103495635Y-111797462D01*
X103951668Y-111761572D01*
X104105668Y-111547376D01*
X103572421Y-110500820D01*
X103592079Y-110481162D01*
X103453831Y-110342914D01*
X103777035Y-110342914D01*
X104331984Y-111432063D01*
X104595790Y-111433375D01*
X104836857Y-111124140D01*
X104836697Y-111306993D01*
X105016723Y-111742688D01*
X105349778Y-112076325D01*
X105785158Y-112257110D01*
X106256580Y-112257522D01*
X106692275Y-112077496D01*
X106952621Y-111817604D01*
X106952330Y-112151309D01*
X107177931Y-112697306D01*
X107595304Y-113115408D01*
X108140906Y-113341962D01*
X108731676Y-113342477D01*
X109277673Y-113116876D01*
X109695775Y-112699503D01*
X109922329Y-112153901D01*
X109922844Y-111563131D01*
X109697243Y-111017134D01*
X109279870Y-110599032D01*
X108734268Y-110372478D01*
X108143498Y-110371963D01*
X107597501Y-110597564D01*
X107206978Y-110987406D01*
X107207109Y-110837639D01*
X107027083Y-110401944D01*
X106694028Y-110068307D01*
X106258648Y-109887522D01*
X105787226Y-109887110D01*
X105351531Y-110067136D01*
X105109263Y-110308981D01*
X105080379Y-109941965D01*
X104895565Y-109809089D01*
X110174743Y-109809089D01*
X110400344Y-110355086D01*
X110817717Y-110773188D01*
X111363319Y-110999742D01*
X111954089Y-111000257D01*
X112500086Y-110774656D01*
X112918188Y-110357283D01*
X113144742Y-109811681D01*
X113145257Y-109220911D01*
X112919656Y-108674914D01*
X112502283Y-108256812D01*
X111956681Y-108030258D01*
X111365911Y-108029743D01*
X110819914Y-108255344D01*
X110401812Y-108672717D01*
X110175258Y-109218319D01*
X110174743Y-109809089D01*
X104895565Y-109809089D01*
X104866183Y-109787965D01*
X103777035Y-110342914D01*
X103453831Y-110342914D01*
X103412471Y-110301554D01*
X102949420Y-110764605D01*
X102796413Y-110842566D01*
X102796413Y-110557495D01*
X103392813Y-110253614D01*
X103412471Y-110273272D01*
X103592079Y-110093664D01*
X103129028Y-109630613D01*
X102880456Y-109142763D01*
X102796413Y-109142345D01*
X102796413Y-109027450D01*
X103106772Y-109027450D01*
X103661721Y-110116598D01*
X104750870Y-109561649D01*
X104752182Y-109297843D01*
X104286258Y-108934628D01*
X103716805Y-108777364D01*
X103260772Y-108813254D01*
X103106772Y-109027450D01*
X102796413Y-109027450D01*
X102796413Y-106870364D01*
X103414414Y-106870364D01*
X103928663Y-108114943D01*
X104880048Y-109067990D01*
X106123728Y-109584411D01*
X107470364Y-109585586D01*
X108714943Y-109071337D01*
X109667990Y-108119952D01*
X110184411Y-106876272D01*
X110185586Y-105529636D01*
X109671337Y-104285057D01*
X108719952Y-103332010D01*
X107476272Y-102815589D01*
X106129636Y-102814414D01*
X104885057Y-103328663D01*
X103932010Y-104280048D01*
X103415589Y-105523728D01*
X103414414Y-106870364D01*
X102796413Y-106870364D01*
X102796413Y-105278389D01*
X105314802Y-102760000D01*
X111165198Y-102760000D01*
X111122599Y-102802599D01*
X111122599Y-102802599D01*
G37*
X111122599Y-102802599D02*
X110957852Y-103049161D01*
X110942857Y-103124545D01*
X110819914Y-103175344D01*
X110401812Y-103592717D01*
X110175258Y-104138319D01*
X110174743Y-104729089D01*
X110400344Y-105275086D01*
X110817717Y-105693188D01*
X111363319Y-105919742D01*
X111954089Y-105920257D01*
X112500086Y-105694656D01*
X112918188Y-105277283D01*
X113144742Y-104731681D01*
X113145257Y-104140911D01*
X112919656Y-103594914D01*
X112784977Y-103460000D01*
X115585392Y-103460000D01*
X115696040Y-103570648D01*
X115444741Y-103650920D01*
X115243282Y-104206279D01*
X115269685Y-104796458D01*
X115444741Y-105219080D01*
X115696042Y-105299353D01*
X116560395Y-104435000D01*
X116546253Y-104420858D01*
X116725858Y-104241253D01*
X116740000Y-104255395D01*
X116754143Y-104241253D01*
X116933748Y-104420858D01*
X116919605Y-104435000D01*
X117783958Y-105299353D01*
X118035259Y-105219080D01*
X118236718Y-104663721D01*
X118210315Y-104073542D01*
X118035259Y-103650920D01*
X117783960Y-103570648D01*
X117894608Y-103460000D01*
X120085198Y-103460000D01*
X124565198Y-107940000D01*
X120500000Y-107940000D01*
X120209160Y-107997852D01*
X119962599Y-108162599D01*
X118161703Y-109963495D01*
X118224742Y-109811681D01*
X118225257Y-109220911D01*
X117999656Y-108674914D01*
X117582283Y-108256812D01*
X117162616Y-108082551D01*
X117410372Y-107980180D01*
X117744009Y-107647125D01*
X117924794Y-107211745D01*
X117925206Y-106740323D01*
X117745180Y-106304628D01*
X117412125Y-105970991D01*
X117177802Y-105873692D01*
X117524080Y-105730259D01*
X117604353Y-105478958D01*
X116740000Y-104614605D01*
X115875647Y-105478958D01*
X115955920Y-105730259D01*
X116325203Y-105864218D01*
X116069628Y-105969820D01*
X115735991Y-106302875D01*
X115555206Y-106738255D01*
X115554794Y-107209677D01*
X115734820Y-107645372D01*
X116067875Y-107979009D01*
X116317668Y-108082732D01*
X115899914Y-108255344D01*
X115481812Y-108672717D01*
X115255258Y-109218319D01*
X115254743Y-109809089D01*
X115480344Y-110355086D01*
X115664936Y-110540000D01*
X115100000Y-110540000D01*
X114809161Y-110597852D01*
X114562599Y-110762599D01*
X112612738Y-112712460D01*
X112502283Y-112601812D01*
X111956681Y-112375258D01*
X111365911Y-112374743D01*
X110819914Y-112600344D01*
X110401812Y-113017717D01*
X110175258Y-113563319D01*
X110174743Y-114154089D01*
X110400344Y-114700086D01*
X110817717Y-115118188D01*
X111363319Y-115344742D01*
X111954089Y-115345257D01*
X112500086Y-115119656D01*
X112918188Y-114702283D01*
X113032262Y-114427562D01*
X113077401Y-114397401D01*
X113843523Y-113631279D01*
X115243282Y-113631279D01*
X115269685Y-114221458D01*
X115444741Y-114644080D01*
X115696042Y-114724353D01*
X116560395Y-113860000D01*
X116919605Y-113860000D01*
X117783958Y-114724353D01*
X118035259Y-114644080D01*
X118236718Y-114088721D01*
X118210315Y-113498542D01*
X118035259Y-113075920D01*
X117783958Y-112995647D01*
X116919605Y-113860000D01*
X116560395Y-113860000D01*
X115696042Y-112995647D01*
X115444741Y-113075920D01*
X115243282Y-113631279D01*
X113843523Y-113631279D01*
X114658760Y-112816042D01*
X115875647Y-112816042D01*
X116740000Y-113680395D01*
X117604353Y-112816042D01*
X117524080Y-112564741D01*
X116968721Y-112363282D01*
X116378542Y-112389685D01*
X115955920Y-112564741D01*
X115875647Y-112816042D01*
X114658760Y-112816042D01*
X115414802Y-112060000D01*
X117900000Y-112060000D01*
X118190839Y-112002148D01*
X118437401Y-111837401D01*
X118477465Y-111797337D01*
X118477156Y-112151309D01*
X118702757Y-112697306D01*
X119120130Y-113115408D01*
X119665732Y-113341962D01*
X120256502Y-113342477D01*
X120802499Y-113116876D01*
X121220601Y-112699503D01*
X121447155Y-112153901D01*
X121447670Y-111563131D01*
X121222069Y-111017134D01*
X120804696Y-110599032D01*
X120259094Y-110372478D01*
X119902635Y-110372167D01*
X120814802Y-109460000D01*
X123529417Y-109460000D01*
X123309038Y-109990732D01*
X123308523Y-110581502D01*
X123534124Y-111127499D01*
X123951497Y-111545601D01*
X124201836Y-111649551D01*
X124256379Y-111731181D01*
X126150930Y-113625732D01*
X126118603Y-113624638D01*
X125565468Y-113832124D01*
X125217625Y-114129210D01*
X125218937Y-114393016D01*
X126308086Y-114947965D01*
X126701346Y-114176148D01*
X126890195Y-114364997D01*
X126840780Y-114461979D01*
X126377728Y-114925031D01*
X126557336Y-115104639D01*
X126576994Y-115084981D01*
X127623550Y-115618228D01*
X127837746Y-115464228D01*
X127842712Y-115317514D01*
X127937599Y-115412401D01*
X128184160Y-115577148D01*
X128475000Y-115635000D01*
X131448198Y-115635000D01*
X129256599Y-117826599D01*
X129091852Y-118073161D01*
X129036711Y-118350371D01*
X128119952Y-117432010D01*
X126876272Y-116915589D01*
X125529636Y-116914414D01*
X124285057Y-117428663D01*
X123332010Y-118380048D01*
X122815589Y-119623728D01*
X122814414Y-120970364D01*
X123328663Y-122214943D01*
X124280048Y-123167990D01*
X125523728Y-123684411D01*
X126699761Y-123685437D01*
X126558269Y-123826929D01*
X124580625Y-123826929D01*
X124547534Y-123746843D01*
X124130161Y-123328741D01*
X123584559Y-123102187D01*
X122993789Y-123101672D01*
X122447792Y-123327273D01*
X122029690Y-123744646D01*
X121803136Y-124290248D01*
X121802621Y-124881018D01*
X122028222Y-125427015D01*
X122445595Y-125845117D01*
X122991197Y-126071671D01*
X123581967Y-126072186D01*
X124127964Y-125846585D01*
X124546066Y-125429212D01*
X124580233Y-125346929D01*
X126054269Y-125346929D01*
X123061198Y-128340000D01*
X120463370Y-128340000D01*
X120573739Y-128159894D01*
X120490971Y-127909404D01*
X119544261Y-127759460D01*
X119371820Y-127587019D01*
X119192212Y-127766627D01*
X119264515Y-127838930D01*
X119185154Y-128340000D01*
X118927988Y-128340000D01*
X118991489Y-127939068D01*
X119163930Y-127766627D01*
X118984322Y-127587019D01*
X118912019Y-127659322D01*
X117825437Y-127487225D01*
X117671586Y-127696784D01*
X117010279Y-127035477D01*
X116763717Y-126870730D01*
X116472878Y-126812878D01*
X110514676Y-126812878D01*
X110481585Y-126732792D01*
X110064212Y-126314690D01*
X109518610Y-126088136D01*
X108927840Y-126087621D01*
X108381843Y-126313222D01*
X107963741Y-126730595D01*
X107737187Y-127276197D01*
X107736672Y-127866967D01*
X107962273Y-128412964D01*
X108379646Y-128831066D01*
X108882814Y-129040000D01*
X107800000Y-129040000D01*
X107509160Y-129097852D01*
X107262599Y-129262599D01*
X104841768Y-131683430D01*
X104819656Y-131629914D01*
X104402283Y-131211812D01*
X103856681Y-130985258D01*
X103265911Y-130984743D01*
X102719914Y-131210344D01*
X102301812Y-131627717D01*
X102075258Y-132173319D01*
X102074743Y-132764089D01*
X102300344Y-133310086D01*
X102717717Y-133728188D01*
X103263319Y-133954742D01*
X103854089Y-133955257D01*
X104400086Y-133729656D01*
X104818188Y-133312283D01*
X104852355Y-133230000D01*
X105130000Y-133230000D01*
X105420839Y-133172148D01*
X105667401Y-133007401D01*
X106433523Y-132241279D01*
X107143282Y-132241279D01*
X107169685Y-132831458D01*
X107344741Y-133254080D01*
X107596042Y-133334353D01*
X108460395Y-132470000D01*
X108819605Y-132470000D01*
X109683958Y-133334353D01*
X109935259Y-133254080D01*
X110136718Y-132698721D01*
X110110315Y-132108542D01*
X109935259Y-131685920D01*
X109683958Y-131605647D01*
X108819605Y-132470000D01*
X108460395Y-132470000D01*
X107596042Y-131605647D01*
X107344741Y-131685920D01*
X107143282Y-132241279D01*
X106433523Y-132241279D01*
X107248760Y-131426042D01*
X107775647Y-131426042D01*
X108640000Y-132290395D01*
X109504353Y-131426042D01*
X109424080Y-131174741D01*
X108868721Y-130973282D01*
X108278542Y-130999685D01*
X107855920Y-131174741D01*
X107775647Y-131426042D01*
X107248760Y-131426042D01*
X108114802Y-130560000D01*
X120265198Y-130560000D01*
X119668809Y-131156389D01*
X119256681Y-130985258D01*
X118665911Y-130984743D01*
X118119914Y-131210344D01*
X117701812Y-131627717D01*
X117475258Y-132173319D01*
X117474743Y-132764089D01*
X117700344Y-133310086D01*
X118117717Y-133728188D01*
X118663319Y-133954742D01*
X119254089Y-133955257D01*
X119800086Y-133729656D01*
X120218188Y-133312283D01*
X120444742Y-132766681D01*
X120444948Y-132529854D01*
X121531802Y-131443000D01*
X122929268Y-131443000D01*
X122881330Y-131490938D01*
X122996040Y-131605648D01*
X122744741Y-131685920D01*
X122543282Y-132241279D01*
X122569685Y-132831458D01*
X122744741Y-133254080D01*
X122996042Y-133334353D01*
X123860395Y-132470000D01*
X124219605Y-132470000D01*
X125083958Y-133334353D01*
X125335259Y-133254080D01*
X125536718Y-132698721D01*
X125510315Y-132108542D01*
X125335259Y-131685920D01*
X125083958Y-131605647D01*
X124219605Y-132470000D01*
X123860395Y-132470000D01*
X123846253Y-132455858D01*
X124025858Y-132276253D01*
X124040000Y-132290395D01*
X124904353Y-131426042D01*
X124824080Y-131174741D01*
X124518802Y-131064000D01*
X129040000Y-126542802D01*
X129040000Y-131800000D01*
X129097852Y-132090839D01*
X129262599Y-132337401D01*
X133367595Y-136442397D01*
X133101812Y-136707717D01*
X132875258Y-137253319D01*
X132874743Y-137844089D01*
X133100344Y-138390086D01*
X133517717Y-138808188D01*
X133979651Y-139000000D01*
X124419418Y-139000000D01*
X124880086Y-138809656D01*
X125298188Y-138392283D01*
X125524742Y-137846681D01*
X125525257Y-137255911D01*
X125299656Y-136709914D01*
X124882283Y-136291812D01*
X124462616Y-136117551D01*
X124710372Y-136015180D01*
X125044009Y-135682125D01*
X125224794Y-135246745D01*
X125225206Y-134775323D01*
X125045180Y-134339628D01*
X124712125Y-134005991D01*
X124477802Y-133908692D01*
X124824080Y-133765259D01*
X124904353Y-133513958D01*
X124040000Y-132649605D01*
X123175647Y-133513958D01*
X123255920Y-133765259D01*
X123625203Y-133899218D01*
X123369628Y-134004820D01*
X123035991Y-134337875D01*
X122855206Y-134773255D01*
X122854794Y-135244677D01*
X123034820Y-135680372D01*
X123367875Y-136014009D01*
X123617668Y-136117732D01*
X123199914Y-136290344D01*
X122781812Y-136707717D01*
X122555258Y-137253319D01*
X122554743Y-137844089D01*
X122780344Y-138390086D01*
X123197717Y-138808188D01*
X123659651Y-139000000D01*
X119339418Y-139000000D01*
X119800086Y-138809656D01*
X120218188Y-138392283D01*
X120444742Y-137846681D01*
X120445257Y-137255911D01*
X120219656Y-136709914D01*
X119802283Y-136291812D01*
X119256681Y-136065258D01*
X118665911Y-136064743D01*
X118119914Y-136290344D01*
X117701812Y-136707717D01*
X117475258Y-137253319D01*
X117474743Y-137844089D01*
X117700344Y-138390086D01*
X118117717Y-138808188D01*
X118579651Y-139000000D01*
X109019418Y-139000000D01*
X109480086Y-138809656D01*
X109898188Y-138392283D01*
X110124742Y-137846681D01*
X110125257Y-137255911D01*
X109899656Y-136709914D01*
X109482283Y-136291812D01*
X109062616Y-136117551D01*
X109310372Y-136015180D01*
X109644009Y-135682125D01*
X109644740Y-135680364D01*
X110414414Y-135680364D01*
X110928663Y-136924943D01*
X111880048Y-137877990D01*
X113123728Y-138394411D01*
X114470364Y-138395586D01*
X115714943Y-137881337D01*
X116667990Y-136929952D01*
X117184411Y-135686272D01*
X117185586Y-134339636D01*
X116671337Y-133095057D01*
X115719952Y-132142010D01*
X114476272Y-131625589D01*
X113129636Y-131624414D01*
X111885057Y-132138663D01*
X110932010Y-133090048D01*
X110415589Y-134333728D01*
X110414414Y-135680364D01*
X109644740Y-135680364D01*
X109824794Y-135246745D01*
X109825206Y-134775323D01*
X109645180Y-134339628D01*
X109312125Y-134005991D01*
X109077802Y-133908692D01*
X109424080Y-133765259D01*
X109504353Y-133513958D01*
X108640000Y-132649605D01*
X107775647Y-133513958D01*
X107855920Y-133765259D01*
X108225203Y-133899218D01*
X107969628Y-134004820D01*
X107635991Y-134337875D01*
X107455206Y-134773255D01*
X107454794Y-135244677D01*
X107634820Y-135680372D01*
X107967875Y-136014009D01*
X108217668Y-136117732D01*
X107799914Y-136290344D01*
X107381812Y-136707717D01*
X107155258Y-137253319D01*
X107154743Y-137844089D01*
X107380344Y-138390086D01*
X107797717Y-138808188D01*
X108259651Y-139000000D01*
X103939418Y-139000000D01*
X104400086Y-138809656D01*
X104818188Y-138392283D01*
X105044742Y-137846681D01*
X105045257Y-137255911D01*
X104819656Y-136709914D01*
X104402283Y-136291812D01*
X103856681Y-136065258D01*
X103265911Y-136064743D01*
X102719914Y-136290344D01*
X102301812Y-136707717D01*
X102075258Y-137253319D01*
X102074743Y-137844089D01*
X102300344Y-138390086D01*
X102717717Y-138808188D01*
X103179651Y-139000000D01*
X100710000Y-139000000D01*
X100710000Y-125173945D01*
X103716454Y-125173945D01*
X103970190Y-125549253D01*
X103953452Y-125565991D01*
X104040056Y-125652595D01*
X104047334Y-125663360D01*
X104057600Y-125670139D01*
X104133060Y-125745599D01*
X104148497Y-125730162D01*
X104540318Y-125988898D01*
X104985122Y-126095686D01*
X105197775Y-125939563D01*
X105025678Y-124852981D01*
X105097981Y-124780678D01*
X105126263Y-124780678D01*
X105298704Y-124953119D01*
X105448648Y-125899829D01*
X105699138Y-125982597D01*
X106074446Y-125728861D01*
X106091184Y-125745599D01*
X106177788Y-125658995D01*
X106188553Y-125651717D01*
X106195332Y-125641451D01*
X106270792Y-125565991D01*
X106255355Y-125550554D01*
X106514091Y-125158733D01*
X106620879Y-124713929D01*
X106464756Y-124501276D01*
X105378174Y-124673373D01*
X105305871Y-124601070D01*
X105126263Y-124780678D01*
X105097981Y-124780678D01*
X104918373Y-124601070D01*
X104745932Y-124773511D01*
X103799222Y-124923455D01*
X103716454Y-125173945D01*
X100710000Y-125173945D01*
X100710000Y-124459929D01*
X103603365Y-124459929D01*
X103759488Y-124672582D01*
X104846070Y-124500485D01*
X104918373Y-124572788D01*
X105097981Y-124393180D01*
X104925540Y-124220739D01*
X104775596Y-123274029D01*
X104655345Y-123234295D01*
X105026469Y-123234295D01*
X105198566Y-124320877D01*
X105126263Y-124393180D01*
X105305871Y-124572788D01*
X105478312Y-124400347D01*
X106425022Y-124250403D01*
X106507790Y-123999913D01*
X106343671Y-123757160D01*
X110722621Y-123757160D01*
X110948222Y-124303157D01*
X111365595Y-124721259D01*
X111911197Y-124947813D01*
X112501967Y-124948328D01*
X113047964Y-124722727D01*
X113466066Y-124305354D01*
X113692620Y-123759752D01*
X113692622Y-123757160D01*
X114706865Y-123757160D01*
X114932466Y-124303157D01*
X115349839Y-124721259D01*
X115895441Y-124947813D01*
X116486211Y-124948328D01*
X116670083Y-124872354D01*
X116500303Y-125281230D01*
X116499891Y-125752652D01*
X116679917Y-126188347D01*
X117012972Y-126521984D01*
X117448352Y-126702769D01*
X117919774Y-126703181D01*
X117967787Y-126683342D01*
X117782403Y-126985862D01*
X117865171Y-127236352D01*
X118811881Y-127386296D01*
X118984322Y-127558737D01*
X119075750Y-127467309D01*
X119323375Y-127467309D01*
X120530705Y-127658531D01*
X120686828Y-127445878D01*
X120523380Y-126878169D01*
X120155121Y-126416223D01*
X119765087Y-126177210D01*
X119514597Y-126259978D01*
X119323375Y-127467309D01*
X119075750Y-127467309D01*
X119163930Y-127379129D01*
X119091627Y-127306826D01*
X119263724Y-126220244D01*
X119051071Y-126064121D01*
X118699371Y-126165378D01*
X118869891Y-125754720D01*
X118870303Y-125283298D01*
X118690277Y-124847603D01*
X118357222Y-124513966D01*
X117921842Y-124333181D01*
X117450420Y-124332769D01*
X117403374Y-124352208D01*
X117450310Y-124305354D01*
X117676864Y-123759752D01*
X117677379Y-123168982D01*
X117451778Y-122622985D01*
X117034405Y-122204883D01*
X116488803Y-121978329D01*
X115898033Y-121977814D01*
X115352036Y-122203415D01*
X114933934Y-122620788D01*
X114707380Y-123166390D01*
X114706865Y-123757160D01*
X113692622Y-123757160D01*
X113693135Y-123168982D01*
X113467534Y-122622985D01*
X113050161Y-122204883D01*
X112504559Y-121978329D01*
X111913789Y-121977814D01*
X111367792Y-122203415D01*
X110949690Y-122620788D01*
X110723136Y-123166390D01*
X110722621Y-123757160D01*
X106343671Y-123757160D01*
X106296120Y-123686826D01*
X106368352Y-123716819D01*
X106839774Y-123717231D01*
X107275469Y-123537205D01*
X107609106Y-123204150D01*
X107789891Y-122768770D01*
X107790303Y-122297348D01*
X107620678Y-121886826D01*
X107801390Y-121961864D01*
X108392160Y-121962379D01*
X108938157Y-121736778D01*
X109356259Y-121319405D01*
X109582813Y-120773803D01*
X109582815Y-120771211D01*
X118816672Y-120771211D01*
X119042273Y-121317208D01*
X119459646Y-121735310D01*
X120005248Y-121961864D01*
X120596018Y-121962379D01*
X121142015Y-121736778D01*
X121560117Y-121319405D01*
X121786671Y-120773803D01*
X121787186Y-120183033D01*
X121561585Y-119637036D01*
X121144212Y-119218934D01*
X120598610Y-118992380D01*
X120007840Y-118991865D01*
X119461843Y-119217466D01*
X119043741Y-119634839D01*
X118817187Y-120180441D01*
X118816672Y-120771211D01*
X109582815Y-120771211D01*
X109583328Y-120183033D01*
X109357727Y-119637036D01*
X108955483Y-119234089D01*
X110174743Y-119234089D01*
X110400344Y-119780086D01*
X110817717Y-120198188D01*
X111363319Y-120424742D01*
X111954089Y-120425257D01*
X112500086Y-120199656D01*
X112918188Y-119782283D01*
X113144742Y-119236681D01*
X113144744Y-119234089D01*
X115254743Y-119234089D01*
X115480344Y-119780086D01*
X115897717Y-120198188D01*
X116443319Y-120424742D01*
X117034089Y-120425257D01*
X117580086Y-120199656D01*
X117998188Y-119782283D01*
X118224742Y-119236681D01*
X118225257Y-118645911D01*
X117999656Y-118099914D01*
X117582283Y-117681812D01*
X117162616Y-117507551D01*
X117410372Y-117405180D01*
X117744009Y-117072125D01*
X117781151Y-116982676D01*
X120046963Y-116982676D01*
X120272564Y-117528673D01*
X120689937Y-117946775D01*
X121235539Y-118173329D01*
X121826309Y-118173844D01*
X122372306Y-117948243D01*
X122790408Y-117530870D01*
X123016962Y-116985268D01*
X123017255Y-116648719D01*
X123275778Y-116907693D01*
X123711158Y-117088478D01*
X124182580Y-117088890D01*
X124618275Y-116908864D01*
X124951912Y-116575809D01*
X125033740Y-116378743D01*
X125864139Y-116378743D01*
X126018139Y-116592939D01*
X126608571Y-116612922D01*
X127161706Y-116405436D01*
X127509549Y-116108350D01*
X127508237Y-115844544D01*
X126419088Y-115289595D01*
X125864139Y-116378743D01*
X125033740Y-116378743D01*
X125132697Y-116140429D01*
X125132835Y-115982354D01*
X125374017Y-116264742D01*
X125637823Y-116263430D01*
X126192772Y-115174281D01*
X125103624Y-114619332D01*
X124889428Y-114773332D01*
X124876458Y-115156553D01*
X124620028Y-114899675D01*
X124184648Y-114718890D01*
X123713226Y-114718478D01*
X123277531Y-114898504D01*
X122943894Y-115231559D01*
X122763109Y-115666939D01*
X122762976Y-115819550D01*
X122374503Y-115430399D01*
X121828901Y-115203845D01*
X121238131Y-115203330D01*
X120692134Y-115428931D01*
X120274032Y-115846304D01*
X120047478Y-116391906D01*
X120046963Y-116982676D01*
X117781151Y-116982676D01*
X117924794Y-116636745D01*
X117925206Y-116165323D01*
X117745180Y-115729628D01*
X117412125Y-115395991D01*
X117177802Y-115298692D01*
X117524080Y-115155259D01*
X117604353Y-114903958D01*
X116740000Y-114039605D01*
X115875647Y-114903958D01*
X115955920Y-115155259D01*
X116325203Y-115289218D01*
X116069628Y-115394820D01*
X115735991Y-115727875D01*
X115555206Y-116163255D01*
X115554794Y-116634677D01*
X115734820Y-117070372D01*
X116067875Y-117404009D01*
X116317668Y-117507732D01*
X115899914Y-117680344D01*
X115481812Y-118097717D01*
X115255258Y-118643319D01*
X115254743Y-119234089D01*
X113144744Y-119234089D01*
X113145257Y-118645911D01*
X112919656Y-118099914D01*
X112502283Y-117681812D01*
X111956681Y-117455258D01*
X111365911Y-117454743D01*
X110819914Y-117680344D01*
X110401812Y-118097717D01*
X110175258Y-118643319D01*
X110174743Y-119234089D01*
X108955483Y-119234089D01*
X108940354Y-119218934D01*
X108394752Y-118992380D01*
X107803982Y-118991865D01*
X107257985Y-119217466D01*
X106839883Y-119634839D01*
X106613329Y-120180441D01*
X106612814Y-120771211D01*
X106838415Y-121317208D01*
X106887178Y-121366056D01*
X106841842Y-121347231D01*
X106370420Y-121346819D01*
X105934725Y-121526845D01*
X105601088Y-121859900D01*
X105420303Y-122295280D01*
X105419891Y-122766702D01*
X105582667Y-123160650D01*
X105239122Y-123078172D01*
X105026469Y-123234295D01*
X104655345Y-123234295D01*
X104525106Y-123191261D01*
X104149798Y-123444997D01*
X104133060Y-123428259D01*
X104046456Y-123514863D01*
X104035691Y-123522141D01*
X104028912Y-123532407D01*
X103953452Y-123607867D01*
X103968889Y-123623304D01*
X103710153Y-124015125D01*
X103603365Y-124459929D01*
X100710000Y-124459929D01*
X100710000Y-116982676D01*
X105382523Y-116982676D01*
X105608124Y-117528673D01*
X106025497Y-117946775D01*
X106571099Y-118173329D01*
X107161869Y-118173844D01*
X107707866Y-117948243D01*
X108125968Y-117530870D01*
X108352522Y-116985268D01*
X108353037Y-116394498D01*
X108127436Y-115848501D01*
X107710063Y-115430399D01*
X107164461Y-115203845D01*
X106573691Y-115203330D01*
X106027694Y-115428931D01*
X105609592Y-115846304D01*
X105383038Y-116391906D01*
X105382523Y-116982676D01*
X100710000Y-116982676D01*
X100710000Y-115797301D01*
X100776757Y-115958866D01*
X101194130Y-116376968D01*
X101739732Y-116603522D01*
X102330502Y-116604037D01*
X102876499Y-116378436D01*
X103294601Y-115961063D01*
X103521155Y-115415461D01*
X103521670Y-114824691D01*
X103296069Y-114278694D01*
X102878696Y-113860592D01*
X102796413Y-113826425D01*
X102796413Y-111539035D01*
X102926182Y-111640198D01*
X103495635Y-111797462D01*
X103951668Y-111761572D01*
X104105668Y-111547376D01*
X103572421Y-110500820D01*
X103592079Y-110481162D01*
X103453831Y-110342914D01*
X103777035Y-110342914D01*
X104331984Y-111432063D01*
X104595790Y-111433375D01*
X104836857Y-111124140D01*
X104836697Y-111306993D01*
X105016723Y-111742688D01*
X105349778Y-112076325D01*
X105785158Y-112257110D01*
X106256580Y-112257522D01*
X106692275Y-112077496D01*
X106952621Y-111817604D01*
X106952330Y-112151309D01*
X107177931Y-112697306D01*
X107595304Y-113115408D01*
X108140906Y-113341962D01*
X108731676Y-113342477D01*
X109277673Y-113116876D01*
X109695775Y-112699503D01*
X109922329Y-112153901D01*
X109922844Y-111563131D01*
X109697243Y-111017134D01*
X109279870Y-110599032D01*
X108734268Y-110372478D01*
X108143498Y-110371963D01*
X107597501Y-110597564D01*
X107206978Y-110987406D01*
X107207109Y-110837639D01*
X107027083Y-110401944D01*
X106694028Y-110068307D01*
X106258648Y-109887522D01*
X105787226Y-109887110D01*
X105351531Y-110067136D01*
X105109263Y-110308981D01*
X105080379Y-109941965D01*
X104895565Y-109809089D01*
X110174743Y-109809089D01*
X110400344Y-110355086D01*
X110817717Y-110773188D01*
X111363319Y-110999742D01*
X111954089Y-111000257D01*
X112500086Y-110774656D01*
X112918188Y-110357283D01*
X113144742Y-109811681D01*
X113145257Y-109220911D01*
X112919656Y-108674914D01*
X112502283Y-108256812D01*
X111956681Y-108030258D01*
X111365911Y-108029743D01*
X110819914Y-108255344D01*
X110401812Y-108672717D01*
X110175258Y-109218319D01*
X110174743Y-109809089D01*
X104895565Y-109809089D01*
X104866183Y-109787965D01*
X103777035Y-110342914D01*
X103453831Y-110342914D01*
X103412471Y-110301554D01*
X102949420Y-110764605D01*
X102796413Y-110842566D01*
X102796413Y-110557495D01*
X103392813Y-110253614D01*
X103412471Y-110273272D01*
X103592079Y-110093664D01*
X103129028Y-109630613D01*
X102880456Y-109142763D01*
X102796413Y-109142345D01*
X102796413Y-109027450D01*
X103106772Y-109027450D01*
X103661721Y-110116598D01*
X104750870Y-109561649D01*
X104752182Y-109297843D01*
X104286258Y-108934628D01*
X103716805Y-108777364D01*
X103260772Y-108813254D01*
X103106772Y-109027450D01*
X102796413Y-109027450D01*
X102796413Y-106870364D01*
X103414414Y-106870364D01*
X103928663Y-108114943D01*
X104880048Y-109067990D01*
X106123728Y-109584411D01*
X107470364Y-109585586D01*
X108714943Y-109071337D01*
X109667990Y-108119952D01*
X110184411Y-106876272D01*
X110185586Y-105529636D01*
X109671337Y-104285057D01*
X108719952Y-103332010D01*
X107476272Y-102815589D01*
X106129636Y-102814414D01*
X104885057Y-103328663D01*
X103932010Y-104280048D01*
X103415589Y-105523728D01*
X103414414Y-106870364D01*
X102796413Y-106870364D01*
X102796413Y-105278389D01*
X105314802Y-102760000D01*
X111165198Y-102760000D01*
X111122599Y-102802599D01*
G36*
X148275258Y-137253319D02*
X148274743Y-137844089D01*
X148500344Y-138390086D01*
X148917717Y-138808188D01*
X149379651Y-139000000D01*
X139819418Y-139000000D01*
X140280086Y-138809656D01*
X140698188Y-138392283D01*
X140924742Y-137846681D01*
X140925257Y-137255911D01*
X140761670Y-136860000D01*
X148438579Y-136860000D01*
X148275258Y-137253319D01*
X148275258Y-137253319D01*
G37*
X148275258Y-137253319D02*
X148274743Y-137844089D01*
X148500344Y-138390086D01*
X148917717Y-138808188D01*
X149379651Y-139000000D01*
X139819418Y-139000000D01*
X140280086Y-138809656D01*
X140698188Y-138392283D01*
X140924742Y-137846681D01*
X140925257Y-137255911D01*
X140761670Y-136860000D01*
X148438579Y-136860000D01*
X148275258Y-137253319D01*
G36*
X188762599Y-136637401D02*
X189009160Y-136802148D01*
X189300000Y-136860000D01*
X194638579Y-136860000D01*
X194475258Y-137253319D01*
X194474743Y-137844089D01*
X194700344Y-138390086D01*
X195117717Y-138808188D01*
X195579651Y-139000000D01*
X186019418Y-139000000D01*
X186480086Y-138809656D01*
X186898188Y-138392283D01*
X187124742Y-137846681D01*
X187125257Y-137255911D01*
X186899656Y-136709914D01*
X186482283Y-136291812D01*
X186062616Y-136117551D01*
X186310372Y-136015180D01*
X186644009Y-135682125D01*
X186824794Y-135246745D01*
X186825206Y-134775323D01*
X186772174Y-134646976D01*
X188762599Y-136637401D01*
X188762599Y-136637401D01*
G37*
X188762599Y-136637401D02*
X189009160Y-136802148D01*
X189300000Y-136860000D01*
X194638579Y-136860000D01*
X194475258Y-137253319D01*
X194474743Y-137844089D01*
X194700344Y-138390086D01*
X195117717Y-138808188D01*
X195579651Y-139000000D01*
X186019418Y-139000000D01*
X186480086Y-138809656D01*
X186898188Y-138392283D01*
X187124742Y-137846681D01*
X187125257Y-137255911D01*
X186899656Y-136709914D01*
X186482283Y-136291812D01*
X186062616Y-136117551D01*
X186310372Y-136015180D01*
X186644009Y-135682125D01*
X186824794Y-135246745D01*
X186825206Y-134775323D01*
X186772174Y-134646976D01*
X188762599Y-136637401D01*
G36*
X176690632Y-100726638D02*
X176306857Y-100885603D01*
X176237392Y-101127787D01*
X177038000Y-101928395D01*
X177838608Y-101127787D01*
X177769143Y-100885603D01*
X177276934Y-100710000D01*
X253690000Y-100710000D01*
X253690000Y-139000000D01*
X251219418Y-139000000D01*
X251680086Y-138809656D01*
X252098188Y-138392283D01*
X252324742Y-137846681D01*
X252325257Y-137255911D01*
X252099656Y-136709914D01*
X251682283Y-136291812D01*
X251262616Y-136117551D01*
X251510372Y-136015180D01*
X251844009Y-135682125D01*
X252024794Y-135246745D01*
X252025206Y-134775323D01*
X251845180Y-134339628D01*
X251512125Y-134005991D01*
X251277802Y-133908692D01*
X251624080Y-133765259D01*
X251704353Y-133513958D01*
X250840000Y-132649605D01*
X249975647Y-133513958D01*
X250055920Y-133765259D01*
X250425203Y-133899218D01*
X250169628Y-134004820D01*
X249835991Y-134337875D01*
X249655206Y-134773255D01*
X249654794Y-135244677D01*
X249834820Y-135680372D01*
X250167875Y-136014009D01*
X250417668Y-136117732D01*
X249999914Y-136290344D01*
X249581812Y-136707717D01*
X249355258Y-137253319D01*
X249354743Y-137844089D01*
X249580344Y-138390086D01*
X249997717Y-138808188D01*
X250459651Y-139000000D01*
X246139418Y-139000000D01*
X246600086Y-138809656D01*
X247018188Y-138392283D01*
X247244742Y-137846681D01*
X247245257Y-137255911D01*
X247019656Y-136709914D01*
X246602283Y-136291812D01*
X246056681Y-136065258D01*
X245465911Y-136064743D01*
X244919914Y-136290344D01*
X244501812Y-136707717D01*
X244275258Y-137253319D01*
X244274743Y-137844089D01*
X244500344Y-138390086D01*
X244917717Y-138808188D01*
X245379651Y-139000000D01*
X235819418Y-139000000D01*
X236280086Y-138809656D01*
X236698188Y-138392283D01*
X236924742Y-137846681D01*
X236925257Y-137255911D01*
X236699656Y-136709914D01*
X236282283Y-136291812D01*
X235862616Y-136117551D01*
X236110372Y-136015180D01*
X236444009Y-135682125D01*
X236444740Y-135680364D01*
X237214414Y-135680364D01*
X237728663Y-136924943D01*
X238680048Y-137877990D01*
X239923728Y-138394411D01*
X241270364Y-138395586D01*
X242514943Y-137881337D01*
X243467990Y-136929952D01*
X243984411Y-135686272D01*
X243985586Y-134339636D01*
X243471337Y-133095057D01*
X242519952Y-132142010D01*
X241276272Y-131625589D01*
X239929636Y-131624414D01*
X238685057Y-132138663D01*
X237732010Y-133090048D01*
X237215589Y-134333728D01*
X237214414Y-135680364D01*
X236444740Y-135680364D01*
X236624794Y-135246745D01*
X236625206Y-134775323D01*
X236445180Y-134339628D01*
X236112125Y-134005991D01*
X235877802Y-133908692D01*
X236224080Y-133765259D01*
X236304353Y-133513958D01*
X235440000Y-132649605D01*
X234575647Y-133513958D01*
X234655920Y-133765259D01*
X235025203Y-133899218D01*
X234769628Y-134004820D01*
X234435991Y-134337875D01*
X234255206Y-134773255D01*
X234254794Y-135244677D01*
X234434820Y-135680372D01*
X234767875Y-136014009D01*
X235017668Y-136117732D01*
X234599914Y-136290344D01*
X234181812Y-136707717D01*
X233955258Y-137253319D01*
X233954743Y-137844089D01*
X234180344Y-138390086D01*
X234597717Y-138808188D01*
X235059651Y-139000000D01*
X230739418Y-139000000D01*
X231200086Y-138809656D01*
X231618188Y-138392283D01*
X231844742Y-137846681D01*
X231845257Y-137255911D01*
X231619656Y-136709914D01*
X231202283Y-136291812D01*
X230656681Y-136065258D01*
X230065911Y-136064743D01*
X229519914Y-136290344D01*
X229101812Y-136707717D01*
X228875258Y-137253319D01*
X228874743Y-137844089D01*
X229100344Y-138390086D01*
X229517717Y-138808188D01*
X229979651Y-139000000D01*
X216819418Y-139000000D01*
X217280086Y-138809656D01*
X217698188Y-138392283D01*
X217924742Y-137846681D01*
X217925257Y-137255911D01*
X217761670Y-136860000D01*
X219900000Y-136860000D01*
X220190839Y-136802148D01*
X220437401Y-136637401D01*
X224437401Y-132637401D01*
X224602148Y-132390840D01*
X224660000Y-132100000D01*
X224660000Y-125134802D01*
X229600000Y-130074802D01*
X229600000Y-131177253D01*
X229519914Y-131210344D01*
X229101812Y-131627717D01*
X228875258Y-132173319D01*
X228874743Y-132764089D01*
X229100344Y-133310086D01*
X229517717Y-133728188D01*
X230063319Y-133954742D01*
X230654089Y-133955257D01*
X231200086Y-133729656D01*
X231618188Y-133312283D01*
X231844742Y-132766681D01*
X231845200Y-132241279D01*
X233943282Y-132241279D01*
X233969685Y-132831458D01*
X234144741Y-133254080D01*
X234396042Y-133334353D01*
X235260395Y-132470000D01*
X235619605Y-132470000D01*
X236483958Y-133334353D01*
X236735259Y-133254080D01*
X236936718Y-132698721D01*
X236910315Y-132108542D01*
X236735259Y-131685920D01*
X236483958Y-131605647D01*
X235619605Y-132470000D01*
X235260395Y-132470000D01*
X234396042Y-131605647D01*
X234144741Y-131685920D01*
X233943282Y-132241279D01*
X231845200Y-132241279D01*
X231845257Y-132175911D01*
X231619656Y-131629914D01*
X231416140Y-131426042D01*
X234575647Y-131426042D01*
X235440000Y-132290395D01*
X236304353Y-131426042D01*
X236224080Y-131174741D01*
X235668721Y-130973282D01*
X235078542Y-130999685D01*
X234655920Y-131174741D01*
X234575647Y-131426042D01*
X231416140Y-131426042D01*
X231202283Y-131211812D01*
X231120000Y-131177645D01*
X231120000Y-129760000D01*
X231062148Y-129469161D01*
X230897401Y-129222599D01*
X229834802Y-128160000D01*
X240285198Y-128160000D01*
X244282082Y-132156884D01*
X244275258Y-132173319D01*
X244274743Y-132764089D01*
X244500344Y-133310086D01*
X244917717Y-133728188D01*
X245463319Y-133954742D01*
X246054089Y-133955257D01*
X246600086Y-133729656D01*
X247018188Y-133312283D01*
X247244742Y-132766681D01*
X247245200Y-132241279D01*
X249343282Y-132241279D01*
X249369685Y-132831458D01*
X249544741Y-133254080D01*
X249796042Y-133334353D01*
X250660395Y-132470000D01*
X251019605Y-132470000D01*
X251883958Y-133334353D01*
X252135259Y-133254080D01*
X252336718Y-132698721D01*
X252310315Y-132108542D01*
X252135259Y-131685920D01*
X251883958Y-131605647D01*
X251019605Y-132470000D01*
X250660395Y-132470000D01*
X249796042Y-131605647D01*
X249544741Y-131685920D01*
X249343282Y-132241279D01*
X247245200Y-132241279D01*
X247245257Y-132175911D01*
X247019656Y-131629914D01*
X246816140Y-131426042D01*
X249975647Y-131426042D01*
X250840000Y-132290395D01*
X251704353Y-131426042D01*
X251624080Y-131174741D01*
X251068721Y-130973282D01*
X250478542Y-130999685D01*
X250055920Y-131174741D01*
X249975647Y-131426042D01*
X246816140Y-131426042D01*
X246602283Y-131211812D01*
X246056681Y-130985258D01*
X245465911Y-130984743D01*
X245319883Y-131045081D01*
X241137401Y-126862599D01*
X240890839Y-126697852D01*
X240600000Y-126640000D01*
X236450038Y-126640000D01*
X236698188Y-126392283D01*
X236924742Y-125846681D01*
X236924744Y-125844089D01*
X244274743Y-125844089D01*
X244500344Y-126390086D01*
X244917717Y-126808188D01*
X245463319Y-127034742D01*
X246054089Y-127035257D01*
X246600086Y-126809656D01*
X247018188Y-126392283D01*
X247244742Y-125846681D01*
X247244744Y-125844089D01*
X249354743Y-125844089D01*
X249580344Y-126390086D01*
X249997717Y-126808188D01*
X250543319Y-127034742D01*
X251134089Y-127035257D01*
X251680086Y-126809656D01*
X252098188Y-126392283D01*
X252324742Y-125846681D01*
X252325257Y-125255911D01*
X252099656Y-124709914D01*
X251682283Y-124291812D01*
X251262616Y-124117551D01*
X251510372Y-124015180D01*
X251844009Y-123682125D01*
X252024794Y-123246745D01*
X252025206Y-122775323D01*
X251845180Y-122339628D01*
X251512125Y-122005991D01*
X251277802Y-121908692D01*
X251624080Y-121765259D01*
X251704353Y-121513958D01*
X250840000Y-120649605D01*
X249975647Y-121513958D01*
X250055920Y-121765259D01*
X250425203Y-121899218D01*
X250169628Y-122004820D01*
X249835991Y-122337875D01*
X249655206Y-122773255D01*
X249654794Y-123244677D01*
X249834820Y-123680372D01*
X250167875Y-124014009D01*
X250417668Y-124117732D01*
X249999914Y-124290344D01*
X249581812Y-124707717D01*
X249355258Y-125253319D01*
X249354743Y-125844089D01*
X247244744Y-125844089D01*
X247245257Y-125255911D01*
X247019656Y-124709914D01*
X246602283Y-124291812D01*
X246056681Y-124065258D01*
X245465911Y-124064743D01*
X244919914Y-124290344D01*
X244501812Y-124707717D01*
X244275258Y-125253319D01*
X244274743Y-125844089D01*
X236924744Y-125844089D01*
X236925257Y-125255911D01*
X236699656Y-124709914D01*
X236282283Y-124291812D01*
X235862616Y-124117551D01*
X236110372Y-124015180D01*
X236444009Y-123682125D01*
X236624794Y-123246745D01*
X236625206Y-122775323D01*
X236445180Y-122339628D01*
X236112125Y-122005991D01*
X235877802Y-121908692D01*
X236224080Y-121765259D01*
X236304353Y-121513958D01*
X235440000Y-120649605D01*
X234575647Y-121513958D01*
X234655920Y-121765259D01*
X235025203Y-121899218D01*
X234769628Y-122004820D01*
X234435991Y-122337875D01*
X234255206Y-122773255D01*
X234254794Y-123244677D01*
X234434820Y-123680372D01*
X234767875Y-124014009D01*
X235017668Y-124117732D01*
X234599914Y-124290344D01*
X234181812Y-124707717D01*
X233955258Y-125253319D01*
X233954743Y-125844089D01*
X234180344Y-126390086D01*
X234429822Y-126640000D01*
X231370038Y-126640000D01*
X231618188Y-126392283D01*
X231844742Y-125846681D01*
X231845257Y-125255911D01*
X231619656Y-124709914D01*
X231202283Y-124291812D01*
X230656681Y-124065258D01*
X230065911Y-124064743D01*
X229519914Y-124290344D01*
X229101812Y-124707717D01*
X228875258Y-125253319D01*
X228874743Y-125844089D01*
X229054897Y-126280095D01*
X225034802Y-122260000D01*
X229330000Y-122260000D01*
X229620839Y-122202148D01*
X229867401Y-122037401D01*
X229983291Y-121921511D01*
X230063319Y-121954742D01*
X230654089Y-121955257D01*
X231200086Y-121729656D01*
X231618188Y-121312283D01*
X231844742Y-120766681D01*
X231845257Y-120175911D01*
X231673406Y-119760000D01*
X234117868Y-119760000D01*
X233943282Y-120241279D01*
X233969685Y-120831458D01*
X234144741Y-121254080D01*
X234396042Y-121334353D01*
X235260395Y-120470000D01*
X235246253Y-120455858D01*
X235425858Y-120276253D01*
X235440000Y-120290395D01*
X235454143Y-120276253D01*
X235633748Y-120455858D01*
X235619605Y-120470000D01*
X236483958Y-121334353D01*
X236735259Y-121254080D01*
X236936718Y-120698721D01*
X236910315Y-120108542D01*
X236765944Y-119760000D01*
X243985198Y-119760000D01*
X244311423Y-120086225D01*
X244275258Y-120173319D01*
X244274743Y-120764089D01*
X244500344Y-121310086D01*
X244917717Y-121728188D01*
X245463319Y-121954742D01*
X246054089Y-121955257D01*
X246600086Y-121729656D01*
X247018188Y-121312283D01*
X247244742Y-120766681D01*
X247245200Y-120241279D01*
X249343282Y-120241279D01*
X249369685Y-120831458D01*
X249544741Y-121254080D01*
X249796042Y-121334353D01*
X250660395Y-120470000D01*
X251019605Y-120470000D01*
X251883958Y-121334353D01*
X252135259Y-121254080D01*
X252336718Y-120698721D01*
X252310315Y-120108542D01*
X252135259Y-119685920D01*
X251883958Y-119605647D01*
X251019605Y-120470000D01*
X250660395Y-120470000D01*
X249796042Y-119605647D01*
X249544741Y-119685920D01*
X249343282Y-120241279D01*
X247245200Y-120241279D01*
X247245257Y-120175911D01*
X247019656Y-119629914D01*
X246816140Y-119426042D01*
X249975647Y-119426042D01*
X250840000Y-120290395D01*
X251704353Y-119426042D01*
X251624080Y-119174741D01*
X251068721Y-118973282D01*
X250478542Y-118999685D01*
X250055920Y-119174741D01*
X249975647Y-119426042D01*
X246816140Y-119426042D01*
X246602283Y-119211812D01*
X246056681Y-118985258D01*
X245465911Y-118984743D01*
X245390644Y-119015842D01*
X244837401Y-118462599D01*
X244590839Y-118297852D01*
X244300000Y-118240000D01*
X229800000Y-118240000D01*
X229557414Y-118288254D01*
X229509160Y-118297852D01*
X229262599Y-118462599D01*
X227685198Y-120040000D01*
X227634802Y-120040000D01*
X229037401Y-118637401D01*
X229202148Y-118390839D01*
X229260000Y-118100000D01*
X229260000Y-114550021D01*
X229517717Y-114808188D01*
X230063319Y-115034742D01*
X230654089Y-115035257D01*
X231200086Y-114809656D01*
X231618188Y-114392283D01*
X231844742Y-113846681D01*
X231844744Y-113844089D01*
X233954743Y-113844089D01*
X234180344Y-114390086D01*
X234597717Y-114808188D01*
X235143319Y-115034742D01*
X235734089Y-115035257D01*
X236280086Y-114809656D01*
X236698188Y-114392283D01*
X236924742Y-113846681D01*
X236925257Y-113255911D01*
X236699656Y-112709914D01*
X236282283Y-112291812D01*
X235862616Y-112117551D01*
X236110372Y-112015180D01*
X236444009Y-111682125D01*
X236449723Y-111668364D01*
X237214414Y-111668364D01*
X237728663Y-112912943D01*
X238680048Y-113865990D01*
X239923728Y-114382411D01*
X241270364Y-114383586D01*
X242514943Y-113869337D01*
X242540235Y-113844089D01*
X244274743Y-113844089D01*
X244500344Y-114390086D01*
X244917717Y-114808188D01*
X245463319Y-115034742D01*
X246054089Y-115035257D01*
X246600086Y-114809656D01*
X247018188Y-114392283D01*
X247244742Y-113846681D01*
X247244744Y-113844089D01*
X249354743Y-113844089D01*
X249580344Y-114390086D01*
X249997717Y-114808188D01*
X250543319Y-115034742D01*
X251134089Y-115035257D01*
X251680086Y-114809656D01*
X252098188Y-114392283D01*
X252324742Y-113846681D01*
X252325257Y-113255911D01*
X252099656Y-112709914D01*
X251682283Y-112291812D01*
X251262616Y-112117551D01*
X251510372Y-112015180D01*
X251844009Y-111682125D01*
X252024794Y-111246745D01*
X252025206Y-110775323D01*
X251845180Y-110339628D01*
X251512125Y-110005991D01*
X251277802Y-109908692D01*
X251624080Y-109765259D01*
X251704353Y-109513958D01*
X250840000Y-108649605D01*
X249975647Y-109513958D01*
X250055920Y-109765259D01*
X250425203Y-109899218D01*
X250169628Y-110004820D01*
X249835991Y-110337875D01*
X249655206Y-110773255D01*
X249654794Y-111244677D01*
X249834820Y-111680372D01*
X250167875Y-112014009D01*
X250417668Y-112117732D01*
X249999914Y-112290344D01*
X249581812Y-112707717D01*
X249355258Y-113253319D01*
X249354743Y-113844089D01*
X247244744Y-113844089D01*
X247245257Y-113255911D01*
X247019656Y-112709914D01*
X246602283Y-112291812D01*
X246056681Y-112065258D01*
X245465911Y-112064743D01*
X244919914Y-112290344D01*
X244501812Y-112707717D01*
X244275258Y-113253319D01*
X244274743Y-113844089D01*
X242540235Y-113844089D01*
X243467990Y-112917952D01*
X243984411Y-111674272D01*
X243985586Y-110327636D01*
X243471337Y-109083057D01*
X242519952Y-108130010D01*
X241276272Y-107613589D01*
X239929636Y-107612414D01*
X238685057Y-108126663D01*
X237732010Y-109078048D01*
X237215589Y-110321728D01*
X237214414Y-111668364D01*
X236449723Y-111668364D01*
X236624794Y-111246745D01*
X236625206Y-110775323D01*
X236445180Y-110339628D01*
X236112125Y-110005991D01*
X235877802Y-109908692D01*
X236224080Y-109765259D01*
X236304353Y-109513958D01*
X235440000Y-108649605D01*
X234575647Y-109513958D01*
X234655920Y-109765259D01*
X235025203Y-109899218D01*
X234769628Y-110004820D01*
X234435991Y-110337875D01*
X234255206Y-110773255D01*
X234254794Y-111244677D01*
X234434820Y-111680372D01*
X234767875Y-112014009D01*
X235017668Y-112117732D01*
X234599914Y-112290344D01*
X234181812Y-112707717D01*
X233955258Y-113253319D01*
X233954743Y-113844089D01*
X231844744Y-113844089D01*
X231845257Y-113255911D01*
X231619656Y-112709914D01*
X231202283Y-112291812D01*
X230656681Y-112065258D01*
X230065911Y-112064743D01*
X229519914Y-112290344D01*
X229260000Y-112549805D01*
X229260000Y-110644802D01*
X229983291Y-109921511D01*
X230063319Y-109954742D01*
X230654089Y-109955257D01*
X231200086Y-109729656D01*
X231618188Y-109312283D01*
X231844742Y-108766681D01*
X231845200Y-108241279D01*
X233943282Y-108241279D01*
X233969685Y-108831458D01*
X234144741Y-109254080D01*
X234396042Y-109334353D01*
X235260395Y-108470000D01*
X235619605Y-108470000D01*
X236483958Y-109334353D01*
X236735259Y-109254080D01*
X236936718Y-108698721D01*
X236910315Y-108108542D01*
X236735259Y-107685920D01*
X236483958Y-107605647D01*
X235619605Y-108470000D01*
X235260395Y-108470000D01*
X234396042Y-107605647D01*
X234144741Y-107685920D01*
X233943282Y-108241279D01*
X231845200Y-108241279D01*
X231845257Y-108175911D01*
X231619656Y-107629914D01*
X231202283Y-107211812D01*
X231077506Y-107160000D01*
X234691508Y-107160000D01*
X234655920Y-107174741D01*
X234575647Y-107426042D01*
X235440000Y-108290395D01*
X236304353Y-107426042D01*
X236224080Y-107174741D01*
X236183444Y-107160000D01*
X243785198Y-107160000D01*
X244428785Y-107803587D01*
X244275258Y-108173319D01*
X244274743Y-108764089D01*
X244500344Y-109310086D01*
X244917717Y-109728188D01*
X245463319Y-109954742D01*
X246054089Y-109955257D01*
X246600086Y-109729656D01*
X247018188Y-109312283D01*
X247244742Y-108766681D01*
X247245200Y-108241279D01*
X249343282Y-108241279D01*
X249369685Y-108831458D01*
X249544741Y-109254080D01*
X249796042Y-109334353D01*
X250660395Y-108470000D01*
X251019605Y-108470000D01*
X251883958Y-109334353D01*
X252135259Y-109254080D01*
X252336718Y-108698721D01*
X252310315Y-108108542D01*
X252135259Y-107685920D01*
X251883958Y-107605647D01*
X251019605Y-108470000D01*
X250660395Y-108470000D01*
X249796042Y-107605647D01*
X249544741Y-107685920D01*
X249343282Y-108241279D01*
X247245200Y-108241279D01*
X247245257Y-108175911D01*
X247019656Y-107629914D01*
X246816140Y-107426042D01*
X249975647Y-107426042D01*
X250840000Y-108290395D01*
X251704353Y-107426042D01*
X251624080Y-107174741D01*
X251068721Y-106973282D01*
X250478542Y-106999685D01*
X250055920Y-107174741D01*
X249975647Y-107426042D01*
X246816140Y-107426042D01*
X246602283Y-107211812D01*
X246056681Y-106985258D01*
X245759801Y-106984999D01*
X244637401Y-105862599D01*
X244390839Y-105697852D01*
X244100000Y-105640000D01*
X230200000Y-105640000D01*
X229909160Y-105697852D01*
X229662599Y-105862599D01*
X227362599Y-108162599D01*
X227197852Y-108409161D01*
X227140000Y-108700000D01*
X227140000Y-117385198D01*
X225885198Y-118640000D01*
X205509367Y-118640000D01*
X205768303Y-118533010D01*
X206161629Y-118140370D01*
X206374757Y-117627100D01*
X206375242Y-117071339D01*
X206163010Y-116557697D01*
X205770370Y-116164371D01*
X205738000Y-116150930D01*
X205738000Y-110490000D01*
X205680148Y-110199161D01*
X205515401Y-109952599D01*
X203114802Y-107552000D01*
X203191250Y-107552000D01*
X203350000Y-107393250D01*
X203350000Y-106069000D01*
X203604000Y-106069000D01*
X203604000Y-107393250D01*
X203762750Y-107552000D01*
X203903310Y-107552000D01*
X204136699Y-107455327D01*
X204315327Y-107276698D01*
X204412000Y-107043309D01*
X204412000Y-106227750D01*
X204253250Y-106069000D01*
X203604000Y-106069000D01*
X203350000Y-106069000D01*
X203330000Y-106069000D01*
X203330000Y-105815000D01*
X203350000Y-105815000D01*
X203350000Y-104490750D01*
X203604000Y-104490750D01*
X203604000Y-105815000D01*
X204253250Y-105815000D01*
X204412000Y-105656250D01*
X204412000Y-104840691D01*
X204315327Y-104607302D01*
X204136699Y-104428673D01*
X203903310Y-104332000D01*
X203762750Y-104332000D01*
X203604000Y-104490750D01*
X203350000Y-104490750D01*
X203191250Y-104332000D01*
X203050690Y-104332000D01*
X202833878Y-104421806D01*
X202768005Y-104376797D01*
X202975401Y-104169401D01*
X203140148Y-103922839D01*
X203198000Y-103632000D01*
X203198000Y-103305531D01*
X203228303Y-103293010D01*
X203621629Y-102900370D01*
X203707949Y-102692488D01*
X203792990Y-102898303D01*
X204185630Y-103291629D01*
X204698900Y-103504757D01*
X205254661Y-103505242D01*
X205768303Y-103293010D01*
X206161629Y-102900370D01*
X206374757Y-102387100D01*
X206375242Y-101831339D01*
X206163010Y-101317697D01*
X205770370Y-100924371D01*
X205257100Y-100711243D01*
X204701339Y-100710758D01*
X204187697Y-100922990D01*
X203794371Y-101315630D01*
X203708051Y-101523512D01*
X203623010Y-101317697D01*
X203230370Y-100924371D01*
X202717100Y-100711243D01*
X202161339Y-100710758D01*
X201647697Y-100922990D01*
X201254371Y-101315630D01*
X201168051Y-101523512D01*
X201083010Y-101317697D01*
X200690370Y-100924371D01*
X200177100Y-100711243D01*
X199621339Y-100710758D01*
X199107697Y-100922990D01*
X198714371Y-101315630D01*
X198628051Y-101523512D01*
X198543010Y-101317697D01*
X198150370Y-100924371D01*
X197637100Y-100711243D01*
X197081339Y-100710758D01*
X196567697Y-100922990D01*
X196174371Y-101315630D01*
X196088051Y-101523512D01*
X196003010Y-101317697D01*
X195610370Y-100924371D01*
X195097100Y-100711243D01*
X194541339Y-100710758D01*
X194027697Y-100922990D01*
X193634371Y-101315630D01*
X193548051Y-101523512D01*
X193463010Y-101317697D01*
X193070370Y-100924371D01*
X192557100Y-100711243D01*
X192001339Y-100710758D01*
X191487697Y-100922990D01*
X191094371Y-101315630D01*
X191008051Y-101523512D01*
X190923010Y-101317697D01*
X190530370Y-100924371D01*
X190017100Y-100711243D01*
X189461339Y-100710758D01*
X188947697Y-100922990D01*
X188554371Y-101315630D01*
X188468051Y-101523512D01*
X188383010Y-101317697D01*
X187990370Y-100924371D01*
X187477100Y-100711243D01*
X186921339Y-100710758D01*
X186407697Y-100922990D01*
X186014371Y-101315630D01*
X185928051Y-101523512D01*
X185843010Y-101317697D01*
X185450370Y-100924371D01*
X184937100Y-100711243D01*
X184381339Y-100710758D01*
X183867697Y-100922990D01*
X183474371Y-101315630D01*
X183388051Y-101523512D01*
X183303010Y-101317697D01*
X182910370Y-100924371D01*
X182397100Y-100711243D01*
X181841339Y-100710758D01*
X181327697Y-100922990D01*
X180934371Y-101315630D01*
X180848051Y-101523512D01*
X180763010Y-101317697D01*
X180370370Y-100924371D01*
X179857100Y-100711243D01*
X179301339Y-100710758D01*
X178787697Y-100922990D01*
X178394371Y-101315630D01*
X178314605Y-101507727D01*
X178260397Y-101376857D01*
X178018213Y-101307392D01*
X177217605Y-102108000D01*
X178018213Y-102908608D01*
X178260397Y-102839143D01*
X178310509Y-102698682D01*
X178392990Y-102898303D01*
X178785630Y-103291629D01*
X179298900Y-103504757D01*
X179854661Y-103505242D01*
X180368303Y-103293010D01*
X180761629Y-102900370D01*
X180847949Y-102692488D01*
X180932990Y-102898303D01*
X181325630Y-103291629D01*
X181838900Y-103504757D01*
X182394661Y-103505242D01*
X182908303Y-103293010D01*
X183301629Y-102900370D01*
X183387949Y-102692488D01*
X183472990Y-102898303D01*
X183865630Y-103291629D01*
X184378900Y-103504757D01*
X184934661Y-103505242D01*
X185448303Y-103293010D01*
X185841629Y-102900370D01*
X185927949Y-102692488D01*
X186012990Y-102898303D01*
X186240290Y-103126000D01*
X185928000Y-103126000D01*
X185806916Y-103150085D01*
X185684511Y-103166061D01*
X185662300Y-103178852D01*
X185637161Y-103183852D01*
X185534519Y-103252435D01*
X185427536Y-103314042D01*
X181578441Y-106682000D01*
X160960000Y-106682000D01*
X160960000Y-106435750D01*
X160801250Y-106277000D01*
X159827000Y-106277000D01*
X159827000Y-106297000D01*
X159573000Y-106297000D01*
X159573000Y-106277000D01*
X159553000Y-106277000D01*
X159553000Y-106023000D01*
X159573000Y-106023000D01*
X159573000Y-106003000D01*
X159827000Y-106003000D01*
X159827000Y-106023000D01*
X160801250Y-106023000D01*
X160960000Y-105864250D01*
X160960000Y-105273691D01*
X160863327Y-105040302D01*
X160722090Y-104899064D01*
X160776441Y-104864090D01*
X160921431Y-104651890D01*
X160972440Y-104400000D01*
X160972440Y-102900000D01*
X160928162Y-102664683D01*
X160789090Y-102448559D01*
X160695573Y-102384661D01*
X168020758Y-102384661D01*
X168232990Y-102898303D01*
X168625630Y-103291629D01*
X169138900Y-103504757D01*
X169694661Y-103505242D01*
X170208303Y-103293010D01*
X170601629Y-102900370D01*
X170687949Y-102692488D01*
X170772990Y-102898303D01*
X171165630Y-103291629D01*
X171678900Y-103504757D01*
X172234661Y-103505242D01*
X172748303Y-103293010D01*
X173141629Y-102900370D01*
X173227949Y-102692488D01*
X173312990Y-102898303D01*
X173705630Y-103291629D01*
X174218900Y-103504757D01*
X174774661Y-103505242D01*
X175288303Y-103293010D01*
X175493457Y-103088213D01*
X176237392Y-103088213D01*
X176306857Y-103330397D01*
X176830302Y-103517144D01*
X177385368Y-103489362D01*
X177769143Y-103330397D01*
X177838608Y-103088213D01*
X177038000Y-102287605D01*
X176237392Y-103088213D01*
X175493457Y-103088213D01*
X175681629Y-102900370D01*
X175761395Y-102708273D01*
X175815603Y-102839143D01*
X176057787Y-102908608D01*
X176858395Y-102108000D01*
X176057787Y-101307392D01*
X175815603Y-101376857D01*
X175765491Y-101517318D01*
X175683010Y-101317697D01*
X175290370Y-100924371D01*
X174777100Y-100711243D01*
X174221339Y-100710758D01*
X173707697Y-100922990D01*
X173314371Y-101315630D01*
X173228051Y-101523512D01*
X173143010Y-101317697D01*
X172750370Y-100924371D01*
X172237100Y-100711243D01*
X171681339Y-100710758D01*
X171167697Y-100922990D01*
X170774371Y-101315630D01*
X170688051Y-101523512D01*
X170603010Y-101317697D01*
X170210370Y-100924371D01*
X169697100Y-100711243D01*
X169141339Y-100710758D01*
X168627697Y-100922990D01*
X168234371Y-101315630D01*
X168021243Y-101828900D01*
X168020758Y-102384661D01*
X160695573Y-102384661D01*
X160576890Y-102303569D01*
X160325000Y-102252560D01*
X159075000Y-102252560D01*
X158839683Y-102296838D01*
X158623559Y-102435910D01*
X158515248Y-102594429D01*
X158496000Y-102590600D01*
X158405508Y-102608600D01*
X157900000Y-102608600D01*
X157887934Y-102611000D01*
X157358000Y-102611000D01*
X157017794Y-102678671D01*
X156729382Y-102871382D01*
X156343382Y-103257382D01*
X156150671Y-103545795D01*
X156118550Y-103707278D01*
X156098767Y-103736232D01*
X155994090Y-103573559D01*
X155781890Y-103428569D01*
X155530000Y-103377560D01*
X153970000Y-103377560D01*
X153734683Y-103421838D01*
X153518559Y-103560910D01*
X153500049Y-103588000D01*
X152251554Y-103588000D01*
X152200000Y-103577560D01*
X150200000Y-103577560D01*
X149964683Y-103621838D01*
X149748559Y-103760910D01*
X149603569Y-103973110D01*
X149552560Y-104225000D01*
X149552560Y-104925000D01*
X149563586Y-104983600D01*
X148175987Y-104983600D01*
X148089090Y-104848559D01*
X148020994Y-104802031D01*
X148163327Y-104659698D01*
X148260000Y-104426309D01*
X148260000Y-103835750D01*
X148101250Y-103677000D01*
X147127000Y-103677000D01*
X147127000Y-103697000D01*
X146873000Y-103697000D01*
X146873000Y-103677000D01*
X145898750Y-103677000D01*
X145740000Y-103835750D01*
X145740000Y-104426309D01*
X145836673Y-104659698D01*
X145977910Y-104800936D01*
X145923559Y-104835910D01*
X145778569Y-105048110D01*
X145727560Y-105300000D01*
X145727560Y-106800000D01*
X145771838Y-107035317D01*
X145910910Y-107251441D01*
X146123110Y-107396431D01*
X146375000Y-107447440D01*
X147625000Y-107447440D01*
X147858600Y-107403485D01*
X147858600Y-108815071D01*
X147849946Y-108820853D01*
X147622298Y-109161553D01*
X147555183Y-109018642D01*
X147126924Y-108628355D01*
X146716890Y-108458524D01*
X146487000Y-108579845D01*
X146487000Y-109773000D01*
X146507000Y-109773000D01*
X146507000Y-110027000D01*
X146487000Y-110027000D01*
X146487000Y-111220155D01*
X146716890Y-111341476D01*
X147126924Y-111171645D01*
X147555183Y-110781358D01*
X147622298Y-110638447D01*
X147849946Y-110979147D01*
X148331715Y-111301054D01*
X148900000Y-111414093D01*
X149468285Y-111301054D01*
X149950054Y-110979147D01*
X150170000Y-110649974D01*
X150389946Y-110979147D01*
X150871715Y-111301054D01*
X151440000Y-111414093D01*
X151903162Y-111321964D01*
X154656599Y-114075401D01*
X154903161Y-114240148D01*
X155194000Y-114298000D01*
X164592000Y-114298000D01*
X164882839Y-114240148D01*
X165129401Y-114075401D01*
X165414802Y-113790000D01*
X184912000Y-113790000D01*
X185202839Y-113732148D01*
X185449401Y-113567401D01*
X185614560Y-113402242D01*
X185614560Y-114142000D01*
X185658838Y-114377317D01*
X185797910Y-114593441D01*
X186010110Y-114738431D01*
X186262000Y-114789440D01*
X187762000Y-114789440D01*
X187997317Y-114745162D01*
X188213441Y-114606090D01*
X188358431Y-114393890D01*
X188361081Y-114380803D01*
X188497910Y-114593441D01*
X188710110Y-114738431D01*
X188962000Y-114789440D01*
X190462000Y-114789440D01*
X190697317Y-114745162D01*
X190913441Y-114606090D01*
X191058431Y-114393890D01*
X191099560Y-114190789D01*
X191099560Y-114417000D01*
X191143838Y-114652317D01*
X191282910Y-114868441D01*
X191495110Y-115013431D01*
X191747000Y-115064440D01*
X192347000Y-115064440D01*
X192582317Y-115020162D01*
X192681528Y-114956322D01*
X192765110Y-115013431D01*
X193017000Y-115064440D01*
X193617000Y-115064440D01*
X193852317Y-115020162D01*
X193951528Y-114956322D01*
X194035110Y-115013431D01*
X194287000Y-115064440D01*
X194887000Y-115064440D01*
X195122317Y-115020162D01*
X195221528Y-114956322D01*
X195305110Y-115013431D01*
X195557000Y-115064440D01*
X196157000Y-115064440D01*
X196392317Y-115020162D01*
X196491528Y-114956322D01*
X196575110Y-115013431D01*
X196827000Y-115064440D01*
X197427000Y-115064440D01*
X197662317Y-115020162D01*
X197761528Y-114956322D01*
X197845110Y-115013431D01*
X198097000Y-115064440D01*
X198697000Y-115064440D01*
X198932317Y-115020162D01*
X199031528Y-114956322D01*
X199115110Y-115013431D01*
X199367000Y-115064440D01*
X199967000Y-115064440D01*
X200202317Y-115020162D01*
X200301528Y-114956322D01*
X200385110Y-115013431D01*
X200637000Y-115064440D01*
X201237000Y-115064440D01*
X201472317Y-115020162D01*
X201571528Y-114956322D01*
X201655110Y-115013431D01*
X201907000Y-115064440D01*
X202507000Y-115064440D01*
X202742317Y-115020162D01*
X202841528Y-114956322D01*
X202925110Y-115013431D01*
X203177000Y-115064440D01*
X203777000Y-115064440D01*
X204012317Y-115020162D01*
X204218000Y-114887809D01*
X204218000Y-116150469D01*
X204187697Y-116162990D01*
X203794371Y-116555630D01*
X203708051Y-116763512D01*
X203623010Y-116557697D01*
X203230370Y-116164371D01*
X202717100Y-115951243D01*
X202161339Y-115950758D01*
X201647697Y-116162990D01*
X201254371Y-116555630D01*
X201168051Y-116763512D01*
X201083010Y-116557697D01*
X200690370Y-116164371D01*
X200177100Y-115951243D01*
X199621339Y-115950758D01*
X199107697Y-116162990D01*
X198714371Y-116555630D01*
X198628051Y-116763512D01*
X198543010Y-116557697D01*
X198150370Y-116164371D01*
X197637100Y-115951243D01*
X197081339Y-115950758D01*
X196567697Y-116162990D01*
X196174371Y-116555630D01*
X196088051Y-116763512D01*
X196003010Y-116557697D01*
X195610370Y-116164371D01*
X195097100Y-115951243D01*
X194541339Y-115950758D01*
X194027697Y-116162990D01*
X193634371Y-116555630D01*
X193548051Y-116763512D01*
X193463010Y-116557697D01*
X193070370Y-116164371D01*
X192557100Y-115951243D01*
X192001339Y-115950758D01*
X191487697Y-116162990D01*
X191094371Y-116555630D01*
X191008051Y-116763512D01*
X190923010Y-116557697D01*
X190530370Y-116164371D01*
X190017100Y-115951243D01*
X189461339Y-115950758D01*
X188947697Y-116162990D01*
X188554371Y-116555630D01*
X188468051Y-116763512D01*
X188383010Y-116557697D01*
X187990370Y-116164371D01*
X187477100Y-115951243D01*
X186921339Y-115950758D01*
X186407697Y-116162990D01*
X186014371Y-116555630D01*
X185928051Y-116763512D01*
X185843010Y-116557697D01*
X185450370Y-116164371D01*
X184937100Y-115951243D01*
X184381339Y-115950758D01*
X184169210Y-116038408D01*
X183417401Y-115286599D01*
X183170839Y-115121852D01*
X182880000Y-115064000D01*
X180258999Y-115064000D01*
X180259162Y-114876833D01*
X180117117Y-114533057D01*
X179854327Y-114269808D01*
X179510799Y-114127162D01*
X179138833Y-114126838D01*
X178795057Y-114268883D01*
X178761882Y-114302000D01*
X167640000Y-114302000D01*
X167349161Y-114359852D01*
X167102599Y-114524599D01*
X165293198Y-116334000D01*
X155502463Y-116334000D01*
X155470327Y-116301808D01*
X155126799Y-116159162D01*
X154754833Y-116158838D01*
X154411057Y-116300883D01*
X154147808Y-116563673D01*
X154005162Y-116907201D01*
X154004998Y-117096000D01*
X151438463Y-117096000D01*
X151406327Y-117063808D01*
X151062799Y-116921162D01*
X150690833Y-116920838D01*
X150500000Y-116999688D01*
X150500000Y-115800000D01*
X150442148Y-115509161D01*
X150277401Y-115262599D01*
X146752401Y-111737599D01*
X146505839Y-111572852D01*
X146215000Y-111515000D01*
X143456797Y-111515000D01*
X143366890Y-111453569D01*
X143115000Y-111402560D01*
X141365000Y-111402560D01*
X141129683Y-111446838D01*
X140913559Y-111585910D01*
X140768569Y-111798110D01*
X140717560Y-112050000D01*
X140717560Y-112500000D01*
X140737067Y-112603671D01*
X140717560Y-112700000D01*
X140717560Y-113150000D01*
X140737067Y-113253671D01*
X140717560Y-113350000D01*
X140717560Y-113800000D01*
X140737067Y-113903671D01*
X140717560Y-114000000D01*
X140717560Y-114450000D01*
X140737067Y-114553671D01*
X140717560Y-114650000D01*
X140717560Y-115100000D01*
X140737067Y-115203671D01*
X140717560Y-115300000D01*
X140717560Y-115750000D01*
X140737067Y-115853671D01*
X140717560Y-115950000D01*
X140717560Y-116400000D01*
X140737067Y-116503671D01*
X140717560Y-116600000D01*
X140717560Y-116802758D01*
X140575122Y-116660320D01*
X140575162Y-116614833D01*
X140433117Y-116271057D01*
X140170327Y-116007808D01*
X139826799Y-115865162D01*
X139454833Y-115864838D01*
X139111057Y-116006883D01*
X138847808Y-116269673D01*
X138705162Y-116613201D01*
X138704838Y-116985167D01*
X138846883Y-117328943D01*
X139109673Y-117592192D01*
X139453201Y-117734838D01*
X139500077Y-117734879D01*
X139654239Y-117889041D01*
X139611057Y-117906883D01*
X139347808Y-118169673D01*
X139205162Y-118513201D01*
X139204838Y-118885167D01*
X139346883Y-119228943D01*
X139609673Y-119492192D01*
X139866402Y-119598796D01*
X139500320Y-119964878D01*
X139454833Y-119964838D01*
X139111057Y-120106883D01*
X138847808Y-120369673D01*
X138705162Y-120713201D01*
X138704838Y-121085167D01*
X138735758Y-121160000D01*
X138236802Y-121160000D01*
X136614401Y-119537599D01*
X136562440Y-119502880D01*
X136562440Y-119200000D01*
X136542933Y-119096329D01*
X136562440Y-119000000D01*
X136562440Y-118550000D01*
X136542933Y-118446329D01*
X136562440Y-118350000D01*
X136562440Y-117900000D01*
X136542933Y-117796329D01*
X136562440Y-117700000D01*
X136562440Y-117250000D01*
X136542933Y-117146329D01*
X136562440Y-117050000D01*
X136562440Y-116600000D01*
X136542933Y-116496329D01*
X136562440Y-116400000D01*
X136562440Y-115950000D01*
X136542933Y-115846329D01*
X136562440Y-115750000D01*
X136562440Y-115300000D01*
X136542933Y-115196329D01*
X136562440Y-115100000D01*
X136562440Y-114650000D01*
X136542933Y-114546329D01*
X136562440Y-114450000D01*
X136562440Y-114000000D01*
X136542933Y-113896329D01*
X136562440Y-113800000D01*
X136562440Y-113350000D01*
X136542933Y-113246329D01*
X136562440Y-113150000D01*
X136562440Y-112700000D01*
X136542933Y-112596329D01*
X136562440Y-112500000D01*
X136562440Y-112050000D01*
X136518162Y-111814683D01*
X136379090Y-111598559D01*
X136166890Y-111453569D01*
X135941743Y-111407976D01*
X135921117Y-111358057D01*
X135658327Y-111094808D01*
X135314799Y-110952162D01*
X134942833Y-110951838D01*
X134599057Y-111093883D01*
X134335808Y-111356673D01*
X134316754Y-111402560D01*
X134165000Y-111402560D01*
X133929683Y-111446838D01*
X133713559Y-111585910D01*
X133568569Y-111798110D01*
X133517560Y-112050000D01*
X133517560Y-112165000D01*
X129739802Y-112165000D01*
X128460000Y-110885198D01*
X128460000Y-110256892D01*
X144918514Y-110256892D01*
X145164817Y-110781358D01*
X145593076Y-111171645D01*
X146003110Y-111341476D01*
X146233000Y-111220155D01*
X146233000Y-110027000D01*
X145039181Y-110027000D01*
X144918514Y-110256892D01*
X128460000Y-110256892D01*
X128460000Y-109543108D01*
X144918514Y-109543108D01*
X145039181Y-109773000D01*
X146233000Y-109773000D01*
X146233000Y-108579845D01*
X146003110Y-108458524D01*
X145593076Y-108628355D01*
X145164817Y-109018642D01*
X144918514Y-109543108D01*
X128460000Y-109543108D01*
X128460000Y-109100000D01*
X128404304Y-108820000D01*
X128402148Y-108809160D01*
X128237401Y-108562599D01*
X122348493Y-102673691D01*
X145740000Y-102673691D01*
X145740000Y-103264250D01*
X145898750Y-103423000D01*
X146873000Y-103423000D01*
X146873000Y-102323750D01*
X147127000Y-102323750D01*
X147127000Y-103423000D01*
X148101250Y-103423000D01*
X148260000Y-103264250D01*
X148260000Y-102673691D01*
X148163327Y-102440302D01*
X147984699Y-102261673D01*
X147751310Y-102165000D01*
X147285750Y-102165000D01*
X147127000Y-102323750D01*
X146873000Y-102323750D01*
X146714250Y-102165000D01*
X146248690Y-102165000D01*
X146015301Y-102261673D01*
X145836673Y-102440302D01*
X145740000Y-102673691D01*
X122348493Y-102673691D01*
X121137401Y-101462599D01*
X120890839Y-101297852D01*
X120600000Y-101240000D01*
X105000000Y-101240000D01*
X104709161Y-101297852D01*
X104462599Y-101462599D01*
X101499012Y-104426186D01*
X101334265Y-104672748D01*
X101276413Y-104963587D01*
X101276413Y-113826033D01*
X101196327Y-113859124D01*
X100778225Y-114276497D01*
X100710000Y-114440801D01*
X100710000Y-100710000D01*
X177023048Y-100710000D01*
X176690632Y-100726638D01*
X176690632Y-100726638D01*
G37*
X176690632Y-100726638D02*
X176306857Y-100885603D01*
X176237392Y-101127787D01*
X177038000Y-101928395D01*
X177838608Y-101127787D01*
X177769143Y-100885603D01*
X177276934Y-100710000D01*
X253690000Y-100710000D01*
X253690000Y-139000000D01*
X251219418Y-139000000D01*
X251680086Y-138809656D01*
X252098188Y-138392283D01*
X252324742Y-137846681D01*
X252325257Y-137255911D01*
X252099656Y-136709914D01*
X251682283Y-136291812D01*
X251262616Y-136117551D01*
X251510372Y-136015180D01*
X251844009Y-135682125D01*
X252024794Y-135246745D01*
X252025206Y-134775323D01*
X251845180Y-134339628D01*
X251512125Y-134005991D01*
X251277802Y-133908692D01*
X251624080Y-133765259D01*
X251704353Y-133513958D01*
X250840000Y-132649605D01*
X249975647Y-133513958D01*
X250055920Y-133765259D01*
X250425203Y-133899218D01*
X250169628Y-134004820D01*
X249835991Y-134337875D01*
X249655206Y-134773255D01*
X249654794Y-135244677D01*
X249834820Y-135680372D01*
X250167875Y-136014009D01*
X250417668Y-136117732D01*
X249999914Y-136290344D01*
X249581812Y-136707717D01*
X249355258Y-137253319D01*
X249354743Y-137844089D01*
X249580344Y-138390086D01*
X249997717Y-138808188D01*
X250459651Y-139000000D01*
X246139418Y-139000000D01*
X246600086Y-138809656D01*
X247018188Y-138392283D01*
X247244742Y-137846681D01*
X247245257Y-137255911D01*
X247019656Y-136709914D01*
X246602283Y-136291812D01*
X246056681Y-136065258D01*
X245465911Y-136064743D01*
X244919914Y-136290344D01*
X244501812Y-136707717D01*
X244275258Y-137253319D01*
X244274743Y-137844089D01*
X244500344Y-138390086D01*
X244917717Y-138808188D01*
X245379651Y-139000000D01*
X235819418Y-139000000D01*
X236280086Y-138809656D01*
X236698188Y-138392283D01*
X236924742Y-137846681D01*
X236925257Y-137255911D01*
X236699656Y-136709914D01*
X236282283Y-136291812D01*
X235862616Y-136117551D01*
X236110372Y-136015180D01*
X236444009Y-135682125D01*
X236444740Y-135680364D01*
X237214414Y-135680364D01*
X237728663Y-136924943D01*
X238680048Y-137877990D01*
X239923728Y-138394411D01*
X241270364Y-138395586D01*
X242514943Y-137881337D01*
X243467990Y-136929952D01*
X243984411Y-135686272D01*
X243985586Y-134339636D01*
X243471337Y-133095057D01*
X242519952Y-132142010D01*
X241276272Y-131625589D01*
X239929636Y-131624414D01*
X238685057Y-132138663D01*
X237732010Y-133090048D01*
X237215589Y-134333728D01*
X237214414Y-135680364D01*
X236444740Y-135680364D01*
X236624794Y-135246745D01*
X236625206Y-134775323D01*
X236445180Y-134339628D01*
X236112125Y-134005991D01*
X235877802Y-133908692D01*
X236224080Y-133765259D01*
X236304353Y-133513958D01*
X235440000Y-132649605D01*
X234575647Y-133513958D01*
X234655920Y-133765259D01*
X235025203Y-133899218D01*
X234769628Y-134004820D01*
X234435991Y-134337875D01*
X234255206Y-134773255D01*
X234254794Y-135244677D01*
X234434820Y-135680372D01*
X234767875Y-136014009D01*
X235017668Y-136117732D01*
X234599914Y-136290344D01*
X234181812Y-136707717D01*
X233955258Y-137253319D01*
X233954743Y-137844089D01*
X234180344Y-138390086D01*
X234597717Y-138808188D01*
X235059651Y-139000000D01*
X230739418Y-139000000D01*
X231200086Y-138809656D01*
X231618188Y-138392283D01*
X231844742Y-137846681D01*
X231845257Y-137255911D01*
X231619656Y-136709914D01*
X231202283Y-136291812D01*
X230656681Y-136065258D01*
X230065911Y-136064743D01*
X229519914Y-136290344D01*
X229101812Y-136707717D01*
X228875258Y-137253319D01*
X228874743Y-137844089D01*
X229100344Y-138390086D01*
X229517717Y-138808188D01*
X229979651Y-139000000D01*
X216819418Y-139000000D01*
X217280086Y-138809656D01*
X217698188Y-138392283D01*
X217924742Y-137846681D01*
X217925257Y-137255911D01*
X217761670Y-136860000D01*
X219900000Y-136860000D01*
X220190839Y-136802148D01*
X220437401Y-136637401D01*
X224437401Y-132637401D01*
X224602148Y-132390840D01*
X224660000Y-132100000D01*
X224660000Y-125134802D01*
X229600000Y-130074802D01*
X229600000Y-131177253D01*
X229519914Y-131210344D01*
X229101812Y-131627717D01*
X228875258Y-132173319D01*
X228874743Y-132764089D01*
X229100344Y-133310086D01*
X229517717Y-133728188D01*
X230063319Y-133954742D01*
X230654089Y-133955257D01*
X231200086Y-133729656D01*
X231618188Y-133312283D01*
X231844742Y-132766681D01*
X231845200Y-132241279D01*
X233943282Y-132241279D01*
X233969685Y-132831458D01*
X234144741Y-133254080D01*
X234396042Y-133334353D01*
X235260395Y-132470000D01*
X235619605Y-132470000D01*
X236483958Y-133334353D01*
X236735259Y-133254080D01*
X236936718Y-132698721D01*
X236910315Y-132108542D01*
X236735259Y-131685920D01*
X236483958Y-131605647D01*
X235619605Y-132470000D01*
X235260395Y-132470000D01*
X234396042Y-131605647D01*
X234144741Y-131685920D01*
X233943282Y-132241279D01*
X231845200Y-132241279D01*
X231845257Y-132175911D01*
X231619656Y-131629914D01*
X231416140Y-131426042D01*
X234575647Y-131426042D01*
X235440000Y-132290395D01*
X236304353Y-131426042D01*
X236224080Y-131174741D01*
X235668721Y-130973282D01*
X235078542Y-130999685D01*
X234655920Y-131174741D01*
X234575647Y-131426042D01*
X231416140Y-131426042D01*
X231202283Y-131211812D01*
X231120000Y-131177645D01*
X231120000Y-129760000D01*
X231062148Y-129469161D01*
X230897401Y-129222599D01*
X229834802Y-128160000D01*
X240285198Y-128160000D01*
X244282082Y-132156884D01*
X244275258Y-132173319D01*
X244274743Y-132764089D01*
X244500344Y-133310086D01*
X244917717Y-133728188D01*
X245463319Y-133954742D01*
X246054089Y-133955257D01*
X246600086Y-133729656D01*
X247018188Y-133312283D01*
X247244742Y-132766681D01*
X247245200Y-132241279D01*
X249343282Y-132241279D01*
X249369685Y-132831458D01*
X249544741Y-133254080D01*
X249796042Y-133334353D01*
X250660395Y-132470000D01*
X251019605Y-132470000D01*
X251883958Y-133334353D01*
X252135259Y-133254080D01*
X252336718Y-132698721D01*
X252310315Y-132108542D01*
X252135259Y-131685920D01*
X251883958Y-131605647D01*
X251019605Y-132470000D01*
X250660395Y-132470000D01*
X249796042Y-131605647D01*
X249544741Y-131685920D01*
X249343282Y-132241279D01*
X247245200Y-132241279D01*
X247245257Y-132175911D01*
X247019656Y-131629914D01*
X246816140Y-131426042D01*
X249975647Y-131426042D01*
X250840000Y-132290395D01*
X251704353Y-131426042D01*
X251624080Y-131174741D01*
X251068721Y-130973282D01*
X250478542Y-130999685D01*
X250055920Y-131174741D01*
X249975647Y-131426042D01*
X246816140Y-131426042D01*
X246602283Y-131211812D01*
X246056681Y-130985258D01*
X245465911Y-130984743D01*
X245319883Y-131045081D01*
X241137401Y-126862599D01*
X240890839Y-126697852D01*
X240600000Y-126640000D01*
X236450038Y-126640000D01*
X236698188Y-126392283D01*
X236924742Y-125846681D01*
X236924744Y-125844089D01*
X244274743Y-125844089D01*
X244500344Y-126390086D01*
X244917717Y-126808188D01*
X245463319Y-127034742D01*
X246054089Y-127035257D01*
X246600086Y-126809656D01*
X247018188Y-126392283D01*
X247244742Y-125846681D01*
X247244744Y-125844089D01*
X249354743Y-125844089D01*
X249580344Y-126390086D01*
X249997717Y-126808188D01*
X250543319Y-127034742D01*
X251134089Y-127035257D01*
X251680086Y-126809656D01*
X252098188Y-126392283D01*
X252324742Y-125846681D01*
X252325257Y-125255911D01*
X252099656Y-124709914D01*
X251682283Y-124291812D01*
X251262616Y-124117551D01*
X251510372Y-124015180D01*
X251844009Y-123682125D01*
X252024794Y-123246745D01*
X252025206Y-122775323D01*
X251845180Y-122339628D01*
X251512125Y-122005991D01*
X251277802Y-121908692D01*
X251624080Y-121765259D01*
X251704353Y-121513958D01*
X250840000Y-120649605D01*
X249975647Y-121513958D01*
X250055920Y-121765259D01*
X250425203Y-121899218D01*
X250169628Y-122004820D01*
X249835991Y-122337875D01*
X249655206Y-122773255D01*
X249654794Y-123244677D01*
X249834820Y-123680372D01*
X250167875Y-124014009D01*
X250417668Y-124117732D01*
X249999914Y-124290344D01*
X249581812Y-124707717D01*
X249355258Y-125253319D01*
X249354743Y-125844089D01*
X247244744Y-125844089D01*
X247245257Y-125255911D01*
X247019656Y-124709914D01*
X246602283Y-124291812D01*
X246056681Y-124065258D01*
X245465911Y-124064743D01*
X244919914Y-124290344D01*
X244501812Y-124707717D01*
X244275258Y-125253319D01*
X244274743Y-125844089D01*
X236924744Y-125844089D01*
X236925257Y-125255911D01*
X236699656Y-124709914D01*
X236282283Y-124291812D01*
X235862616Y-124117551D01*
X236110372Y-124015180D01*
X236444009Y-123682125D01*
X236624794Y-123246745D01*
X236625206Y-122775323D01*
X236445180Y-122339628D01*
X236112125Y-122005991D01*
X235877802Y-121908692D01*
X236224080Y-121765259D01*
X236304353Y-121513958D01*
X235440000Y-120649605D01*
X234575647Y-121513958D01*
X234655920Y-121765259D01*
X235025203Y-121899218D01*
X234769628Y-122004820D01*
X234435991Y-122337875D01*
X234255206Y-122773255D01*
X234254794Y-123244677D01*
X234434820Y-123680372D01*
X234767875Y-124014009D01*
X235017668Y-124117732D01*
X234599914Y-124290344D01*
X234181812Y-124707717D01*
X233955258Y-125253319D01*
X233954743Y-125844089D01*
X234180344Y-126390086D01*
X234429822Y-126640000D01*
X231370038Y-126640000D01*
X231618188Y-126392283D01*
X231844742Y-125846681D01*
X231845257Y-125255911D01*
X231619656Y-124709914D01*
X231202283Y-124291812D01*
X230656681Y-124065258D01*
X230065911Y-124064743D01*
X229519914Y-124290344D01*
X229101812Y-124707717D01*
X228875258Y-125253319D01*
X228874743Y-125844089D01*
X229054897Y-126280095D01*
X225034802Y-122260000D01*
X229330000Y-122260000D01*
X229620839Y-122202148D01*
X229867401Y-122037401D01*
X229983291Y-121921511D01*
X230063319Y-121954742D01*
X230654089Y-121955257D01*
X231200086Y-121729656D01*
X231618188Y-121312283D01*
X231844742Y-120766681D01*
X231845257Y-120175911D01*
X231673406Y-119760000D01*
X234117868Y-119760000D01*
X233943282Y-120241279D01*
X233969685Y-120831458D01*
X234144741Y-121254080D01*
X234396042Y-121334353D01*
X235260395Y-120470000D01*
X235246253Y-120455858D01*
X235425858Y-120276253D01*
X235440000Y-120290395D01*
X235454143Y-120276253D01*
X235633748Y-120455858D01*
X235619605Y-120470000D01*
X236483958Y-121334353D01*
X236735259Y-121254080D01*
X236936718Y-120698721D01*
X236910315Y-120108542D01*
X236765944Y-119760000D01*
X243985198Y-119760000D01*
X244311423Y-120086225D01*
X244275258Y-120173319D01*
X244274743Y-120764089D01*
X244500344Y-121310086D01*
X244917717Y-121728188D01*
X245463319Y-121954742D01*
X246054089Y-121955257D01*
X246600086Y-121729656D01*
X247018188Y-121312283D01*
X247244742Y-120766681D01*
X247245200Y-120241279D01*
X249343282Y-120241279D01*
X249369685Y-120831458D01*
X249544741Y-121254080D01*
X249796042Y-121334353D01*
X250660395Y-120470000D01*
X251019605Y-120470000D01*
X251883958Y-121334353D01*
X252135259Y-121254080D01*
X252336718Y-120698721D01*
X252310315Y-120108542D01*
X252135259Y-119685920D01*
X251883958Y-119605647D01*
X251019605Y-120470000D01*
X250660395Y-120470000D01*
X249796042Y-119605647D01*
X249544741Y-119685920D01*
X249343282Y-120241279D01*
X247245200Y-120241279D01*
X247245257Y-120175911D01*
X247019656Y-119629914D01*
X246816140Y-119426042D01*
X249975647Y-119426042D01*
X250840000Y-120290395D01*
X251704353Y-119426042D01*
X251624080Y-119174741D01*
X251068721Y-118973282D01*
X250478542Y-118999685D01*
X250055920Y-119174741D01*
X249975647Y-119426042D01*
X246816140Y-119426042D01*
X246602283Y-119211812D01*
X246056681Y-118985258D01*
X245465911Y-118984743D01*
X245390644Y-119015842D01*
X244837401Y-118462599D01*
X244590839Y-118297852D01*
X244300000Y-118240000D01*
X229800000Y-118240000D01*
X229557414Y-118288254D01*
X229509160Y-118297852D01*
X229262599Y-118462599D01*
X227685198Y-120040000D01*
X227634802Y-120040000D01*
X229037401Y-118637401D01*
X229202148Y-118390839D01*
X229260000Y-118100000D01*
X229260000Y-114550021D01*
X229517717Y-114808188D01*
X230063319Y-115034742D01*
X230654089Y-115035257D01*
X231200086Y-114809656D01*
X231618188Y-114392283D01*
X231844742Y-113846681D01*
X231844744Y-113844089D01*
X233954743Y-113844089D01*
X234180344Y-114390086D01*
X234597717Y-114808188D01*
X235143319Y-115034742D01*
X235734089Y-115035257D01*
X236280086Y-114809656D01*
X236698188Y-114392283D01*
X236924742Y-113846681D01*
X236925257Y-113255911D01*
X236699656Y-112709914D01*
X236282283Y-112291812D01*
X235862616Y-112117551D01*
X236110372Y-112015180D01*
X236444009Y-111682125D01*
X236449723Y-111668364D01*
X237214414Y-111668364D01*
X237728663Y-112912943D01*
X238680048Y-113865990D01*
X239923728Y-114382411D01*
X241270364Y-114383586D01*
X242514943Y-113869337D01*
X242540235Y-113844089D01*
X244274743Y-113844089D01*
X244500344Y-114390086D01*
X244917717Y-114808188D01*
X245463319Y-115034742D01*
X246054089Y-115035257D01*
X246600086Y-114809656D01*
X247018188Y-114392283D01*
X247244742Y-113846681D01*
X247244744Y-113844089D01*
X249354743Y-113844089D01*
X249580344Y-114390086D01*
X249997717Y-114808188D01*
X250543319Y-115034742D01*
X251134089Y-115035257D01*
X251680086Y-114809656D01*
X252098188Y-114392283D01*
X252324742Y-113846681D01*
X252325257Y-113255911D01*
X252099656Y-112709914D01*
X251682283Y-112291812D01*
X251262616Y-112117551D01*
X251510372Y-112015180D01*
X251844009Y-111682125D01*
X252024794Y-111246745D01*
X252025206Y-110775323D01*
X251845180Y-110339628D01*
X251512125Y-110005991D01*
X251277802Y-109908692D01*
X251624080Y-109765259D01*
X251704353Y-109513958D01*
X250840000Y-108649605D01*
X249975647Y-109513958D01*
X250055920Y-109765259D01*
X250425203Y-109899218D01*
X250169628Y-110004820D01*
X249835991Y-110337875D01*
X249655206Y-110773255D01*
X249654794Y-111244677D01*
X249834820Y-111680372D01*
X250167875Y-112014009D01*
X250417668Y-112117732D01*
X249999914Y-112290344D01*
X249581812Y-112707717D01*
X249355258Y-113253319D01*
X249354743Y-113844089D01*
X247244744Y-113844089D01*
X247245257Y-113255911D01*
X247019656Y-112709914D01*
X246602283Y-112291812D01*
X246056681Y-112065258D01*
X245465911Y-112064743D01*
X244919914Y-112290344D01*
X244501812Y-112707717D01*
X244275258Y-113253319D01*
X244274743Y-113844089D01*
X242540235Y-113844089D01*
X243467990Y-112917952D01*
X243984411Y-111674272D01*
X243985586Y-110327636D01*
X243471337Y-109083057D01*
X242519952Y-108130010D01*
X241276272Y-107613589D01*
X239929636Y-107612414D01*
X238685057Y-108126663D01*
X237732010Y-109078048D01*
X237215589Y-110321728D01*
X237214414Y-111668364D01*
X236449723Y-111668364D01*
X236624794Y-111246745D01*
X236625206Y-110775323D01*
X236445180Y-110339628D01*
X236112125Y-110005991D01*
X235877802Y-109908692D01*
X236224080Y-109765259D01*
X236304353Y-109513958D01*
X235440000Y-108649605D01*
X234575647Y-109513958D01*
X234655920Y-109765259D01*
X235025203Y-109899218D01*
X234769628Y-110004820D01*
X234435991Y-110337875D01*
X234255206Y-110773255D01*
X234254794Y-111244677D01*
X234434820Y-111680372D01*
X234767875Y-112014009D01*
X235017668Y-112117732D01*
X234599914Y-112290344D01*
X234181812Y-112707717D01*
X233955258Y-113253319D01*
X233954743Y-113844089D01*
X231844744Y-113844089D01*
X231845257Y-113255911D01*
X231619656Y-112709914D01*
X231202283Y-112291812D01*
X230656681Y-112065258D01*
X230065911Y-112064743D01*
X229519914Y-112290344D01*
X229260000Y-112549805D01*
X229260000Y-110644802D01*
X229983291Y-109921511D01*
X230063319Y-109954742D01*
X230654089Y-109955257D01*
X231200086Y-109729656D01*
X231618188Y-109312283D01*
X231844742Y-108766681D01*
X231845200Y-108241279D01*
X233943282Y-108241279D01*
X233969685Y-108831458D01*
X234144741Y-109254080D01*
X234396042Y-109334353D01*
X235260395Y-108470000D01*
X235619605Y-108470000D01*
X236483958Y-109334353D01*
X236735259Y-109254080D01*
X236936718Y-108698721D01*
X236910315Y-108108542D01*
X236735259Y-107685920D01*
X236483958Y-107605647D01*
X235619605Y-108470000D01*
X235260395Y-108470000D01*
X234396042Y-107605647D01*
X234144741Y-107685920D01*
X233943282Y-108241279D01*
X231845200Y-108241279D01*
X231845257Y-108175911D01*
X231619656Y-107629914D01*
X231202283Y-107211812D01*
X231077506Y-107160000D01*
X234691508Y-107160000D01*
X234655920Y-107174741D01*
X234575647Y-107426042D01*
X235440000Y-108290395D01*
X236304353Y-107426042D01*
X236224080Y-107174741D01*
X236183444Y-107160000D01*
X243785198Y-107160000D01*
X244428785Y-107803587D01*
X244275258Y-108173319D01*
X244274743Y-108764089D01*
X244500344Y-109310086D01*
X244917717Y-109728188D01*
X245463319Y-109954742D01*
X246054089Y-109955257D01*
X246600086Y-109729656D01*
X247018188Y-109312283D01*
X247244742Y-108766681D01*
X247245200Y-108241279D01*
X249343282Y-108241279D01*
X249369685Y-108831458D01*
X249544741Y-109254080D01*
X249796042Y-109334353D01*
X250660395Y-108470000D01*
X251019605Y-108470000D01*
X251883958Y-109334353D01*
X252135259Y-109254080D01*
X252336718Y-108698721D01*
X252310315Y-108108542D01*
X252135259Y-107685920D01*
X251883958Y-107605647D01*
X251019605Y-108470000D01*
X250660395Y-108470000D01*
X249796042Y-107605647D01*
X249544741Y-107685920D01*
X249343282Y-108241279D01*
X247245200Y-108241279D01*
X247245257Y-108175911D01*
X247019656Y-107629914D01*
X246816140Y-107426042D01*
X249975647Y-107426042D01*
X250840000Y-108290395D01*
X251704353Y-107426042D01*
X251624080Y-107174741D01*
X251068721Y-106973282D01*
X250478542Y-106999685D01*
X250055920Y-107174741D01*
X249975647Y-107426042D01*
X246816140Y-107426042D01*
X246602283Y-107211812D01*
X246056681Y-106985258D01*
X245759801Y-106984999D01*
X244637401Y-105862599D01*
X244390839Y-105697852D01*
X244100000Y-105640000D01*
X230200000Y-105640000D01*
X229909160Y-105697852D01*
X229662599Y-105862599D01*
X227362599Y-108162599D01*
X227197852Y-108409161D01*
X227140000Y-108700000D01*
X227140000Y-117385198D01*
X225885198Y-118640000D01*
X205509367Y-118640000D01*
X205768303Y-118533010D01*
X206161629Y-118140370D01*
X206374757Y-117627100D01*
X206375242Y-117071339D01*
X206163010Y-116557697D01*
X205770370Y-116164371D01*
X205738000Y-116150930D01*
X205738000Y-110490000D01*
X205680148Y-110199161D01*
X205515401Y-109952599D01*
X203114802Y-107552000D01*
X203191250Y-107552000D01*
X203350000Y-107393250D01*
X203350000Y-106069000D01*
X203604000Y-106069000D01*
X203604000Y-107393250D01*
X203762750Y-107552000D01*
X203903310Y-107552000D01*
X204136699Y-107455327D01*
X204315327Y-107276698D01*
X204412000Y-107043309D01*
X204412000Y-106227750D01*
X204253250Y-106069000D01*
X203604000Y-106069000D01*
X203350000Y-106069000D01*
X203330000Y-106069000D01*
X203330000Y-105815000D01*
X203350000Y-105815000D01*
X203350000Y-104490750D01*
X203604000Y-104490750D01*
X203604000Y-105815000D01*
X204253250Y-105815000D01*
X204412000Y-105656250D01*
X204412000Y-104840691D01*
X204315327Y-104607302D01*
X204136699Y-104428673D01*
X203903310Y-104332000D01*
X203762750Y-104332000D01*
X203604000Y-104490750D01*
X203350000Y-104490750D01*
X203191250Y-104332000D01*
X203050690Y-104332000D01*
X202833878Y-104421806D01*
X202768005Y-104376797D01*
X202975401Y-104169401D01*
X203140148Y-103922839D01*
X203198000Y-103632000D01*
X203198000Y-103305531D01*
X203228303Y-103293010D01*
X203621629Y-102900370D01*
X203707949Y-102692488D01*
X203792990Y-102898303D01*
X204185630Y-103291629D01*
X204698900Y-103504757D01*
X205254661Y-103505242D01*
X205768303Y-103293010D01*
X206161629Y-102900370D01*
X206374757Y-102387100D01*
X206375242Y-101831339D01*
X206163010Y-101317697D01*
X205770370Y-100924371D01*
X205257100Y-100711243D01*
X204701339Y-100710758D01*
X204187697Y-100922990D01*
X203794371Y-101315630D01*
X203708051Y-101523512D01*
X203623010Y-101317697D01*
X203230370Y-100924371D01*
X202717100Y-100711243D01*
X202161339Y-100710758D01*
X201647697Y-100922990D01*
X201254371Y-101315630D01*
X201168051Y-101523512D01*
X201083010Y-101317697D01*
X200690370Y-100924371D01*
X200177100Y-100711243D01*
X199621339Y-100710758D01*
X199107697Y-100922990D01*
X198714371Y-101315630D01*
X198628051Y-101523512D01*
X198543010Y-101317697D01*
X198150370Y-100924371D01*
X197637100Y-100711243D01*
X197081339Y-100710758D01*
X196567697Y-100922990D01*
X196174371Y-101315630D01*
X196088051Y-101523512D01*
X196003010Y-101317697D01*
X195610370Y-100924371D01*
X195097100Y-100711243D01*
X194541339Y-100710758D01*
X194027697Y-100922990D01*
X193634371Y-101315630D01*
X193548051Y-101523512D01*
X193463010Y-101317697D01*
X193070370Y-100924371D01*
X192557100Y-100711243D01*
X192001339Y-100710758D01*
X191487697Y-100922990D01*
X191094371Y-101315630D01*
X191008051Y-101523512D01*
X190923010Y-101317697D01*
X190530370Y-100924371D01*
X190017100Y-100711243D01*
X189461339Y-100710758D01*
X188947697Y-100922990D01*
X188554371Y-101315630D01*
X188468051Y-101523512D01*
X188383010Y-101317697D01*
X187990370Y-100924371D01*
X187477100Y-100711243D01*
X186921339Y-100710758D01*
X186407697Y-100922990D01*
X186014371Y-101315630D01*
X185928051Y-101523512D01*
X185843010Y-101317697D01*
X185450370Y-100924371D01*
X184937100Y-100711243D01*
X184381339Y-100710758D01*
X183867697Y-100922990D01*
X183474371Y-101315630D01*
X183388051Y-101523512D01*
X183303010Y-101317697D01*
X182910370Y-100924371D01*
X182397100Y-100711243D01*
X181841339Y-100710758D01*
X181327697Y-100922990D01*
X180934371Y-101315630D01*
X180848051Y-101523512D01*
X180763010Y-101317697D01*
X180370370Y-100924371D01*
X179857100Y-100711243D01*
X179301339Y-100710758D01*
X178787697Y-100922990D01*
X178394371Y-101315630D01*
X178314605Y-101507727D01*
X178260397Y-101376857D01*
X178018213Y-101307392D01*
X177217605Y-102108000D01*
X178018213Y-102908608D01*
X178260397Y-102839143D01*
X178310509Y-102698682D01*
X178392990Y-102898303D01*
X178785630Y-103291629D01*
X179298900Y-103504757D01*
X179854661Y-103505242D01*
X180368303Y-103293010D01*
X180761629Y-102900370D01*
X180847949Y-102692488D01*
X180932990Y-102898303D01*
X181325630Y-103291629D01*
X181838900Y-103504757D01*
X182394661Y-103505242D01*
X182908303Y-103293010D01*
X183301629Y-102900370D01*
X183387949Y-102692488D01*
X183472990Y-102898303D01*
X183865630Y-103291629D01*
X184378900Y-103504757D01*
X184934661Y-103505242D01*
X185448303Y-103293010D01*
X185841629Y-102900370D01*
X185927949Y-102692488D01*
X186012990Y-102898303D01*
X186240290Y-103126000D01*
X185928000Y-103126000D01*
X185806916Y-103150085D01*
X185684511Y-103166061D01*
X185662300Y-103178852D01*
X185637161Y-103183852D01*
X185534519Y-103252435D01*
X185427536Y-103314042D01*
X181578441Y-106682000D01*
X160960000Y-106682000D01*
X160960000Y-106435750D01*
X160801250Y-106277000D01*
X159827000Y-106277000D01*
X159827000Y-106297000D01*
X159573000Y-106297000D01*
X159573000Y-106277000D01*
X159553000Y-106277000D01*
X159553000Y-106023000D01*
X159573000Y-106023000D01*
X159573000Y-106003000D01*
X159827000Y-106003000D01*
X159827000Y-106023000D01*
X160801250Y-106023000D01*
X160960000Y-105864250D01*
X160960000Y-105273691D01*
X160863327Y-105040302D01*
X160722090Y-104899064D01*
X160776441Y-104864090D01*
X160921431Y-104651890D01*
X160972440Y-104400000D01*
X160972440Y-102900000D01*
X160928162Y-102664683D01*
X160789090Y-102448559D01*
X160695573Y-102384661D01*
X168020758Y-102384661D01*
X168232990Y-102898303D01*
X168625630Y-103291629D01*
X169138900Y-103504757D01*
X169694661Y-103505242D01*
X170208303Y-103293010D01*
X170601629Y-102900370D01*
X170687949Y-102692488D01*
X170772990Y-102898303D01*
X171165630Y-103291629D01*
X171678900Y-103504757D01*
X172234661Y-103505242D01*
X172748303Y-103293010D01*
X173141629Y-102900370D01*
X173227949Y-102692488D01*
X173312990Y-102898303D01*
X173705630Y-103291629D01*
X174218900Y-103504757D01*
X174774661Y-103505242D01*
X175288303Y-103293010D01*
X175493457Y-103088213D01*
X176237392Y-103088213D01*
X176306857Y-103330397D01*
X176830302Y-103517144D01*
X177385368Y-103489362D01*
X177769143Y-103330397D01*
X177838608Y-103088213D01*
X177038000Y-102287605D01*
X176237392Y-103088213D01*
X175493457Y-103088213D01*
X175681629Y-102900370D01*
X175761395Y-102708273D01*
X175815603Y-102839143D01*
X176057787Y-102908608D01*
X176858395Y-102108000D01*
X176057787Y-101307392D01*
X175815603Y-101376857D01*
X175765491Y-101517318D01*
X175683010Y-101317697D01*
X175290370Y-100924371D01*
X174777100Y-100711243D01*
X174221339Y-100710758D01*
X173707697Y-100922990D01*
X173314371Y-101315630D01*
X173228051Y-101523512D01*
X173143010Y-101317697D01*
X172750370Y-100924371D01*
X172237100Y-100711243D01*
X171681339Y-100710758D01*
X171167697Y-100922990D01*
X170774371Y-101315630D01*
X170688051Y-101523512D01*
X170603010Y-101317697D01*
X170210370Y-100924371D01*
X169697100Y-100711243D01*
X169141339Y-100710758D01*
X168627697Y-100922990D01*
X168234371Y-101315630D01*
X168021243Y-101828900D01*
X168020758Y-102384661D01*
X160695573Y-102384661D01*
X160576890Y-102303569D01*
X160325000Y-102252560D01*
X159075000Y-102252560D01*
X158839683Y-102296838D01*
X158623559Y-102435910D01*
X158515248Y-102594429D01*
X158496000Y-102590600D01*
X158405508Y-102608600D01*
X157900000Y-102608600D01*
X157887934Y-102611000D01*
X157358000Y-102611000D01*
X157017794Y-102678671D01*
X156729382Y-102871382D01*
X156343382Y-103257382D01*
X156150671Y-103545795D01*
X156118550Y-103707278D01*
X156098767Y-103736232D01*
X155994090Y-103573559D01*
X155781890Y-103428569D01*
X155530000Y-103377560D01*
X153970000Y-103377560D01*
X153734683Y-103421838D01*
X153518559Y-103560910D01*
X153500049Y-103588000D01*
X152251554Y-103588000D01*
X152200000Y-103577560D01*
X150200000Y-103577560D01*
X149964683Y-103621838D01*
X149748559Y-103760910D01*
X149603569Y-103973110D01*
X149552560Y-104225000D01*
X149552560Y-104925000D01*
X149563586Y-104983600D01*
X148175987Y-104983600D01*
X148089090Y-104848559D01*
X148020994Y-104802031D01*
X148163327Y-104659698D01*
X148260000Y-104426309D01*
X148260000Y-103835750D01*
X148101250Y-103677000D01*
X147127000Y-103677000D01*
X147127000Y-103697000D01*
X146873000Y-103697000D01*
X146873000Y-103677000D01*
X145898750Y-103677000D01*
X145740000Y-103835750D01*
X145740000Y-104426309D01*
X145836673Y-104659698D01*
X145977910Y-104800936D01*
X145923559Y-104835910D01*
X145778569Y-105048110D01*
X145727560Y-105300000D01*
X145727560Y-106800000D01*
X145771838Y-107035317D01*
X145910910Y-107251441D01*
X146123110Y-107396431D01*
X146375000Y-107447440D01*
X147625000Y-107447440D01*
X147858600Y-107403485D01*
X147858600Y-108815071D01*
X147849946Y-108820853D01*
X147622298Y-109161553D01*
X147555183Y-109018642D01*
X147126924Y-108628355D01*
X146716890Y-108458524D01*
X146487000Y-108579845D01*
X146487000Y-109773000D01*
X146507000Y-109773000D01*
X146507000Y-110027000D01*
X146487000Y-110027000D01*
X146487000Y-111220155D01*
X146716890Y-111341476D01*
X147126924Y-111171645D01*
X147555183Y-110781358D01*
X147622298Y-110638447D01*
X147849946Y-110979147D01*
X148331715Y-111301054D01*
X148900000Y-111414093D01*
X149468285Y-111301054D01*
X149950054Y-110979147D01*
X150170000Y-110649974D01*
X150389946Y-110979147D01*
X150871715Y-111301054D01*
X151440000Y-111414093D01*
X151903162Y-111321964D01*
X154656599Y-114075401D01*
X154903161Y-114240148D01*
X155194000Y-114298000D01*
X164592000Y-114298000D01*
X164882839Y-114240148D01*
X165129401Y-114075401D01*
X165414802Y-113790000D01*
X184912000Y-113790000D01*
X185202839Y-113732148D01*
X185449401Y-113567401D01*
X185614560Y-113402242D01*
X185614560Y-114142000D01*
X185658838Y-114377317D01*
X185797910Y-114593441D01*
X186010110Y-114738431D01*
X186262000Y-114789440D01*
X187762000Y-114789440D01*
X187997317Y-114745162D01*
X188213441Y-114606090D01*
X188358431Y-114393890D01*
X188361081Y-114380803D01*
X188497910Y-114593441D01*
X188710110Y-114738431D01*
X188962000Y-114789440D01*
X190462000Y-114789440D01*
X190697317Y-114745162D01*
X190913441Y-114606090D01*
X191058431Y-114393890D01*
X191099560Y-114190789D01*
X191099560Y-114417000D01*
X191143838Y-114652317D01*
X191282910Y-114868441D01*
X191495110Y-115013431D01*
X191747000Y-115064440D01*
X192347000Y-115064440D01*
X192582317Y-115020162D01*
X192681528Y-114956322D01*
X192765110Y-115013431D01*
X193017000Y-115064440D01*
X193617000Y-115064440D01*
X193852317Y-115020162D01*
X193951528Y-114956322D01*
X194035110Y-115013431D01*
X194287000Y-115064440D01*
X194887000Y-115064440D01*
X195122317Y-115020162D01*
X195221528Y-114956322D01*
X195305110Y-115013431D01*
X195557000Y-115064440D01*
X196157000Y-115064440D01*
X196392317Y-115020162D01*
X196491528Y-114956322D01*
X196575110Y-115013431D01*
X196827000Y-115064440D01*
X197427000Y-115064440D01*
X197662317Y-115020162D01*
X197761528Y-114956322D01*
X197845110Y-115013431D01*
X198097000Y-115064440D01*
X198697000Y-115064440D01*
X198932317Y-115020162D01*
X199031528Y-114956322D01*
X199115110Y-115013431D01*
X199367000Y-115064440D01*
X199967000Y-115064440D01*
X200202317Y-115020162D01*
X200301528Y-114956322D01*
X200385110Y-115013431D01*
X200637000Y-115064440D01*
X201237000Y-115064440D01*
X201472317Y-115020162D01*
X201571528Y-114956322D01*
X201655110Y-115013431D01*
X201907000Y-115064440D01*
X202507000Y-115064440D01*
X202742317Y-115020162D01*
X202841528Y-114956322D01*
X202925110Y-115013431D01*
X203177000Y-115064440D01*
X203777000Y-115064440D01*
X204012317Y-115020162D01*
X204218000Y-114887809D01*
X204218000Y-116150469D01*
X204187697Y-116162990D01*
X203794371Y-116555630D01*
X203708051Y-116763512D01*
X203623010Y-116557697D01*
X203230370Y-116164371D01*
X202717100Y-115951243D01*
X202161339Y-115950758D01*
X201647697Y-116162990D01*
X201254371Y-116555630D01*
X201168051Y-116763512D01*
X201083010Y-116557697D01*
X200690370Y-116164371D01*
X200177100Y-115951243D01*
X199621339Y-115950758D01*
X199107697Y-116162990D01*
X198714371Y-116555630D01*
X198628051Y-116763512D01*
X198543010Y-116557697D01*
X198150370Y-116164371D01*
X197637100Y-115951243D01*
X197081339Y-115950758D01*
X196567697Y-116162990D01*
X196174371Y-116555630D01*
X196088051Y-116763512D01*
X196003010Y-116557697D01*
X195610370Y-116164371D01*
X195097100Y-115951243D01*
X194541339Y-115950758D01*
X194027697Y-116162990D01*
X193634371Y-116555630D01*
X193548051Y-116763512D01*
X193463010Y-116557697D01*
X193070370Y-116164371D01*
X192557100Y-115951243D01*
X192001339Y-115950758D01*
X191487697Y-116162990D01*
X191094371Y-116555630D01*
X191008051Y-116763512D01*
X190923010Y-116557697D01*
X190530370Y-116164371D01*
X190017100Y-115951243D01*
X189461339Y-115950758D01*
X188947697Y-116162990D01*
X188554371Y-116555630D01*
X188468051Y-116763512D01*
X188383010Y-116557697D01*
X187990370Y-116164371D01*
X187477100Y-115951243D01*
X186921339Y-115950758D01*
X186407697Y-116162990D01*
X186014371Y-116555630D01*
X185928051Y-116763512D01*
X185843010Y-116557697D01*
X185450370Y-116164371D01*
X184937100Y-115951243D01*
X184381339Y-115950758D01*
X184169210Y-116038408D01*
X183417401Y-115286599D01*
X183170839Y-115121852D01*
X182880000Y-115064000D01*
X180258999Y-115064000D01*
X180259162Y-114876833D01*
X180117117Y-114533057D01*
X179854327Y-114269808D01*
X179510799Y-114127162D01*
X179138833Y-114126838D01*
X178795057Y-114268883D01*
X178761882Y-114302000D01*
X167640000Y-114302000D01*
X167349161Y-114359852D01*
X167102599Y-114524599D01*
X165293198Y-116334000D01*
X155502463Y-116334000D01*
X155470327Y-116301808D01*
X155126799Y-116159162D01*
X154754833Y-116158838D01*
X154411057Y-116300883D01*
X154147808Y-116563673D01*
X154005162Y-116907201D01*
X154004998Y-117096000D01*
X151438463Y-117096000D01*
X151406327Y-117063808D01*
X151062799Y-116921162D01*
X150690833Y-116920838D01*
X150500000Y-116999688D01*
X150500000Y-115800000D01*
X150442148Y-115509161D01*
X150277401Y-115262599D01*
X146752401Y-111737599D01*
X146505839Y-111572852D01*
X146215000Y-111515000D01*
X143456797Y-111515000D01*
X143366890Y-111453569D01*
X143115000Y-111402560D01*
X141365000Y-111402560D01*
X141129683Y-111446838D01*
X140913559Y-111585910D01*
X140768569Y-111798110D01*
X140717560Y-112050000D01*
X140717560Y-112500000D01*
X140737067Y-112603671D01*
X140717560Y-112700000D01*
X140717560Y-113150000D01*
X140737067Y-113253671D01*
X140717560Y-113350000D01*
X140717560Y-113800000D01*
X140737067Y-113903671D01*
X140717560Y-114000000D01*
X140717560Y-114450000D01*
X140737067Y-114553671D01*
X140717560Y-114650000D01*
X140717560Y-115100000D01*
X140737067Y-115203671D01*
X140717560Y-115300000D01*
X140717560Y-115750000D01*
X140737067Y-115853671D01*
X140717560Y-115950000D01*
X140717560Y-116400000D01*
X140737067Y-116503671D01*
X140717560Y-116600000D01*
X140717560Y-116802758D01*
X140575122Y-116660320D01*
X140575162Y-116614833D01*
X140433117Y-116271057D01*
X140170327Y-116007808D01*
X139826799Y-115865162D01*
X139454833Y-115864838D01*
X139111057Y-116006883D01*
X138847808Y-116269673D01*
X138705162Y-116613201D01*
X138704838Y-116985167D01*
X138846883Y-117328943D01*
X139109673Y-117592192D01*
X139453201Y-117734838D01*
X139500077Y-117734879D01*
X139654239Y-117889041D01*
X139611057Y-117906883D01*
X139347808Y-118169673D01*
X139205162Y-118513201D01*
X139204838Y-118885167D01*
X139346883Y-119228943D01*
X139609673Y-119492192D01*
X139866402Y-119598796D01*
X139500320Y-119964878D01*
X139454833Y-119964838D01*
X139111057Y-120106883D01*
X138847808Y-120369673D01*
X138705162Y-120713201D01*
X138704838Y-121085167D01*
X138735758Y-121160000D01*
X138236802Y-121160000D01*
X136614401Y-119537599D01*
X136562440Y-119502880D01*
X136562440Y-119200000D01*
X136542933Y-119096329D01*
X136562440Y-119000000D01*
X136562440Y-118550000D01*
X136542933Y-118446329D01*
X136562440Y-118350000D01*
X136562440Y-117900000D01*
X136542933Y-117796329D01*
X136562440Y-117700000D01*
X136562440Y-117250000D01*
X136542933Y-117146329D01*
X136562440Y-117050000D01*
X136562440Y-116600000D01*
X136542933Y-116496329D01*
X136562440Y-116400000D01*
X136562440Y-115950000D01*
X136542933Y-115846329D01*
X136562440Y-115750000D01*
X136562440Y-115300000D01*
X136542933Y-115196329D01*
X136562440Y-115100000D01*
X136562440Y-114650000D01*
X136542933Y-114546329D01*
X136562440Y-114450000D01*
X136562440Y-114000000D01*
X136542933Y-113896329D01*
X136562440Y-113800000D01*
X136562440Y-113350000D01*
X136542933Y-113246329D01*
X136562440Y-113150000D01*
X136562440Y-112700000D01*
X136542933Y-112596329D01*
X136562440Y-112500000D01*
X136562440Y-112050000D01*
X136518162Y-111814683D01*
X136379090Y-111598559D01*
X136166890Y-111453569D01*
X135941743Y-111407976D01*
X135921117Y-111358057D01*
X135658327Y-111094808D01*
X135314799Y-110952162D01*
X134942833Y-110951838D01*
X134599057Y-111093883D01*
X134335808Y-111356673D01*
X134316754Y-111402560D01*
X134165000Y-111402560D01*
X133929683Y-111446838D01*
X133713559Y-111585910D01*
X133568569Y-111798110D01*
X133517560Y-112050000D01*
X133517560Y-112165000D01*
X129739802Y-112165000D01*
X128460000Y-110885198D01*
X128460000Y-110256892D01*
X144918514Y-110256892D01*
X145164817Y-110781358D01*
X145593076Y-111171645D01*
X146003110Y-111341476D01*
X146233000Y-111220155D01*
X146233000Y-110027000D01*
X145039181Y-110027000D01*
X144918514Y-110256892D01*
X128460000Y-110256892D01*
X128460000Y-109543108D01*
X144918514Y-109543108D01*
X145039181Y-109773000D01*
X146233000Y-109773000D01*
X146233000Y-108579845D01*
X146003110Y-108458524D01*
X145593076Y-108628355D01*
X145164817Y-109018642D01*
X144918514Y-109543108D01*
X128460000Y-109543108D01*
X128460000Y-109100000D01*
X128404304Y-108820000D01*
X128402148Y-108809160D01*
X128237401Y-108562599D01*
X122348493Y-102673691D01*
X145740000Y-102673691D01*
X145740000Y-103264250D01*
X145898750Y-103423000D01*
X146873000Y-103423000D01*
X146873000Y-102323750D01*
X147127000Y-102323750D01*
X147127000Y-103423000D01*
X148101250Y-103423000D01*
X148260000Y-103264250D01*
X148260000Y-102673691D01*
X148163327Y-102440302D01*
X147984699Y-102261673D01*
X147751310Y-102165000D01*
X147285750Y-102165000D01*
X147127000Y-102323750D01*
X146873000Y-102323750D01*
X146714250Y-102165000D01*
X146248690Y-102165000D01*
X146015301Y-102261673D01*
X145836673Y-102440302D01*
X145740000Y-102673691D01*
X122348493Y-102673691D01*
X121137401Y-101462599D01*
X120890839Y-101297852D01*
X120600000Y-101240000D01*
X105000000Y-101240000D01*
X104709161Y-101297852D01*
X104462599Y-101462599D01*
X101499012Y-104426186D01*
X101334265Y-104672748D01*
X101276413Y-104963587D01*
X101276413Y-113826033D01*
X101196327Y-113859124D01*
X100778225Y-114276497D01*
X100710000Y-114440801D01*
X100710000Y-100710000D01*
X177023048Y-100710000D01*
X176690632Y-100726638D01*
G36*
X209875258Y-137253319D02*
X209874743Y-137844089D01*
X210100344Y-138390086D01*
X210517717Y-138808188D01*
X210979651Y-139000000D01*
X201419418Y-139000000D01*
X201880086Y-138809656D01*
X202298188Y-138392283D01*
X202524742Y-137846681D01*
X202525257Y-137255911D01*
X202361670Y-136860000D01*
X210038579Y-136860000D01*
X209875258Y-137253319D01*
X209875258Y-137253319D01*
G37*
X209875258Y-137253319D02*
X209874743Y-137844089D01*
X210100344Y-138390086D01*
X210517717Y-138808188D01*
X210979651Y-139000000D01*
X201419418Y-139000000D01*
X201880086Y-138809656D01*
X202298188Y-138392283D01*
X202524742Y-137846681D01*
X202525257Y-137255911D01*
X202361670Y-136860000D01*
X210038579Y-136860000D01*
X209875258Y-137253319D01*
G36*
X194463282Y-132241279D02*
X194489685Y-132831458D01*
X194664741Y-133254080D01*
X194916042Y-133334353D01*
X195780395Y-132470000D01*
X195766253Y-132455858D01*
X195945858Y-132276253D01*
X195960000Y-132290395D01*
X195974143Y-132276253D01*
X196153748Y-132455858D01*
X196139605Y-132470000D01*
X197003958Y-133334353D01*
X197255259Y-133254080D01*
X197456718Y-132698721D01*
X197430315Y-132108542D01*
X197306655Y-131810000D01*
X199706121Y-131810000D01*
X199555258Y-132173319D01*
X199554743Y-132764089D01*
X199780344Y-133310086D01*
X200197717Y-133728188D01*
X200617384Y-133902449D01*
X200369628Y-134004820D01*
X200035991Y-134337875D01*
X199855206Y-134773255D01*
X199854794Y-135244677D01*
X199894181Y-135340000D01*
X189614802Y-135340000D01*
X187788760Y-133513958D01*
X195095647Y-133513958D01*
X195175920Y-133765259D01*
X195731279Y-133966718D01*
X196321458Y-133940315D01*
X196744080Y-133765259D01*
X196824353Y-133513958D01*
X195960000Y-132649605D01*
X195095647Y-133513958D01*
X187788760Y-133513958D01*
X187100313Y-132825511D01*
X187124742Y-132766681D01*
X187125257Y-132175911D01*
X186974066Y-131810000D01*
X194619730Y-131810000D01*
X194463282Y-132241279D01*
X194463282Y-132241279D01*
G37*
X194463282Y-132241279D02*
X194489685Y-132831458D01*
X194664741Y-133254080D01*
X194916042Y-133334353D01*
X195780395Y-132470000D01*
X195766253Y-132455858D01*
X195945858Y-132276253D01*
X195960000Y-132290395D01*
X195974143Y-132276253D01*
X196153748Y-132455858D01*
X196139605Y-132470000D01*
X197003958Y-133334353D01*
X197255259Y-133254080D01*
X197456718Y-132698721D01*
X197430315Y-132108542D01*
X197306655Y-131810000D01*
X199706121Y-131810000D01*
X199555258Y-132173319D01*
X199554743Y-132764089D01*
X199780344Y-133310086D01*
X200197717Y-133728188D01*
X200617384Y-133902449D01*
X200369628Y-134004820D01*
X200035991Y-134337875D01*
X199855206Y-134773255D01*
X199854794Y-135244677D01*
X199894181Y-135340000D01*
X189614802Y-135340000D01*
X187788760Y-133513958D01*
X195095647Y-133513958D01*
X195175920Y-133765259D01*
X195731279Y-133966718D01*
X196321458Y-133940315D01*
X196744080Y-133765259D01*
X196824353Y-133513958D01*
X195960000Y-132649605D01*
X195095647Y-133513958D01*
X187788760Y-133513958D01*
X187100313Y-132825511D01*
X187124742Y-132766681D01*
X187125257Y-132175911D01*
X186974066Y-131810000D01*
X194619730Y-131810000D01*
X194463282Y-132241279D01*
G36*
X153343282Y-132241279D02*
X153369685Y-132831458D01*
X153544741Y-133254080D01*
X153796042Y-133334353D01*
X154660395Y-132470000D01*
X154646253Y-132455858D01*
X154825858Y-132276253D01*
X154840000Y-132290395D01*
X154854143Y-132276253D01*
X155033748Y-132455858D01*
X155019605Y-132470000D01*
X155883958Y-133334353D01*
X156135259Y-133254080D01*
X156336718Y-132698721D01*
X156310315Y-132108542D01*
X156186655Y-131810000D01*
X163826121Y-131810000D01*
X163675258Y-132173319D01*
X163674743Y-132764089D01*
X163699995Y-132825203D01*
X161185198Y-135340000D01*
X155986071Y-135340000D01*
X156024794Y-135246745D01*
X156025206Y-134775323D01*
X155845180Y-134339628D01*
X155512125Y-134005991D01*
X155277802Y-133908692D01*
X155624080Y-133765259D01*
X155704353Y-133513958D01*
X154840000Y-132649605D01*
X153975647Y-133513958D01*
X154055920Y-133765259D01*
X154425203Y-133899218D01*
X154169628Y-134004820D01*
X153835991Y-134337875D01*
X153655206Y-134773255D01*
X153654794Y-135244677D01*
X153694181Y-135340000D01*
X140586071Y-135340000D01*
X140624794Y-135246745D01*
X140625206Y-134775323D01*
X140577555Y-134660000D01*
X148300000Y-134660000D01*
X148590839Y-134602148D01*
X148837401Y-134437401D01*
X149362093Y-133912709D01*
X149463319Y-133954742D01*
X150054089Y-133955257D01*
X150600086Y-133729656D01*
X151018188Y-133312283D01*
X151244742Y-132766681D01*
X151245257Y-132175911D01*
X151094066Y-131810000D01*
X153499730Y-131810000D01*
X153343282Y-132241279D01*
X153343282Y-132241279D01*
G37*
X153343282Y-132241279D02*
X153369685Y-132831458D01*
X153544741Y-133254080D01*
X153796042Y-133334353D01*
X154660395Y-132470000D01*
X154646253Y-132455858D01*
X154825858Y-132276253D01*
X154840000Y-132290395D01*
X154854143Y-132276253D01*
X155033748Y-132455858D01*
X155019605Y-132470000D01*
X155883958Y-133334353D01*
X156135259Y-133254080D01*
X156336718Y-132698721D01*
X156310315Y-132108542D01*
X156186655Y-131810000D01*
X163826121Y-131810000D01*
X163675258Y-132173319D01*
X163674743Y-132764089D01*
X163699995Y-132825203D01*
X161185198Y-135340000D01*
X155986071Y-135340000D01*
X156024794Y-135246745D01*
X156025206Y-134775323D01*
X155845180Y-134339628D01*
X155512125Y-134005991D01*
X155277802Y-133908692D01*
X155624080Y-133765259D01*
X155704353Y-133513958D01*
X154840000Y-132649605D01*
X153975647Y-133513958D01*
X154055920Y-133765259D01*
X154425203Y-133899218D01*
X154169628Y-134004820D01*
X153835991Y-134337875D01*
X153655206Y-134773255D01*
X153654794Y-135244677D01*
X153694181Y-135340000D01*
X140586071Y-135340000D01*
X140624794Y-135246745D01*
X140625206Y-134775323D01*
X140577555Y-134660000D01*
X148300000Y-134660000D01*
X148590839Y-134602148D01*
X148837401Y-134437401D01*
X149362093Y-133912709D01*
X149463319Y-133954742D01*
X150054089Y-133955257D01*
X150600086Y-133729656D01*
X151018188Y-133312283D01*
X151244742Y-132766681D01*
X151245257Y-132175911D01*
X151094066Y-131810000D01*
X153499730Y-131810000D01*
X153343282Y-132241279D01*
G36*
X202209160Y-134602148D02*
X202500000Y-134660000D01*
X215302233Y-134660000D01*
X215255206Y-134773255D01*
X215254794Y-135244677D01*
X215294181Y-135340000D01*
X202186071Y-135340000D01*
X202224794Y-135246745D01*
X202225206Y-134775323D01*
X202132481Y-134550913D01*
X202209160Y-134602148D01*
X202209160Y-134602148D01*
G37*
X202209160Y-134602148D02*
X202500000Y-134660000D01*
X215302233Y-134660000D01*
X215255206Y-134773255D01*
X215254794Y-135244677D01*
X215294181Y-135340000D01*
X202186071Y-135340000D01*
X202224794Y-135246745D01*
X202225206Y-134775323D01*
X202132481Y-134550913D01*
X202209160Y-134602148D01*
G36*
X209863282Y-132241279D02*
X209889685Y-132831458D01*
X210017487Y-133140000D01*
X202814802Y-133140000D01*
X202500313Y-132825511D01*
X202524742Y-132766681D01*
X202525257Y-132175911D01*
X202374066Y-131810000D01*
X210019730Y-131810000D01*
X209863282Y-132241279D01*
X209863282Y-132241279D01*
G37*
X209863282Y-132241279D02*
X209889685Y-132831458D01*
X210017487Y-133140000D01*
X202814802Y-133140000D01*
X202500313Y-132825511D01*
X202524742Y-132766681D01*
X202525257Y-132175911D01*
X202374066Y-131810000D01*
X210019730Y-131810000D01*
X209863282Y-132241279D01*
G36*
X139633748Y-132455858D02*
X139619605Y-132470000D01*
X139633748Y-132484143D01*
X139454143Y-132663748D01*
X139440000Y-132649605D01*
X139425858Y-132663748D01*
X139246253Y-132484143D01*
X139260395Y-132470000D01*
X139246253Y-132455858D01*
X139425858Y-132276253D01*
X139440000Y-132290395D01*
X139454143Y-132276253D01*
X139633748Y-132455858D01*
X139633748Y-132455858D01*
G37*
X139633748Y-132455858D02*
X139619605Y-132470000D01*
X139633748Y-132484143D01*
X139454143Y-132663748D01*
X139440000Y-132649605D01*
X139425858Y-132663748D01*
X139246253Y-132484143D01*
X139260395Y-132470000D01*
X139246253Y-132455858D01*
X139425858Y-132276253D01*
X139440000Y-132290395D01*
X139454143Y-132276253D01*
X139633748Y-132455858D01*
G36*
X211553748Y-132455858D02*
X211539605Y-132470000D01*
X211553748Y-132484143D01*
X211374143Y-132663748D01*
X211360000Y-132649605D01*
X211345858Y-132663748D01*
X211166253Y-132484143D01*
X211180395Y-132470000D01*
X211166253Y-132455858D01*
X211345858Y-132276253D01*
X211360000Y-132290395D01*
X211374143Y-132276253D01*
X211553748Y-132455858D01*
X211553748Y-132455858D01*
G37*
X211553748Y-132455858D02*
X211539605Y-132470000D01*
X211553748Y-132484143D01*
X211374143Y-132663748D01*
X211360000Y-132649605D01*
X211345858Y-132663748D01*
X211166253Y-132484143D01*
X211180395Y-132470000D01*
X211166253Y-132455858D01*
X211345858Y-132276253D01*
X211360000Y-132290395D01*
X211374143Y-132276253D01*
X211553748Y-132455858D01*
G36*
X172151748Y-117333858D02*
X172137605Y-117348000D01*
X172151748Y-117362143D01*
X171972143Y-117541748D01*
X171958000Y-117527605D01*
X171943858Y-117541748D01*
X171764253Y-117362143D01*
X171778395Y-117348000D01*
X171764253Y-117333858D01*
X171943858Y-117154253D01*
X171958000Y-117168395D01*
X171972143Y-117154253D01*
X172151748Y-117333858D01*
X172151748Y-117333858D01*
G37*
X172151748Y-117333858D02*
X172137605Y-117348000D01*
X172151748Y-117362143D01*
X171972143Y-117541748D01*
X171958000Y-117527605D01*
X171943858Y-117541748D01*
X171764253Y-117362143D01*
X171778395Y-117348000D01*
X171764253Y-117333858D01*
X171943858Y-117154253D01*
X171958000Y-117168395D01*
X171972143Y-117154253D01*
X172151748Y-117333858D01*
M02*
