G04 #@! TF.FileFunction,Soldermask,Bot*
%FSLAX46Y46*%
G04 Gerber Fmt 4.6, Leading zero omitted, Abs format (unit mm)*
G04 Created by KiCad (PCBNEW 4.0.7+dfsg1-1) date Mon Nov  5 17:33:27 2018*
%MOMM*%
%LPD*%
G01*
G04 APERTURE LIST*
%ADD10C,0.100000*%
%ADD11R,1.650000X1.900000*%
%ADD12R,2.100000X2.100000*%
%ADD13O,2.100000X2.100000*%
%ADD14R,1.900000X1.700000*%
%ADD15C,2.100000*%
%ADD16C,1.500000*%
%ADD17R,1.960000X1.050000*%
%ADD18R,1.000000X2.350000*%
%ADD19R,2.150000X0.850000*%
%ADD20R,2.400000X1.100000*%
%ADD21C,1.924000*%
%ADD22C,5.900000*%
G04 APERTURE END LIST*
D10*
D11*
X159700000Y-103650000D03*
X159700000Y-106150000D03*
X147000000Y-106050000D03*
X147000000Y-103550000D03*
D12*
X161600000Y-109900000D03*
D13*
X159060000Y-109900000D03*
X156520000Y-109900000D03*
X153980000Y-109900000D03*
X151440000Y-109900000D03*
X148900000Y-109900000D03*
X146360000Y-109900000D03*
D14*
X187012000Y-105692000D03*
X189712000Y-105692000D03*
X189712000Y-113492000D03*
X187012000Y-113492000D03*
D15*
X108640000Y-137550000D03*
X108640000Y-132470000D03*
X103560000Y-137550000D03*
X103560000Y-132470000D03*
D16*
X108640000Y-135010000D03*
D15*
X108437587Y-111857220D03*
X103606220Y-110287413D03*
X106867780Y-116688587D03*
X102036413Y-115118780D03*
D16*
X106021903Y-111072316D03*
D15*
X108098071Y-120477122D03*
X105112122Y-124586929D03*
X112207878Y-123463071D03*
X109221929Y-127572878D03*
D16*
X106605097Y-122532025D03*
D15*
X124040000Y-137550000D03*
X124040000Y-132470000D03*
X118960000Y-137550000D03*
X118960000Y-132470000D03*
D16*
X124040000Y-135010000D03*
D15*
X116740000Y-109515000D03*
X116740000Y-104435000D03*
X111660000Y-109515000D03*
X111660000Y-104435000D03*
D16*
X116740000Y-106975000D03*
D15*
X116740000Y-118940000D03*
X116740000Y-113860000D03*
X111660000Y-118940000D03*
X111660000Y-113860000D03*
D16*
X116740000Y-116400000D03*
D15*
X116192122Y-123463071D03*
X119178071Y-127572878D03*
X120301929Y-120477122D03*
X123287878Y-124586929D03*
D16*
X117685097Y-125517975D03*
D15*
X139440000Y-137550000D03*
X139440000Y-132470000D03*
X134360000Y-137550000D03*
X134360000Y-132470000D03*
D16*
X139440000Y-135010000D03*
D15*
X121532220Y-116688587D03*
X126363587Y-115118780D03*
X119962413Y-111857220D03*
X124793780Y-110287413D03*
D16*
X123947903Y-115903684D03*
D17*
X157450000Y-104350000D03*
X157450000Y-105300000D03*
X157450000Y-106250000D03*
X154750000Y-106250000D03*
X154750000Y-104350000D03*
D15*
X154840000Y-137550000D03*
X154840000Y-132470000D03*
X149760000Y-137550000D03*
X149760000Y-132470000D03*
D16*
X154840000Y-135010000D03*
D15*
X170240000Y-137550000D03*
X170240000Y-132470000D03*
X165160000Y-137550000D03*
X165160000Y-132470000D03*
D16*
X170240000Y-135010000D03*
D18*
X192047000Y-105942000D03*
X193317000Y-105942000D03*
X194587000Y-105942000D03*
X195857000Y-105942000D03*
X197127000Y-105942000D03*
X198397000Y-105942000D03*
X199667000Y-105942000D03*
X200937000Y-105942000D03*
X202207000Y-105942000D03*
X203477000Y-105942000D03*
X203477000Y-113442000D03*
X202207000Y-113442000D03*
X200937000Y-113442000D03*
X199667000Y-113442000D03*
X198397000Y-113442000D03*
X197127000Y-113442000D03*
X195857000Y-113442000D03*
X194587000Y-113442000D03*
X193317000Y-113442000D03*
X192047000Y-113442000D03*
D15*
X185640000Y-137550000D03*
X185640000Y-132470000D03*
X180560000Y-137550000D03*
X180560000Y-132470000D03*
D16*
X185640000Y-135010000D03*
D15*
X201040000Y-137550000D03*
X201040000Y-132470000D03*
X195960000Y-137550000D03*
X195960000Y-132470000D03*
D16*
X201040000Y-135010000D03*
D15*
X216440000Y-137550000D03*
X216440000Y-132470000D03*
X211360000Y-137550000D03*
X211360000Y-132470000D03*
D16*
X216440000Y-135010000D03*
D15*
X235440000Y-113550000D03*
X235440000Y-108470000D03*
X230360000Y-113550000D03*
X230360000Y-108470000D03*
D16*
X235440000Y-111010000D03*
D15*
X235440000Y-125550000D03*
X235440000Y-120470000D03*
X230360000Y-125550000D03*
X230360000Y-120470000D03*
D16*
X235440000Y-123010000D03*
D15*
X235440000Y-137550000D03*
X235440000Y-132470000D03*
X230360000Y-137550000D03*
X230360000Y-132470000D03*
D16*
X235440000Y-135010000D03*
D15*
X250840000Y-113550000D03*
X250840000Y-108470000D03*
X245760000Y-113550000D03*
X245760000Y-108470000D03*
D16*
X250840000Y-111010000D03*
D15*
X250840000Y-125550000D03*
X250840000Y-120470000D03*
X245760000Y-125550000D03*
X245760000Y-120470000D03*
D16*
X250840000Y-123010000D03*
D15*
X250840000Y-137550000D03*
X250840000Y-132470000D03*
X245760000Y-137550000D03*
X245760000Y-132470000D03*
D16*
X250840000Y-135010000D03*
D19*
X135040000Y-112275000D03*
X135040000Y-112925000D03*
X135040000Y-113575000D03*
X135040000Y-114225000D03*
X135040000Y-114875000D03*
X135040000Y-115525000D03*
X135040000Y-116175000D03*
X135040000Y-116825000D03*
X135040000Y-117475000D03*
X135040000Y-118125000D03*
X135040000Y-118775000D03*
X135040000Y-119425000D03*
X135040000Y-120075000D03*
X135040000Y-120725000D03*
X142240000Y-120725000D03*
X142240000Y-120075000D03*
X142240000Y-119425000D03*
X142240000Y-118775000D03*
X142240000Y-118125000D03*
X142240000Y-117475000D03*
X142240000Y-116825000D03*
X142240000Y-116175000D03*
X142240000Y-115525000D03*
X142240000Y-114875000D03*
X142240000Y-114225000D03*
X142240000Y-113575000D03*
X142240000Y-112925000D03*
X142240000Y-112275000D03*
D20*
X151200000Y-104575000D03*
X151200000Y-106025000D03*
D21*
X169418000Y-102108000D03*
X204978000Y-102108000D03*
X202438000Y-102108000D03*
X199898000Y-102108000D03*
X197358000Y-102108000D03*
X194818000Y-102108000D03*
X192278000Y-102108000D03*
X189738000Y-102108000D03*
X171958000Y-102108000D03*
X174498000Y-102108000D03*
X177038000Y-102108000D03*
X179578000Y-102108000D03*
X182118000Y-102108000D03*
X184658000Y-102108000D03*
X187198000Y-102108000D03*
X187198000Y-102108000D03*
X184658000Y-102108000D03*
X182118000Y-102108000D03*
X179578000Y-102108000D03*
X177038000Y-102108000D03*
X174498000Y-102108000D03*
X171958000Y-102108000D03*
X189738000Y-102108000D03*
X192278000Y-102108000D03*
X194818000Y-102108000D03*
X197358000Y-102108000D03*
X199898000Y-102108000D03*
X202438000Y-102108000D03*
X204978000Y-102108000D03*
X169418000Y-102108000D03*
X204978000Y-117348000D03*
X202438000Y-117348000D03*
X199898000Y-117348000D03*
X197358000Y-117348000D03*
X194818000Y-117348000D03*
X192278000Y-117348000D03*
X189738000Y-117348000D03*
X187198000Y-117348000D03*
X184658000Y-117348000D03*
X182118000Y-117348000D03*
X179578000Y-117348000D03*
X177038000Y-117348000D03*
X174498000Y-117348000D03*
X171958000Y-117348000D03*
X169418000Y-117348000D03*
D22*
X240600000Y-110998000D03*
X240600000Y-135010000D03*
X175400000Y-135010000D03*
X113800000Y-135010000D03*
X126200000Y-120300000D03*
X106800000Y-106200000D03*
M02*
